<svg xmlns="http://www.w3.org/2000/svg" xmlns:xlink="http://www.w3.org/1999/xlink" viewBox="0 0 5536 4816"><defs><style>.cls-1{fill:#fff;}.cls-2{fill:#afd8c8;}.cls-3{fill:#01888b;}.cls-4{fill:#00666b;}.cls-5{fill:#ffe9ae;}.cls-6{fill:#053c5e;}.cls-7{fill:url(#_ÂÁ_Ï_ÌÌ_È_ËÂÌÚ_3);}.cls-8{fill:#63c0c4;}.cls-9{fill:url(#_ÂÁ_Ï_ÌÌ_È_ËÂÌÚ_3-2);}.cls-10{fill:url(#_ÂÁ_Ï_ÌÌ_È_ËÂÌÚ_3-3);}.cls-11{fill:url(#_ÂÁ_Ï_ÌÌ_È_ËÂÌÚ_3-4);}.cls-12{fill:url(#_ÂÁ_Ï_ÌÌ_È_ËÂÌÚ_3-5);}.cls-13{fill:#f7b58e;}.cls-14{fill:url(#_ÂÁ_Ï_ÌÌ_È_ËÂÌÚ_3-6);}.cls-15{fill:#f39f85;}.cls-16{fill:#212b53;}.cls-17{fill:url(#_ÂÁ_Ï_ÌÌ_È_ËÂÌÚ_3-7);}.cls-18{fill:url(#_ÂÁ_Ï_ÌÌ_È_ËÂÌÚ_3-8);}.cls-19{fill:#f9c8a1;}.cls-20{fill:url(#_ÂÁ_Ï_ÌÌ_È_ËÂÌÚ_3-9);}.cls-21{fill:url(#_ÂÁ_Ï_ÌÌ_È_ËÂÌÚ_3-10);}.cls-22{fill:#f9c49f;}.cls-23{fill:#ffda71;}.cls-24{fill:#ffdd83;}.cls-25{fill:#f08712;}.cls-26{fill:#fbcd97;}.cls-27{fill:#afd8c7;}.cls-28{fill:url(#_ÂÁ_Ï_ÌÌ_È_ËÂÌÚ_2);}.cls-29{fill:url(#_ÂÁ_Ï_ÌÌ_È_ËÂÌÚ_2-2);}.cls-30{fill:url(#_ÂÁ_Ï_ÌÌ_È_ËÂÌÚ_2-3);}.cls-31{fill:url(#_ÂÁ_Ï_ÌÌ_È_ËÂÌÚ_2-4);}.cls-32{fill:#12375a;}.cls-33{fill:#f49b42;}.cls-34{fill:#f9b646;}.cls-35{fill:#e7365e;}.cls-36{fill:#fbbb00;}</style><linearGradient id="_ÂÁ_Ï_ÌÌ_È_ËÂÌÚ_3" x1="1198.68" y1="2523.01" x2="2819.09" y2="2523.01" gradientUnits="userSpaceOnUse"><stop offset="0" stop-color="#dfefea"/><stop offset="1" stop-color="#bfe3ee"/></linearGradient><linearGradient id="_ÂÁ_Ï_ÌÌ_È_ËÂÌÚ_3-2" x1="1795.86" y1="1891.59" x2="2952.14" y2="1891.59" xlink:href="#_ÂÁ_Ï_ÌÌ_È_ËÂÌÚ_3"/><linearGradient id="_ÂÁ_Ï_ÌÌ_È_ËÂÌÚ_3-3" x1="2914.09" y1="2109.47" x2="2958.36" y2="3238.4" xlink:href="#_ÂÁ_Ï_ÌÌ_È_ËÂÌÚ_3"/><linearGradient id="_ÂÁ_Ï_ÌÌ_È_ËÂÌÚ_3-4" x1="3487.45" y1="2688.24" x2="3531.72" y2="3817.16" xlink:href="#_ÂÁ_Ï_ÌÌ_È_ËÂÌÚ_3"/><linearGradient id="_ÂÁ_Ï_ÌÌ_È_ËÂÌÚ_3-5" x1="4105.01" y1="3253.32" x2="4149.28" y2="4382.25" xlink:href="#_ÂÁ_Ï_ÌÌ_È_ËÂÌÚ_3"/><linearGradient id="_ÂÁ_Ï_ÌÌ_È_ËÂÌÚ_3-6" x1="3916.55" y1="3533.78" x2="4835.59" y2="2965.65" gradientTransform="matrix(-0.97, 0.25, 0.25, 0.97, 5214.52, -670.01)" xlink:href="#_ÂÁ_Ï_ÌÌ_È_ËÂÌÚ_3"/><linearGradient id="_ÂÁ_Ï_ÌÌ_È_ËÂÌÚ_3-7" x1="3525.88" y1="3661.94" x2="3992.72" y2="3661.94" gradientTransform="matrix(-1, 0, 0, 1, 5393.58, 0)" xlink:href="#_ÂÁ_Ï_ÌÌ_È_ËÂÌÚ_3"/><linearGradient id="_ÂÁ_Ï_ÌÌ_È_ËÂÌÚ_3-8" x1="1338.78" y1="3697.26" x2="1475.64" y2="3697.26" xlink:href="#_ÂÁ_Ï_ÌÌ_È_ËÂÌÚ_3"/><linearGradient id="_ÂÁ_Ï_ÌÌ_È_ËÂÌÚ_3-9" x1="2698.48" y1="3590.95" x2="2819.51" y2="3590.95" gradientTransform="matrix(-1, 0, 0, 1, 5291.56, 0)" xlink:href="#_ÂÁ_Ï_ÌÌ_È_ËÂÌÚ_3"/><linearGradient id="_ÂÁ_Ï_ÌÌ_È_ËÂÌÚ_3-10" x1="2907.11" y1="3599.79" x2="3090.05" y2="3599.79" gradientTransform="translate(-247.86)" xlink:href="#_ÂÁ_Ï_ÌÌ_È_ËÂÌÚ_3"/><linearGradient id="_ÂÁ_Ï_ÌÌ_È_ËÂÌÚ_2" x1="4528.58" y1="1858.86" x2="4832.35" y2="1858.86" gradientUnits="userSpaceOnUse"><stop offset="0" stop-color="#f1f8f7"/><stop offset="1" stop-color="#bfe3ee"/></linearGradient><linearGradient id="_ÂÁ_Ï_ÌÌ_È_ËÂÌÚ_2-2" x1="4528.58" y1="1950.74" x2="4773.55" y2="1950.74" xlink:href="#_ÂÁ_Ï_ÌÌ_È_ËÂÌÚ_2"/><linearGradient id="_ÂÁ_Ï_ÌÌ_È_ËÂÌÚ_2-3" x1="1671.44" y1="539.31" x2="2047.04" y2="539.31" xlink:href="#_ÂÁ_Ï_ÌÌ_È_ËÂÌÚ_2"/><linearGradient id="_ÂÁ_Ï_ÌÌ_È_ËÂÌÚ_2-4" x1="1594.73" y1="549.57" x2="2044.63" y2="549.57" xlink:href="#_ÂÁ_Ï_ÌÌ_È_ËÂÌÚ_2"/></defs><g id="_ÎÓÈ_2" data-name="—ÎÓÈ_2"><rect class="cls-1" width="5536" height="4816"/></g><g id="_ÎÓÈ_1" data-name="—ÎÓÈ_1"><path class="cls-2" d="M1449.55,3059.39s-68.63-638.32-521-767.1c-487.06,646.34,149.9,1123.63,149.9,1123.63Z"/><path class="cls-1" d="M928.54,2292.29c-1.7,2.25-3.33,4.49-5,6.73l266.18,708.06-442-165c.47,5.24,1,10.44,1.59,15.63l447,166.83,76.81,204.32,11.05-10.62L1131.05,2811h0l159.4-222.2c-2.63-4.36-5.28-8.72-8-13.05L1125.09,2795.1,937,2294.89c-2.84-.86-5.63-1.79-8.5-2.6Z"/><path class="cls-3" d="M1240,2999s-451.23-454.15-883.35-326.85C236.52,3200.43,805.32,3424,805.32,3424l559.74-11Z"/><path class="cls-4" d="M852.8,2731.59l-15.24,283.48L366.94,2669.36c-3.42.94-6.85,1.8-10.27,2.81-.47,2.08-.84,4.11-1.29,6.18l252,185.16-257.65,56.36c.47,2.46,1,4.88,1.51,7.32l1.41,6.46,269.86-59,420.05,308.56-449,113.33c4.69,3.74,9.36,7.42,14,11L1057.33,3194l298.28,219.11,9.45-.19-4-13.32-509.9-374.56,15.43-287Q859.73,2734.77,852.8,2731.59Z"/><path class="cls-5" d="M1207.68,3303.64s-526.56-91-711.51,216.56C831.11,4172,1683.88,3792,1683.88,3792Z"/><path class="cls-1" d="M496.17,3520.21c1.29,2.51,2.61,5,3.92,7.44l720.49,68L946.86,3878.92q8,1.92,16.1,3.63l275.58-285.22L1520,3623.88l-15.21-15.6-547.89-51.7L764.7,3326.85q-7.31,2.19-14.56,4.56L936.89,3554.7l-436.5-41.19c-1.41,2.23-2.85,4.41-4.22,6.68Z"/><path class="cls-3" d="M2596.72,742.18c182.7,0,330.79,141.3,330.79,315.55V4002.87c0,174.27-148.09,315.55-330.79,315.55H1430.46c-182.69,0-330.79-141.28-330.79-315.55V1057.73c0-174.25,148.1-315.55,330.79-315.55Z"/><path class="cls-6" d="M2634.3,798.46c172.65,0,242.94,133.53,242.94,298.22V3964c0,164.69-70.29,298.19-242.94,298.19H1416.09c-172.64,0-266.15-112.47-266.15-277.15V1075.64c0-164.71,93.51-277.18,266.15-277.18Z"/><rect class="cls-7" x="1198.68" y="875.74" width="1620.41" height="3294.53" rx="203.61"/><path class="cls-6" d="M2316.85,936.45c3.71,0,6.71-15.92,6.71-35.6h0c0-19.58-3-35.55-6.71-35.55H1696.9c-3.72,0-6.7,16-6.7,35.55h0c0,19.68,3,35.6,6.7,35.6Z"/><path class="cls-8" d="M3940.13,2561.4c-2.18-6.16-23.72-18.83-50.07-28a242.57,242.57,0,0,0-6.28-70.59c22.18-10.15,44.52-23.17,46.37-35.11,3.75-24.22-33.2-79.71-42.58-84.18-6-2.86-31,3.7-56.57,16.29a242.59,242.59,0,0,0-53.05-46c8.55-22.91,15.18-48,8-57.8-14.47-19.78-79.84-32.88-89.63-29.42-6.13,2.18-18.74,23.59-27.91,49.82a242.36,242.36,0,0,0-71.78,4.14c-10-21.37-22.5-42.2-34-44-24.22-3.75-79.71,33.21-84.18,42.58-2.66,5.58,2.82,27.57,13.72,51.21a242.87,242.87,0,0,0-50.3,55.93c-20.87-7.25-42.1-12-50.9-5.55-19.78,14.48-32.88,79.84-29.42,89.63,2,5.51,19.46,16.26,42,25a242.82,242.82,0,0,0,4.86,78.07c-18.69,9.33-35.33,20.36-36.91,30.59-3.75,24.22,33.2,79.7,42.58,84.17,5.15,2.46,24.35-2.05,45.9-11.36a242.33,242.33,0,0,0,60.1,51.28c-6.58,19.76-10.51,39.24-4.41,47.56,14.47,19.78,79.84,32.89,89.63,29.42,5.52-2,16.31-19.54,25.1-42.2a242.75,242.75,0,0,0,76.73-7.26c9.59,19.71,21.17,37.83,31.86,39.48,24.22,3.75,79.71-33.2,84.18-42.57,2.67-5.61-2.88-27.79-13.89-51.57a242,242,0,0,0,46.78-56.87c22,8,45.28,13.66,54.59,6.84C3930.49,2636.55,3943.6,2571.19,3940.13,2561.4Zm-327.73,61.7a109.11,109.11,0,1,1,137.7-69.64A109.11,109.11,0,0,1,3612.4,2623.1Z"/><path class="cls-1" d="M3598.32,2668.79c-83.47-27.39-129.08-117.59-101.69-201.06s117.59-129.09,201-101.69,129.1,117.59,101.7,201.05S3681.78,2696.18,3598.32,2668.79Zm96.16-293c-78.08-25.62-162.44,17.05-188.07,95.13s17.05,162.45,95.12,188.07,162.45-17,188.07-95.12S3772.56,2401.44,3694.48,2375.81Z"/><path class="cls-1" d="M3871.39,2543.45c-.94-.43-1.87-.87-2.78-1.35a222.58,222.58,0,0,1-10,47.48c-38.28,116.64-164.31,180.38-280.94,142.1-76.37-25.06-130-87.75-147.28-160.78h0c-1-.1-2-.24-3-.41,17.17,74.44,71.7,138.44,149.44,163.95,118.15,38.78,245.81-25.8,284.59-143.95A224.92,224.92,0,0,0,3871.39,2543.45Z"/><path class="cls-1" d="M3572.65,2310.51a221.44,221.44,0,0,1,143.88-1.87c.95.31,1.87.68,2.81,1,0-1,0-2,0-3.07-.64-.22-1.26-.47-1.9-.68a224.31,224.31,0,0,0-145.18,1.69C3572.4,2308.55,3572.54,2309.53,3572.65,2310.51Z"/><path class="cls-2" d="M4235.4,2732.43c-3.47-2.6-20.06-1.67-38,3a161.06,161.06,0,0,0-29.48-36.74c8.54-13.79,16.09-29.22,12.72-36.51-6.85-14.78-47.74-31.86-54.57-30.88-4.37.63-15.77,13.46-25.3,29.85a161.54,161.54,0,0,0-46.28-5.88c-3.72-15.83-9.3-32.17-16.86-34.94-15.29-5.61-56.28,11.23-60.42,16.75-2.59,3.46-1.68,20,2.92,37.84a161.17,161.17,0,0,0-38.19,28.74c-13.4-8.15-28-15-35-11.8-14.78,6.85-31.86,47.74-30.88,54.57.58,4.07,11.72,14.21,26.46,23.28a161.32,161.32,0,0,0-7.22,49.47c-14.21,3.68-27.71,8.88-30.21,15.68-5.6,15.3,11.23,56.29,16.75,60.43,3.11,2.33,16.76,1.83,32.48-1.64a161,161,0,0,0,31.45,41.4c-6.9,12-12,24.28-9.15,30.53,6.85,14.78,47.74,31.86,54.57,30.88,3.76-.54,12.72-10.11,21.21-23.2a161.22,161.22,0,0,0,52.15,6.23c3.63,13.35,8.64,25.57,15.08,27.93,15.29,5.61,56.28-11.22,60.42-16.74,2.33-3.12,1.83-16.83-1.66-32.6a161.14,161.14,0,0,0,39.77-32.29c12.57,7.38,25.65,13.13,32.18,10.11,14.78-6.85,31.86-47.74,30.88-54.57-.59-4.09-11.83-14.31-26.68-23.41a160.92,160.92,0,0,0,4.92-48.7c15.11-3.71,30.08-9.12,32.73-16.33C4257.76,2777.56,4240.92,2736.57,4235.4,2732.43Zm-158.58,154.89a72.52,72.52,0,1,1,50.52-89.27A72.54,72.54,0,0,1,4076.82,2887.32Z"/><path class="cls-1" d="M4085.87,2917.78a105.9,105.9,0,1,1,73.76-130.34A106,106,0,0,1,4085.87,2917.78Zm-54.75-197.51a99.06,99.06,0,1,0,121.92,69A99.17,99.17,0,0,0,4031.12,2720.27Z"/><path class="cls-1" d="M4190.76,2747.83c-.68.11-1.36.2-2,.28a147.73,147.73,0,0,1,12,29.94c21.8,78.63-24.44,160.33-103.07,182.13a148,148,0,0,1-140.72-34.69h0c-.6.33-1.22.62-1.84.9A150,150,0,0,0,4098.13,2962c79.65-22.08,126.49-104.84,104.41-184.49A149.44,149.44,0,0,0,4190.76,2747.83Z"/><path class="cls-1" d="M3939.66,2729a147.3,147.3,0,0,1,78.91-54c.64-.18,1.28-.31,1.93-.48-.4-.55-.77-1.12-1.14-1.7-.43.12-.87.21-1.3.33a149.12,149.12,0,0,0-79.7,54.43C3938.81,2728,3939.24,2728.53,3939.66,2729Z"/><path class="cls-3" d="M4392,3459.85s-182.1-447.16,71.56-693.71c552.94,254.38,301.28,797.51,301.28,797.51Z"/><path class="cls-4" d="M4463.58,2766.14c1.92.88,3.8,1.79,5.7,2.68l76.14,563.77,233.88-266.81q2.32,5.46,4.51,10.92L4547.3,3346.51l22,162.69-11.11-3.09-43.8-324.31h0l-184.77-90.32c.19-3.83.39-7.66.64-11.49l182.43,89.17-53.79-398.28c1.57-1.58,3.09-3.19,4.69-4.75Z"/><path class="cls-2" d="M4509.25,3345.18s136.91-461.6,468.45-531.34c267.87,307-29.1,657.78-29.1,657.78L4574,3663.85Z"/><path class="cls-1" d="M4670.34,3030l111.14,182.3,188.41-396.7c2.6-.6,5.18-1.25,7.81-1.8,1.05,1.21,2,2.42,3.05,3.63l-100.9,212.47,190.71-54.53c.56,1.79,1.07,3.59,1.61,5.38l1.36,4.79-199.74,57.11-168.16,354.07,337.76-85c-1.77,4.15-3.56,8.26-5.37,12.28l-338.28,85.17L4580.33,3660.6l-6.33,3.25-2.09-10.25L4776,3223.79l-112.52-184.56Q4666.88,3034.63,4670.34,3030Z"/><path class="cls-5" d="M4639.26,3535.37s316.25-248,548.37-110.24c10.55,551-689.63,603.38-689.63,603.38Z"/><path class="cls-1" d="M5187.63,3425.14c0,2.13,0,4.22.05,6.33l-452.87,301.86,282.24,90c-3.09,2.75-6.22,5.46-9.36,8.14l-284.17-90.64-176.89,117.9,4.51-15.75,344.39-229.55,45.35-220.63q5.61-1.14,11.27-2.16l-44.08,214.43,274.38-182.88c1.72,1,3.45,1.9,5.17,2.92Z"/><rect class="cls-3" x="1310.13" y="1184.23" width="1378.55" height="2765.85"/><rect class="cls-2" x="1878.01" y="2131.4" width="699.11" height="105.41"/><rect class="cls-8" x="1310.13" y="1050.51" width="1379.93" height="163.4"/><rect class="cls-1" x="1352.81" y="1087.94" width="557.3" height="94.33"/><path class="cls-1" d="M2515.32,1538a50,50,0,1,0,50-50A50,50,0,0,0,2515.32,1538Z"/><rect class="cls-1" x="1886.02" y="1738.53" width="610.08" height="24.98"/><rect class="cls-1" x="1886.02" y="1813.38" width="610.08" height="24.98"/><rect class="cls-1" x="1880.05" y="1906.95" width="710.11" height="24.98"/><rect class="cls-1" x="1880.05" y="1981.8" width="539.74" height="24.98"/><path class="cls-9" d="M1795.86,1309v83.36H1955V1507.8h-5v845.45c0,66.18,70.54,120.33,156.76,120.33h0l845.44.59V1502.44c0-106.83-112.82-193.42-252-193.42Z"/><path class="cls-10" d="M2339.11,2075.72v69.43H2475.5v96.13h17.69v704.17c0,55.13,70.54,100.23,156.76,100.23h0l845.44.49V2236.84c0-89-112.83-161.12-252-161.12Z"/><path class="cls-8" d="M2355.36,2070.69h0c-53.56.17-96.87,33.55-96.87,74.66v236.32c0,51.08-38.87,79.55-88,92.5h325.13V2191C2495.57,2124.84,2432.47,2070.69,2355.36,2070.69Z"/><path class="cls-11" d="M2912.47,2654.49v69.43h125v96.13h29.05v704.17c0,55.13,70.55,100.23,156.76,100.23h0l845.44.49V2815.61c0-89-112.83-161.12-252-161.12Z"/><path class="cls-8" d="M2927.25,2642.69h0c-53.56.16-96.87,33.54-96.87,74.66v236.31c0,51.08-38.86,79.55-88.05,92.51h325.14V2763C3067.47,2696.84,3004.37,2642.69,2927.25,2642.69Z"/><path class="cls-12" d="M3530,3219.57V3289h125v96.13h29.05V4089.3c0,55.13,70.54,100.23,156.76,100.23h0l845.44.49V3380.69c0-89-112.83-161.12-252-161.12Z"/><path class="cls-8" d="M3544.81,3207.77h0c-53.56.16-96.87,33.54-96.87,74.66v236.31c0,51.08-38.87,79.55-88.05,92.51H3685V3328.1C3685,3261.92,3621.93,3207.77,3544.81,3207.77Z"/><path class="cls-8" d="M1804.46,1296.54h0c-62.78.09-114.15,39.59-114.15,87.79V2135c0,51.05-56.46,94.75-122.09,111.7v7.63h393l9.35-856.39C1970.57,1332.26,1890.68,1296.54,1804.46,1296.54Z"/><rect class="cls-3" x="3942.38" y="3407.8" width="541.01" height="17.43"/><rect class="cls-3" x="3942.38" y="3477.53" width="541.01" height="17.43"/><rect class="cls-3" x="3359.23" y="2883.52" width="541.01" height="17.43"/><rect class="cls-3" x="3359.23" y="2953.25" width="541.01" height="17.43"/><rect class="cls-3" x="2736.53" y="2240.88" width="541.01" height="17.43"/><rect class="cls-3" x="2736.53" y="2310.61" width="541.01" height="17.43"/><rect class="cls-3" x="2736.53" y="2389.06" width="541.01" height="17.43"/><rect class="cls-3" x="2736.53" y="2458.79" width="541.01" height="17.43"/><rect class="cls-3" x="2186.63" y="1461.42" width="541.01" height="17.43"/><rect class="cls-3" x="2186.63" y="1531.16" width="541.01" height="17.43"/><rect class="cls-3" x="2186.63" y="1609.6" width="541.01" height="17.43"/><rect class="cls-3" x="2186.63" y="1679.33" width="541.01" height="17.43"/><rect class="cls-3" x="2186.63" y="1755.36" width="541.01" height="17.43"/><rect class="cls-3" x="2186.63" y="1825.09" width="541.01" height="17.43"/><rect class="cls-3" x="2186.63" y="1903.54" width="541.01" height="17.43"/><rect class="cls-3" x="2186.63" y="1973.27" width="541.01" height="17.43"/><path class="cls-13" d="M2401.28,3461c5.15-1.87,22.22-9.92,45-40.88,20.46-27.78,46.1-98,67.7-68.31-2.12,37.37-.13,81.49-.13,81.49-3.51,22.48-30.77,49.36-50.93,62.88l-67,34.11s-33.6-14.21-35.32-14.59l2.61-15.65A176.9,176.9,0,0,0,2401.28,3461Z"/><path class="cls-13" d="M2420.34,3458.91a27.53,27.53,0,0,0,5.51-1.09c-.83,4.85-1.38,9.69-1.77,14.51-9,15.59-17.56,31.45-26.42,47.14-8.26-6.39-19.88-15.33-20.81-15.81l37.6-114.24s15.46-1.61,15.54,23.56A119.75,119.75,0,0,1,2420.34,3458.91Z"/><path class="cls-14" d="M1679.93,3658.29s128.51,229.42,313.43,206.65,422.19-324.29,422.19-324.29l-48.83-56.57-288.91,166a108.75,108.75,0,0,1-134-20.51L1806.3,3480.72Z"/><polygon class="cls-15" points="1685.62 3305.57 1696.02 3407.93 1586.34 3412.27 1608.32 3253.6 1685.62 3305.57"/><path class="cls-13" d="M1719.32,3324.28c12.74-.35,24.55-2.26,30.72-7.3,36.76-53.44-5.11-197.52-5.11-197.52l-58.73-24.73-74.64,46.55-4.25,96.55c-1.13,25.78,11.24,50.5,33.33,66.6h0A152.88,152.88,0,0,0,1719.32,3324.28Z"/><path class="cls-16" d="M1623.32,3196c4.1-16.22,2-53.64,18.48-50.93,12,2,53.33,3.67,67.22,3.67,33.1,0,92.12-13,92.12-63.33,0-25.19-24.43-46.91-39.91-53.36-15.18-6.34-32.33-6-47.87-.61-36.46,12.74-84.8,40.86-104.08,37-32.44-6.52-64.8,12.51-64.34,40.07.48,29.44,15.85,73.72,30.32,101.85a154.73,154.73,0,0,0,33.06,43.26h0Z"/><path class="cls-13" d="M1589.76,3199.65c7.37-6.52,21.18-5.29,30.84,2.75s11.5,19.83,4.13,26.35-21.19,5.28-30.85-2.76S1582.38,3206.16,1589.76,3199.65Z"/><path class="cls-17" d="M1867.7,3945.67V3670.8c0-121-94.47-287.94-215.42-292.38q-5.46-.2-11.1-.2a331.1,331.1,0,0,0-50.54,3.76c-110,16.92-189.78,114.25-189.78,225.59v338.1Z"/><polygon class="cls-1" points="1691.13 3350.58 1593.61 3350.58 1578.09 3386.49 1703.69 3389.74 1691.13 3350.58"/><path class="cls-18" d="M1475.17,3947.3l-6.56-500.08s-81.78,35.82-120.44,245.71c-12.53,68.05-10.64,185-5.18,254.37Z"/><path class="cls-8" d="M1479.8,3940.78,1475,3573.93q-4.82,7.91-9.57,15.85l4.61,351Z"/><rect class="cls-4" x="1566.93" y="3169.62" width="75.06" height="75.06" rx="18.06"/><path class="cls-4" d="M1687.87,3042.13a120.09,120.09,0,0,1,34.38-13h-50.77a82,82,0,0,0-82,81.95v77.09h13V3111a69,69,0,0,1,68.91-68.91Z"/><path class="cls-3" d="M1742.5,3287.62l-3.55-12.55,23.49-6.63a16.3,16.3,0,0,0,10.15-22.94l-8.34-16.74-3.36-33.3,23.37,44.23A29.33,29.33,0,0,1,1766,3281Z"/><path class="cls-6" d="M1746.78,3291l-16.64,4.31a11.59,11.59,0,0,1-14.08-8.29h0a11.6,11.6,0,0,1,8.29-14.08l16.64-4.3a11.59,11.59,0,0,1,14.08,8.29h0A11.58,11.58,0,0,1,1746.78,3291Z"/><path class="cls-5" d="M1854.38,3276.08l5.39-1.87c74-25.67,153.6-30,230.32-14,88.07,18.32,207.51,33.49,273.52.79,45-22.31,98.26-141.17,87.57-215.61-8.19-57-58.37-99.06-115.75-104-87-7.42-248.62-12.11-326.39,44.2-109.39,79.22-109.39,218.78-109.39,218.78Z"/><polygon class="cls-15" points="2569.9 3481.73 2554.4 3516.35 2529.18 3493.62 2546.97 3443.18 2569.9 3481.73"/><path class="cls-19" d="M2578.87,3483.92c4.23.57,8.25.52,10.59-1,15.34-17.37,10.08-68.55,10.08-68.55l-17.95-15.47-27.46,12.81-7.16,28.12c-1.91,9.28.71,25.56,7.06,32.59h0A47.7,47.7,0,0,0,2578.87,3483.92Z"/><path class="cls-13" d="M2583,3667.46a39.73,39.73,0,0,0,18.6,13.27c12.41,4.26,104.77-15.12,104.77-15.12l18.56,1.94a47.13,47.13,0,0,0,29.38-1.52l27.17-10.5-159.37-3.33-61-75.75Z"/><path class="cls-20" d="M2529.18,3493.62s-36.82,47.16-45.43,78.17-11.7,116.49-11.7,116.49h77.49s22.25-40.32,39.52-76.91a41.87,41.87,0,0,0,.48-34.77c-12.65-28.65-31.64-68-31.64-68Z"/><path class="cls-13" d="M2568.52,4204.23l6.14,16a20.59,20.59,0,0,0,8.37,10.63,80.72,80.72,0,0,0,21.16,9.6c-12.32,10.52-31.92-.46-43.13-8.23a27.46,27.46,0,0,1-11-15.88l-2.56-12.11Z"/><path class="cls-6" d="M2548.87,4212.55s-8.33,6.55-6.8,14.89,3.69,27.9,3.69,27.9h8.56l-.26-18.24c0-1.19,18.37,18.24,21.47,18.24h45.33s3-12.3-23.6-16.25S2548.87,4212.55,2548.87,4212.55Z"/><path class="cls-13" d="M2480.41,4204.23l6.15,16a20.54,20.54,0,0,0,8.37,10.63,80.72,80.72,0,0,0,21.16,9.6c-12.32,10.52-31.92-.46-43.13-8.23a27.41,27.41,0,0,1-11-15.88l-2.57-12.11Z"/><path class="cls-6" d="M2460.77,4212.55s-8.33,6.55-6.81,14.89,3.69,27.9,3.69,27.9h8.57l-.27-18.24c0-1.19,18.37,18.24,21.48,18.24h45.32s3-12.3-23.6-16.25S2460.77,4212.55,2460.77,4212.55Z"/><path class="cls-16" d="M2549.54,3689.64s38.45,57.63,5.54,287.38c5.17,86.84,14.82,229.75,14.82,229.75h-21.82s-60.51-152.22-40.2-228c4.82-75.1-13.79-290.45-13.79-290.45Z"/><path class="cls-6" d="M2472.05,3688.28s-40.24,32.37-40.24,80.44c0,37.71,18.17,115.82,28.59,167,3.79,18.56,0,37.74-5.26,55.94-21.28,74.16,4.58,215.16,4.58,215.16h21.71s1.19-72.52,30.88-235.1c34.11-186.74,37.23-283.39,37.23-283.39Z"/><polygon class="cls-21" points="2785.83 3655.53 2659.25 3655.53 2659.25 3646.22 2780.21 3646.22 2833.95 3544.04 2842.19 3548.37 2785.83 3655.53"/><path class="cls-22" d="M2494.09,3580.06s40.43,94.12,59.86,94.12,127-46,127-46l-2.86-16.06-109.84,18.61a482.91,482.91,0,0,1-16.48-55.7c-2.68-11.8-11.81-21.42-23.7-23.66C2502.11,3546.45,2494.09,3580.06,2494.09,3580.06Z"/><path class="cls-16" d="M2547.75,3430.69s12,7.24,48.69-16.29c5.62,1.47-3.35-51.42-50.84-35.89-33.24,10.88-31.65,43.06-30.11,60.86,1.65,19.23-8.36,31.92-21.58,46-11.09,11.79-10.92,33.49-18.3,45.16-9.09,14.36-18.73,13.52-25.94,28.09-7.55,15.25-8.58,33.9,1.52,47.59,5.75,7.78,19.13,26.55,40.32,19.86,11.89-3.75,15.09-24.51,15.62-42a52.93,52.93,0,0,1,20.19-39.73c11.43-9.1,23.9-21.56,27.24-34.56C2561.11,3484.25,2547.75,3430.69,2547.75,3430.69Z"/><path class="cls-13" d="M2543.44,3431.71c2.83-2,7.32-.76,10,2.67s2.62,7.82-.21,9.78-7.32.76-10-2.68S2540.61,3433.67,2543.44,3431.71Z"/><path class="cls-22" d="M2738.28,3620.35a5.28,5.28,0,0,0-3.14-5.44l-20.65-9a22.61,22.61,0,0,0-16.15-.72l-20.48,6.8-2.77.1-2.21,19.06c4.1-1.5,6.49-2.43,6.49-2.43l13-4.71s28.27,24,38.37,2.2c3,21.55,9.17,19.16,9.17,19.16Z"/><path class="cls-16" d="M2529.53,3412.16c4.06,14.72,25,21.79,46.74,15.78s33.54-22.34,32-37.53c-2-20-25-21.79-46.74-15.78S2525.46,3397.44,2529.53,3412.16Z"/><path class="cls-5" d="M2696,3460.59s15-22.93,20.26-29.1c19.15-19.82-16.92-115.81,6.35-131.17s191.35-34.56,209.7,0,27.67,141.42-6.46,156.35-168.56,4.26-183.46-.59C2717.37,3447.94,2696,3460.59,2696,3460.59Z"/><path class="cls-1" d="M2775.27,3374.74s44.92-17.57,45.81-55.2c5.87-24.29,16.45-9.4,16.45-9.4s9.25,26.37,0,45.85c16.55,3.19,27.69,1.5,39.9,7.05,11.82,5.37,8.73,38-12,64.66-14.74,18.93-86.24-2.31-86.24-2.31Z"/><circle class="cls-5" cx="3879.9" cy="1302.95" r="124.35"/><path class="cls-1" d="M3818.31,1321.27h133.38s-14,64.8-67.78,64.8S3818.31,1321.27,3818.31,1321.27Z"/><path class="cls-1" d="M3940.78,1270.83a11.42,11.42,0,1,0-22.35-3.26,11,11,0,0,0,.53,3.26Z"/><path class="cls-1" d="M3850.83,1270.83a11.45,11.45,0,1,0-21.83,0Z"/><path class="cls-13" d="M3792.59,3458.47a28.49,28.49,0,0,0-1.22,20.33l3.71,26.38,4.53,3,16.86,7a18.19,18.19,0,0,1,0-10.56l7.41-27.29s11.52-46-19.74-44.08c.16-37.5-10.29-31.31-10.29-31.31l-.72,32.43Z"/><path class="cls-23" d="M3714.81,3549.66s21.85,83.41,40.49,84.91,38-132.14,38-132.14l25.35,3.06s9.84,192.16-47,195.66-64.37-39-64.37-39Z"/><path class="cls-24" d="M3712.43,3777.71H3563.69v-225.9c42.5-64.85,95.46-47.18,95.46-47.18s48.15.86,55.66,45C3714.81,3581.63,3712.43,3777.71,3712.43,3777.71Z"/><path class="cls-15" d="M3641.77,3474.62l-2.2,31.94,1,1a27.7,27.7,0,0,0,37.63.53h0l.5-24Z"/><path class="cls-13" d="M3630.08,3407.9l2.7,52.79c5.25-.22,8.33,5.42,7.33,10.36a9.87,9.87,0,0,1,.88,3.89c9.11,6.53,25.68,15,47,10.95,33.41-6.39,13.24-71,13.24-71Z"/><path class="cls-16" d="M3613.29,3447.55c-.25-3.87-5.53-12.09-8.46-14.62-18.92-16.37-2-28.3,4-32.16,6.64-4.26,5.34-16.3,13.93-23,13.13-10.27,25.78.38,34.18-1.18s13.62-12.74,25.84-6.81,10.87,15.51,14.79,19.56,11.12-7.14,23,5.64c18.13,19.44-17.42,27.76-17.42,27.76s-19.46,8.05-45.22-2.06c-3.54-1.38-7.74-.62-10,2.45-6.15,8.41-6.23,52.45-6.23,52.45l-8.59-7.15S3614.43,3465.28,3613.29,3447.55Z"/><path class="cls-13" d="M3633.33,3451.87a8.1,8.1,0,1,0,4.43-10.57A8.11,8.11,0,0,0,3633.33,3451.87Z"/><path class="cls-16" d="M3678.72,4203.66s8.39,11.6,47.9,21.67c8.7,2.22,18.08,3.73,18.08,18.08h-39l-39.89-6.9v6.9h-21.54s-6-35.23,6.59-39.75Z"/><path class="cls-13" d="M3680.77,4178.36l-2.05,25.3h0a24.36,24.36,0,0,1-26.39.89l-1.47-.89v-25.3Z"/><path class="cls-16" d="M3567.92,4203.66s8.38,11.6,47.9,21.67c8.7,2.22,18.08,3.73,18.08,18.08h-39l-39.88-6.9v6.9h-21.54s-6-35.23,6.58-39.75Z"/><path class="cls-13" d="M3570,4178.36l-2,25.3h0a24.36,24.36,0,0,1-26.39.89l-1.48-.89v-25.3Z"/><path class="cls-24" d="M3563.79,3551.81s-44.58,102.89,12.3,155.45,134.11,43.61,134.11,43.61v-29.63s-69.8-5.9-92.17-52.56,8.95-87,8.95-87"/><path class="cls-13" d="M3705.64,3746.81l35.61.75c14.46-.8,24.08-22.39,26.48-38.44a3.26,3.26,0,0,0-4.32-3.52c-12.08,4.19-43.16,15.19-51.19,20.18Z"/><path class="cls-4" d="M3712.43,3777.71c44.37,125.26-25,402.61-25,402.61h-39.52s18.64-393.29-32.8-402.61Z"/><path class="cls-23" d="M3610.09,3637.55a80.13,80.13,0,0,0,7.94,31.13c22.37,46.66,95.8,52.84,95.8,52.84v29.93s-80.85,8.37-137.74-44.19c-20.62-19.06-27.87-44.73-28.78-69.71Z"/><path class="cls-25" d="M3610.43,3642.06c-1.56-.7-3.13-1.38-4.67-2.12-2.68-34.48,17.49-60.48,17.74-60.8l3.51,2.78C3626.76,3582.23,3606.67,3608.17,3610.43,3642.06Z"/><path class="cls-13" d="M3799.42,3462.43s-8.2-2.46-9.49-17.44-8.35-10.34-8.35-10.34,3.68,59,13.09,61.25S3799.42,3462.43,3799.42,3462.43Z"/><path class="cls-3" d="M3668.69,3777.71c12.08,153.59-86,402.61-86,402.61h-47s31.92-159.23,32.57-308.67c.14-32.35-1.19-64.23-4.62-93.94Z"/><path class="cls-4" d="M4329.4,4193.06s9.2,4.87,9.18,13.2,1.32,27.59,1.32,27.59l-8.28,1.5-2.93-17.66c-.23-1.15-14.84,18.66-24.79,28.6l-36.56.71s-5.06-11.36,20-19.83S4329.4,4193.06,4329.4,4193.06Z"/><path class="cls-26" d="M4299.68,4047.06a157.33,157.33,0,0,0-2.15-22.32,137.4,137.4,0,0,0-18.26-45.89c-9-3.33-17.55-7.48-26.71-11.1-9.59-3.79-20-6.21-32.4-9.19.46,1.23.92,2.47,1.39,3.71,53.55,141.31,83.5,205.49,88.17,220.68a17.73,17.73,0,0,1,1.12,7c-.78,7.34-4.19,23-25.66,37.94,22.8,5.68,44.22-34.86,44.22-34.86S4300.82,4095.69,4299.68,4047.06Z"/><polygon class="cls-15" points="4189.32 3475.53 4191.74 3513.94 4229.25 3506.18 4224.74 3453.98 4189.32 3475.53"/><path class="cls-13" d="M4180.67,3475.93c-5.49-.16-10.56-1.06-13.22-3.44-15.81-25.19,2.2-93.09,2.2-93.09l57.36,10.29,1.83,45.5a38.24,38.24,0,0,1-14.34,31.39h0A61.32,61.32,0,0,1,4180.67,3475.93Z"/><path class="cls-4" d="M4217.59,4206.45s7.89,6.21,6.44,14.12-3.49,26.43-3.49,26.43h-8.12l.25-17.28c0-1.13-17.41,17.28-20.35,17.28h-42.95s-2.85-11.66,22.37-15.4S4217.59,4206.45,4217.59,4206.45Z"/><path class="cls-13" d="M4239.37,4060.57a158.1,158.1,0,0,0,5.72-21.69c3.43-21.38,3.73-51.34,1.67-61-7.26-6.23-16.76-1.44-24.1-8-7.67-6.89-16.55-12.75-27.19-19.86,0,1.32,0,2.63,0,4,1.23,151.12,7.07,221.7,6.18,237.57-.13,2.42-7.29,33.65-32.61,40.2,19.42,13.23,48.54-25.26,48.54-25.26S4223.57,4106.57,4239.37,4060.57Z"/><path class="cls-3" d="M4191.33,3507.4l-36,58.87a46,46,0,0,0-3.3,30l22.88,100.46a88.39,88.39,0,0,1,2.19,17.75l5.47,263.37h115s-14.59-52-21.89-119.09,14.06-96.3,8.11-125.68c-3.51-17.3-13.81-39.22-28.32-57.33a55.79,55.79,0,0,1-11.92-33.56c-1.22-49.81,50.95-187.34,1.15-153.87S4191.33,3507.4,4191.33,3507.4Z"/><path class="cls-13" d="M4189.34,3656.36l-2.7,9.66c-1.5,5.36-3.41,7.39-7.76,14.58-12.68,21.15-55.4,73-55.4,73l-34.54,19.58s.72,5,8.55,3.56A35.59,35.59,0,0,0,4111,3771s1.43,5.68-5.7,17.09c-5.32,8.52-22.4,23-10.68,25.63,10.68-4.63,23.78-13.15,23.78-13.15A23,23,0,0,0,4130,3784.3l3.12-18.28,73.33-59.95a55.44,55.44,0,0,0,17.55-25.48l.24-.73Z"/><path class="cls-13" d="M3990,3596.57c-1.74.12-7.72-.05-17.9-6.27-9.14-5.59-24.44-23.11-27.66-11.47,4.7,10.82,8.91,24.18,8.91,24.18,3.49,6.22,14.56,10.65,22.06,12l23.72,1.4s8.49-8.59,9-8.93l-2.48-4.31A51.77,51.77,0,0,1,3990,3596.57Z"/><polygon class="cls-4" points="4225.24 3682.71 4187.41 3657.22 4201.81 3556.42 4205.35 3556.93 4191.27 3655.51 4223.18 3677.01 4246.73 3596.76 4250.16 3597.76 4225.24 3682.71"/><path class="cls-16" d="M4210,3406.43a58.29,58.29,0,0,1-31,7.16c-11.33-.42-25.53-9.69-30.31-20-4-8.68-4.91-17.69,8.46-27.77,9.16-6.81,20.54-2.54,25.45,1.87a9.61,9.61,0,0,0,12.75.34c7.05-6,19.79-13.61,38.82-13.61,19.95,0,19.4,19.35,16.37,33.41a20.2,20.2,0,0,0,8.94,21.51c11.84,7.33,26.92,19.29,23.82,31.24-2.49,9.62-8.19,18.45-13.26,24.88a17.68,17.68,0,0,0-.17,21.56c7.36,9.71,16,23.82,13.43,34-2.41,9.67-9.62,22.07-15.42,31a19.24,19.24,0,0,0,0,20.82c3.18,5,5.71,11.71,4,19.37a44.72,44.72,0,0,1-7.28,15.66,12.51,12.51,0,0,1-21.43-1.65c-13.07-26.37-35.94-80.36-27.95-121.53,4-20.65,9.46-57.08,9.46-57.08S4230.64,3397.65,4210,3406.43Z"/><path class="cls-13" d="M4180.18,3629.42l-43.92,22.76a24.05,24.05,0,0,1-17.77,1.74l-120.78-38.14v-15.25l117.71,14.29,36.82-19.58Z"/><path class="cls-13" d="M4232.26,3417.19c-3.17-3.07-9.11-2.49-13.26,1.3s-4.95,9.35-1.78,12.42,9.11,2.49,13.27-1.3S4235.43,3420.26,4232.26,3417.19Z"/><path class="cls-3" d="M4189.34,3625.09,4177.17,3550,4125,3609.92l14.3,46.64,49.7-25.71C4187.53,3625.12,4189,3630.85,4189.34,3625.09Z"/><path class="cls-8" d="M4167.69,3665.14c1.39-1,1.39-1,2.81-2l-16.42-67.38a44.12,44.12,0,0,1,3-28.41l35.58-58.24c-1.16-.82-.8-.71-1.37-1.74-.13-.24-1.59-.3-2-.36l-36,58.31a48.4,48.4,0,0,0-3.45,31.39"/><path class="cls-13" d="M3984,3598.43a9.28,9.28,0,0,1-1.77.39c.78,1.34,1.47,2.7,2.11,4.08,4.39,3.46,8.67,7.06,13,10.56,1.78-3,4.27-7.14,4.5-7.41l-23.66-29s-4.8,1.53-2.08,9A35.4,35.4,0,0,0,3984,3598.43Z"/><path class="cls-3" d="M4427.4,1616.55l-59.37-33.9a86,86,0,0,0-117.25,32l-76.73,134.39a63.71,63.71,0,0,0-22.34-18.65c-29.1-14.66-65.79-4.3-82.94,23.4a63.63,63.63,0,0,0,88.89,86.94l100.41-178.43a34.16,34.16,0,0,1,46.7-12.92l96,54.78a34.14,34.14,0,0,1,12.72,46.61l-52.23,91.49a63.62,63.62,0,0,0-22.68-18.84c-29.33-14.52-66.14-3.78-83,24.24a63.89,63.89,0,0,0,23,88.51c21.84,12.47,44.82,12.23,64.35-1l116.24-201A86,86,0,0,0,4427.4,1616.55Z"/><path class="cls-2" d="M3459,1644.72c-72.74,62.35-10.39,330.9,20.78,364.39s304.82,54.74,384.48-31.86,55.42-325,0-382.17S3531.75,1582.38,3459,1644.72Z"/><polygon class="cls-1" points="3628.74 1748.45 3646.05 1859.48 3727.45 1783.28 3628.74 1748.45"/><polygon class="cls-27" points="4811.06 1891.53 4845.16 1958.59 4773.55 1942.25 4528.58 1865.06 4811.06 1891.53"/><polygon class="cls-8" points="4845.16 1958.59 4723.51 1951.03 4753.32 1935.88 4845.16 1958.59"/><polygon class="cls-28" points="4811.06 1891.53 4832.35 1826.2 4528.58 1865.06 4811.06 1891.53"/><polygon class="cls-29" points="4528.58 1865.06 4773.55 1942.25 4737.04 2036.43 4528.58 1865.06"/><path class="cls-8" d="M4818.3,2026.08a5.72,5.72,0,0,0,1.17-9.42,161,161,0,0,0-24.08-17.35,5.72,5.72,0,1,0-5.79,9.87,149.24,149.24,0,0,1,22.36,16.11A5.71,5.71,0,0,0,4818.3,2026.08Z"/><path class="cls-8" d="M4729.27,2651.46a5.72,5.72,0,0,1,2-7.83,161.15,161.15,0,0,0,42-36.38,5.73,5.73,0,0,1,8.83,7.29,172.55,172.55,0,0,1-45,38.95l-.32.17A5.72,5.72,0,0,1,4729.27,2651.46Zm65.21-64.16a5.7,5.7,0,0,1-2.14-7.79,205.07,205.07,0,0,0,20.75-52.09,5.72,5.72,0,1,1,11.11,2.75,215.57,215.57,0,0,1-21.92,55,5.71,5.71,0,0,1-7.8,2.14Zm29.15-87a5.72,5.72,0,0,1-5.31-6.11l.16-2.58a264.25,264.25,0,0,0-2.81-53.79,5.72,5.72,0,0,1,11.31-1.71,276.2,276.2,0,0,1,2.93,56.12l-.17,2.77a5.74,5.74,0,0,1-3.12,4.7A5.83,5.83,0,0,1,4823.63,2500.28Zm-7.95-91.71a5.71,5.71,0,0,1-7-4.06,415.78,415.78,0,0,0-18.58-53.88,5.78,5.78,0,0,1,3.07-7.49,5.72,5.72,0,0,1,7.48,3.06,426.17,426.17,0,0,1,19.09,55.37,5.73,5.73,0,0,1-2.94,6.57A5.87,5.87,0,0,1,4815.68,2408.57ZM4783.51,2322a5.73,5.73,0,0,1-7.66-2.61c-.7-1.44-1.42-2.88-2.14-4.32a192.86,192.86,0,0,1-18.5,6.17,5.72,5.72,0,1,1-3.07-11q8.31-2.3,16.33-5.38c-5.95-11.39-12.49-23.21-19.89-35.95a5.72,5.72,0,0,1,9.89-5.74c7.68,13.19,14.44,25.44,20.58,37.24a172.82,172.82,0,0,0,23.83-13.3,5.72,5.72,0,0,1,6.36,9.52,185.61,185.61,0,0,1-25,14c.63,1.25,1.24,2.5,1.87,3.76a5.74,5.74,0,0,1-2.55,7.63Zm45.21-48.15a5.71,5.71,0,0,1-.11-8.09,143.83,143.83,0,0,0,30.36-46.19,5.72,5.72,0,0,1,10.59,4.34,155.34,155.34,0,0,1-32.75,49.83,5.55,5.55,0,0,1-1.51,1.11A5.72,5.72,0,0,1,4828.72,2273.85Zm-108.65,53.73a178.92,178.92,0,0,1-59.26-4.63,5.72,5.72,0,0,1,2.81-11.09,167.73,167.73,0,0,0,55.48,4.32,5.72,5.72,0,0,1,3.08,10.8A5.92,5.92,0,0,1,4720.07,2327.58Zm152.76-133.47a5.71,5.71,0,0,1-4.64-6.62,174,174,0,0,0,.52-55.72,5.72,5.72,0,1,1,11.31-1.69,185,185,0,0,1-.56,59.39,5.72,5.72,0,0,1-6.63,4.64Zm-245.61,116.22a149.28,149.28,0,0,1-13.44-7.78,122.16,122.16,0,0,1-32.34-30.9,5.72,5.72,0,1,1,9.29-6.68,110.6,110.6,0,0,0,29.29,28,140.16,140.16,0,0,0,12.41,7.18,5.72,5.72,0,0,1,2.49,7.7,5.72,5.72,0,0,1-7.7,2.49Zm103.53-70.89c-12.3-19.08-23.54-32.94-35.35-43.6a5.72,5.72,0,1,1,7.66-8.5c12.59,11.36,24.45,25.95,37.31,45.9a5.73,5.73,0,0,1-1.71,7.92l-.51.29A5.72,5.72,0,0,1,4730.75,2239.44ZM4868,2102.69a5.73,5.73,0,0,1-7.27-3.56,183.08,183.08,0,0,0-9.95-23.51,175.73,175.73,0,0,0-16.08-25.83,5.72,5.72,0,0,1,9.14-6.87,184.73,184.73,0,0,1,17.14,27.52,193.63,193.63,0,0,1,10.57,25,5.72,5.72,0,0,1-2.81,6.95A5.5,5.5,0,0,1,4868,2102.69Zm-295.45,140.08a5.72,5.72,0,0,1-6.94-4.17c-4.07-16.26-2.45-32,4.69-45.63a58.1,58.1,0,0,1,9.76-13.45,5.72,5.72,0,0,1,8.21,8,46.17,46.17,0,0,0-7.84,10.8c-5.89,11.21-7.14,23.84-3.72,37.53a5.72,5.72,0,0,1-2.95,6.48A5.5,5.5,0,0,1,4572.56,2242.77Zm95.65-65.36a81.9,81.9,0,0,0-52.69-5,5.72,5.72,0,0,1-2.81-11.09A92.38,92.38,0,0,1,4673,2167a5.73,5.73,0,0,1,2.8,7.6,5.66,5.66,0,0,1-2.6,2.69A5.73,5.73,0,0,1,4668.21,2177.41Z"/><path class="cls-8" d="M4704.51,2667.64a5.72,5.72,0,0,0-4.17-10.6,123.15,123.15,0,0,1-26.9,4.53,5.72,5.72,0,1,0,.62,11.42,133.88,133.88,0,0,0,29.42-4.94A6.14,6.14,0,0,0,4704.51,2667.64Z"/><polygon class="cls-30" points="2047.04 604.08 1848.97 494.76 1747.85 474.53 1671.44 485.77 2047.04 604.08"/><polyline class="cls-27" points="2047.04 604.08 1676.14 508.74 1671.44 485.77"/><polygon class="cls-8" points="1665.56 572.37 1666.03 573.14 1681.6 630.73 2046.1 604.1 1665.56 572.37"/><polygon class="cls-31" points="1594.73 538.63 1647.65 495.68 2044.63 603.46 1702.9 593.3 1594.73 538.63"/><path class="cls-8" d="M760.46,1273.46A277.52,277.52,0,0,0,796.14,1258a5.39,5.39,0,1,1,5,9.57A288.17,288.17,0,0,1,764,1283.63q-6.84,2.41-13.76,4.48a5.38,5.38,0,1,1-3.1-10.31Q753.86,1275.79,760.46,1273.46Z"/><path class="cls-8" d="M1486.36,498.47c16.81,2.16,34.32,4.92,53.51,8.47a5.39,5.39,0,0,1-1.95,10.6c-19-3.51-36.32-6.25-52.93-8.38a5.39,5.39,0,0,1,1.37-10.69Z"/><path class="cls-8" d="M1396.48,502.59a5.39,5.39,0,0,1,3.17-9.72c17.28-.15,35.57.57,54.32,2.15a5.38,5.38,0,0,1-.9,10.73c-18.43-1.54-36.37-2.25-53.34-2.1A5.36,5.36,0,0,1,1396.48,502.59Z"/><path class="cls-8" d="M864.43,1208.5a5.39,5.39,0,0,1,7.52,7.72,300.71,300.71,0,0,1-42.53,34.54,5.4,5.4,0,0,1-6.2-.14,5.2,5.2,0,0,1-1.27-1.33,5.39,5.39,0,0,1,1.47-7.48A290,290,0,0,0,864.43,1208.5Z"/><path class="cls-8" d="M886.64,1192.73a5.39,5.39,0,0,1-.74-7.59q4.56-5.58,8.86-11.37a278.27,278.27,0,0,0,20.7-32.37,5.39,5.39,0,0,1,7.31-2.16,5.46,5.46,0,0,1,2.15,7.32,289.4,289.4,0,0,1-21.5,33.63c-3,4-6,7.94-9.2,11.78a5.38,5.38,0,0,1-7.37.92Z"/><path class="cls-8" d="M932,1119.77a5.25,5.25,0,0,1-1.16-.65,5.4,5.4,0,0,1-1.77-6.38,367.15,367.15,0,0,0,16.4-50.44,5.38,5.38,0,1,1,10.44,2.63A374.53,374.53,0,0,1,939,1116.84,5.38,5.38,0,0,1,932,1119.77Z"/><path class="cls-8" d="M1074.88,660q-6.74,8.22-13.06,16.75c-6.35,8.57-12.41,17.45-18,26.4a5.39,5.39,0,0,1-7.43,1.7l-.35-.24a5.37,5.37,0,0,1-1.35-7.18c5.75-9.18,12-18.3,18.49-27.1q6.48-8.75,13.39-17.16a5.13,5.13,0,0,1,7.59-.75A5.4,5.4,0,0,1,1074.88,660Z"/><path class="cls-8" d="M1027.92,730.8a392.71,392.71,0,0,0-21.36,48.62,5.39,5.39,0,0,1-6.9,3.25,5.08,5.08,0,0,1-1.38-.74,5.38,5.38,0,0,1-1.86-6.15,401.31,401.31,0,0,1,21.94-50,5.39,5.39,0,1,1,9.56,5Z"/><path class="cls-8" d="M1135.05,599.92a438.4,438.4,0,0,0-39,36.18,5.39,5.39,0,0,1-7.1.62c-.18-.14-.35-.28-.52-.44a5.4,5.4,0,0,1-.18-7.62,451.12,451.12,0,0,1,40-37.07,5.39,5.39,0,0,1,6.85,8.33Z"/><path class="cls-8" d="M1234.39,538.6a5.36,5.36,0,0,1-5.38-.6,5.31,5.31,0,0,1-1.72-2.15,5.38,5.38,0,0,1,2.74-7.11,426.61,426.61,0,0,1,51.19-18.84,5.39,5.39,0,0,1,3.06,10.34A414.8,414.8,0,0,0,1234.39,538.6Z"/><path class="cls-8" d="M968.89,952a5.25,5.25,0,0,1-2.59-1,5.39,5.39,0,0,1-2.15-4.94l.77-6.78c1.78-15.62,3.56-31.26,5.63-46.83a5.39,5.39,0,1,1,10.68,1.42c-2.05,15.51-3.82,31.07-5.6,46.63l-.77,6.78A5.39,5.39,0,0,1,968.89,952Z"/><path class="cls-8" d="M1160.45,580.56a5.37,5.37,0,0,1-6.31-.07,5.2,5.2,0,0,1-1.2-1.23,5.38,5.38,0,0,1,1.3-7.5,448.5,448.5,0,0,1,46.38-28.65,5.39,5.39,0,1,1,5.09,9.51A434,434,0,0,0,1160.45,580.56Z"/><path class="cls-8" d="M966.37,973.4a5.36,5.36,0,0,1,4.66,6c-2.64,21-5.24,38-8.16,53.6a5.39,5.39,0,1,1-10.6-2c2.88-15.36,5.46-32.18,8.08-53A5.39,5.39,0,0,1,966.37,973.4Z"/><path class="cls-8" d="M716.32,1285.39a5.39,5.39,0,0,1,2.07,10.57,434,434,0,0,1-54,7,5.33,5.33,0,0,1-3.59-1,5.39,5.39,0,0,1,2.83-9.71A429.12,429.12,0,0,0,716.32,1285.39Z"/><path class="cls-8" d="M993.26,803.26a5.39,5.39,0,0,1,3.8,6.6c-4.25,15.85-7.88,32.92-11.11,52.17a5.38,5.38,0,0,1-6.2,4.42,5.48,5.48,0,0,1-2.32-1,5.37,5.37,0,0,1-2.11-5.22c3.28-19.6,7-37,11.34-53.18A5.38,5.38,0,0,1,993.26,803.26Z"/><path class="cls-8" d="M1348.1,496.07q9.45-1.12,18.9-1.83a5.39,5.39,0,1,1,.81,10.75q-9.22.69-18.43,1.78c-11.39,1.35-22.89,3.25-34.18,5.64a5.39,5.39,0,1,1-2.23-10.54C1324.58,499.4,1336.4,497.46,1348.1,496.07Z"/><polygon class="cls-3" points="2832.66 4187.13 3243.17 2910.94 3219.8 2910.94 2809.28 4187.13 2832.66 4187.13"/><polygon class="cls-3" points="3044.92 4187.13 3455.43 2910.94 3432.06 2910.94 3021.54 4187.13 3044.92 4187.13"/><polygon class="cls-3" points="3113.44 3242.35 3113.44 3261.38 3333.39 3261.26 3337.15 3242.23 3113.44 3242.35"/><polygon class="cls-3" points="3158.91 3118.7 3158.91 3137.72 3378.86 3137.6 3382.62 3118.57 3158.91 3118.7"/><polygon class="cls-3" points="3196.51 2995.04 3196.51 3014.07 3416.46 3013.95 3420.22 2994.92 3196.51 2995.04"/><polygon class="cls-3" points="3073.38 3367.6 3073.38 3386.63 3293.32 3386.5 3297.08 3367.48 3073.38 3367.6"/><polygon class="cls-3" points="3035.78 3492.84 3035.78 3511.87 3255.73 3511.75 3259.49 3492.72 3035.78 3492.84"/><polygon class="cls-3" points="2996.89 3622.96 2988 3641.99 3207.95 3641.87 3211.7 3622.84 2996.89 3622.96"/><polygon class="cls-3" points="2955.65 3753.08 2946.76 3772.11 3166.71 3771.99 3170.47 3752.96 2955.65 3753.08"/><polygon class="cls-3" points="2917.03 3880.3 2908.15 3899.34 3128.09 3899.21 3131.85 3880.18 2917.03 3880.3"/><polygon class="cls-3" points="2885.04 4010.3 2876.15 4029.33 3096.09 4029.21 3099.85 4010.18 2885.04 4010.3"/><path class="cls-8" d="M3211.22,1267l25.63-35.29a22.16,22.16,0,0,0-4.89-30.86l-187.12-135.94a22.15,22.15,0,0,0-30.85,4.89l-25.64,35.29c-7.14,9.83-4.94,23.72-3.38,12.84l187.12,135.93C3190.19,1279,3204.08,1276.83,3211.22,1267Z"/><path class="cls-3" d="M3197.24,1285.81l53.18-73.21a4,4,0,0,0-.89-5.64l-8.59-6.24a4.05,4.05,0,0,0-5.64.9l-53.18,73.2a4.06,4.06,0,0,0,.89,5.64l8.59,6.24A4,4,0,0,0,3197.24,1285.81Z"/><path class="cls-5" d="M2888.89,1039.83c152.53-105.69,267-338.81,267-338.81l232.43,307.77s-293,71.14-406.42,154.22Z"/><path class="cls-24" d="M3251.18,870.72c64.19,85,126.06,146.45,138.21,137.28s-30-85.5-94.23-170.49S3169.1,691.05,3157,700.23,3187,785.73,3251.18,870.72Z"/><path class="cls-24" d="M2853.87,1065.31l61.78-46.66,95.82,126.88-61.78,46.66a67.12,67.12,0,0,1-93.73-13.08L2840.8,1159A67.12,67.12,0,0,1,2853.87,1065.31Z"/><path class="cls-8" d="M3329.64,712.55a6.51,6.51,0,0,0,2.67-2.29l100.62-152a6.42,6.42,0,0,0-10.7-7.09l-100.62,152a6.42,6.42,0,0,0,8,9.37Z"/><path class="cls-8" d="M3396.59,862.4a6.46,6.46,0,0,0,3.44.72l181.86-13a6.41,6.41,0,0,0-.9-12.79l-181.86,13a6.42,6.42,0,0,0-2.54,12.08Z"/><path class="cls-8" d="M3373.07,779.15a6.43,6.43,0,0,0,3.47-.58l164.73-78.14a6.41,6.41,0,0,0-5.49-11.59L3371.05,767a6.42,6.42,0,0,0,2,12.17Z"/><path class="cls-13" d="M3234.46,1278.23l18-15a5.89,5.89,0,0,0,2-5.42l-.77-4.81a5.88,5.88,0,0,0-2.35-3.83l-18.64-13.6a5.91,5.91,0,0,0-7.32.29l-2.18,1.88a5.89,5.89,0,0,0-2,3.91l-2.79,28.92Z"/><path class="cls-15" d="M3218.33,1270.56l-3.28-20.43a5.64,5.64,0,0,1,6-6.52l9,.62c2.39.17,8,11.87,8,11.87s-7.18,6.26-11.15-5c-1.32,1-4.45.84-4.45.84s11,9.24,7.63,24.14Z"/><path class="cls-3" d="M3238.17,1278.65s-42.07,113.73-65.44,155S3076.56,1542,3076.56,1542L3042.7,1450s65.44-31.9,97.74-65.93,75.92-117.92,75.92-117.92Z"/><path class="cls-13" d="M2857.79,1211.46l-10.44-21a5.89,5.89,0,0,1,.34-5.76l2.64-4.1a5.85,5.85,0,0,1,3.68-2.57l22.53-5a5.9,5.9,0,0,1,6.59,3.2l1.25,2.59a5.86,5.86,0,0,1,.29,4.39l-9,27.62Z"/><path class="cls-13" d="M2875.64,1210.89l11.19-17.4a5.65,5.65,0,0,0-2.85-8.37l-8.48-3c-2.25-.81-12,7.69-12,7.69s4.07,8.61,12.21-.1c.81,1.44,3.74,2.55,3.74,2.55s-13.81,4-16.66,19.06Z"/><path class="cls-16" d="M2737.07,1942.9s-13.86,14.94-22.54,49c-1.91,7.5.65,15.59-11.73,15.59v-41.35l5.95-34.38h-5.95v-18.58s30.38-5.17,34.27,5.68Z"/><path class="cls-13" d="M2758.89,1940.81l-21.82,2.09h0a21,21,0,0,1-.76-22.76l.76-1.27,21.82-7.72Z"/><path class="cls-16" d="M2953.13,1642.53s-25.62,75.92-18.27,159c2,22.29-13.78,42.09-35.77,46.24-67.18,12.64-143.91,61.89-143.91,61.89v34.28s207.66-18.7,251-48.3,63.75-222.8,63.75-222.8Z"/><path class="cls-3" d="M3051,1434.45c47.09,31.16,25.6,222.79,25.6,222.79l-143.76-17.13,15.58-141.78s-65.44-79.72-77.9-138-18.7-150.22-18.7-150.22h26.49s29.6,119.85,48.3,150.22,81,73.36,81,73.36Z"/><path class="cls-3" d="M3075.31,1654.21c2.08-20.7,13.84-150-11.54-201.46.59-1.13,1.15-2.27,1.7-3.42,28.47,53.33,14.32,192.5,12.74,207.1C3077.26,1655.67,3076.28,1655,3075.31,1654.21Z"/><path class="cls-16" d="M3240,2051.3s14.95,13.86,49,22.54c7.5,1.91,15.59-.65,15.59,11.73h-41.35l-34.39-6v6h-18.57s-5.17-30.38,5.68-34.27Z"/><path class="cls-13" d="M3237.89,2029.48l2.09,21.82h0a21,21,0,0,1-22.75.76l-1.27-.76-7.72-21.82Z"/><path class="cls-15" d="M3019.45,1431.56l6.28-26.8,30.78,3.44,2.3,31.85a7.6,7.6,0,0,1-.64.63A87.59,87.59,0,0,0,3019.45,1431.56Z"/><path class="cls-13" d="M3008.85,1352.42l8.08,42.15c4.21-.76,7.32,3.43,7.06,7.51a8,8,0,0,1,1.15,3c8.06,4.22,22.34,9.22,39.05,3.53,26.15-8.88,2.7-58.56,2.7-58.56Z"/><path class="cls-16" d="M2999.79,1386.19c-.63-3.09-5.8-9.1-8.44-10.81-17-11-4.78-22.53-.38-26.31,4.85-4.17,2.46-13.71,8.61-20.08,9.41-9.73,20.77-2.59,27.35-4.78s9.53-11.77,20-8.38,10.48,11.26,14.09,14.08,8.13-7,19.15,1.95c16.76,13.6-10.9,24.28-10.9,24.28s-14.75,8.65-36.6,3.41a6.86,6.86,0,0,0-7.74,3.09c-4,7.45.88,42.87.88,42.87l-7.71-4.78S3002.7,1400.32,2999.79,1386.19Z"/><path class="cls-13" d="M3016.39,1387.41a6.58,6.58,0,1,0,2.38-9A6.58,6.58,0,0,0,3016.39,1387.41Z"/><path class="cls-6" d="M3076.56,1657.24s104,99.06,113.35,123.28,48.26,250.65,48.26,250.65h-29.6s-59.38-96.49-77.54-172.26a77.91,77.91,0,0,0-52.77-56.19c-163.88-50.77-145.46-162.61-145.46-162.61Z"/><polygon class="cls-1" points="3058.21 1428.64 3058.84 1443.23 3011.22 1433.73 3021.2 1417.83 3058.21 1428.64"/><path class="cls-3" d="M2960.77,3087.32l16.47,43.58c1.37,6.1,1.61,13.4-4.69,17a55.4,55.4,0,0,1-8.63,4c-3-.64-22-59.49-22-59.49l.19-.36C2949.63,3082.19,2960.77,3087.32,2960.77,3087.32Z"/><polygon class="cls-16" points="2963.92 3151.87 2941.91 3092.38 2939.02 3094.05 2961.19 3152.99 2963.92 3151.87"/><polygon class="cls-1" points="2967.33 3104.56 2968.77 3108.5 2961.18 3109.96 2959.75 3106.15 2967.33 3104.56"/><polygon class="cls-1" points="2970.5 3112.98 2971.94 3116.92 2964.35 3118.38 2962.91 3114.57 2970.5 3112.98"/><path class="cls-13" d="M2979,3077l-18.27,10.29h0a11.73,11.73,0,0,0,4,11.83l.64.52,20.16-5.19Z"/><path class="cls-16" d="M3124.88,2802s-18.11,19.51-22.78,53.85c-3.11,22.85,5.45,59.06,6.38,87.47.86,26-10.87,46.63-31.46,62.5L2979,3077l6.56,17.45s134.1-20.11,169.31-80.17,43.56-196,43.56-196Z"/><path class="cls-13" d="M3046.87,2728l-50.4,112.53s-20.71,2.41-29.68,10.35c-4.69,4.15-4.48,12.45-3.21,19.43a7,7,0,0,0,11.38,4c5.54-4.81,12.69-10.23,17.37-11,12.43-2.07,16.15-10.87,16.15-10.87l72.3-113.39Z"/><path class="cls-13" d="M3301,2501.7l25.82-22.08-20-109.08-31.06-15.88s3.38-6,11-3.45a28.49,28.49,0,0,0,14.16,1s5.81-7.2-5.21-12.06c-6.19-4.17-10.33,0-28.28-.71,0-2.76,23.65-9.32,23.65-9.32,7.38-2.37,26.21,12.21,26.21,12.21a13.19,13.19,0,0,1,2.39,5.86l3,20.24s40,109.78,40,121.51-22.43,27.77-22.43,27.77Z"/><path class="cls-6" d="M3162.16,2813.34s-15.53,18.71-6.21,62.2c6,27.77,32.07,62.7,49.62,86.77,12.58,17.25,12.85,39,9.07,60-14.37,79.88,8.62,177.4,8.62,177.4h18.64s28-142.91,36.24-243.35c7.47-90.57-31.28-157.27-32.1-158.44Z"/><rect class="cls-24" x="3288.07" y="2317.72" width="15.63" height="59.17" transform="translate(495.03 5267.56) rotate(-81.65)"/><rect class="cls-1" x="3318.04" y="2349" width="15.63" height="5.4" transform="translate(516.41 5301.07) rotate(-81.66)"/><path class="cls-16" d="M3326.27,2359.66c4.29.6,7.9.31,8.93-6.69,1.12-7.64-2.35-8.31-6.63-9Z"/><polygon class="cls-1" points="3265.48 2350.74 3254.12 2343.91 3254.95 2338.28 3267.75 2335.27 3265.48 2350.74"/><polygon class="cls-6" points="3254.12 2343.91 3249.18 2340.35 3254.95 2338.28 3254.12 2343.91"/><rect class="cls-25" x="3292.6" y="2322.16" width="3.56" height="57.18" transform="translate(490.1 5268.79) rotate(-81.65)"/><rect class="cls-25" x="3293.69" y="2314.7" width="3.56" height="57.18" transform="translate(498.42 5263.5) rotate(-81.65)"/><path class="cls-4" d="M3116.42,2592.54c-33.3,24.46-72.51,142.08-72.51,142.08l29.24,16.4,47.59-65.3s4.64,75.6-6.75,133.59c5.18,21.75,29.88,19.3,69.92,11.71s66.27-24.86,66.27-24.86,1.73-104.89,6.91-160.51-5.05-61.56,9-59.71c31.28-17.77,82.54-75,82.54-75L3301,2501.7l-102.52,60.07S3148.34,2575,3116.42,2592.54Z"/><path class="cls-13" d="M3174.51,2453.42l24.73,24.43a42.89,42.89,0,0,1,11.73,39.82l-2.9,13Z"/><path class="cls-16" d="M3144.56,2444.17c-60.06,0-34.52,115.3-34.52,115.3s10.7,74.79,34.52,104.82c20.61,26,61.4,18.18,80.72,5.7a73.79,73.79,0,0,1,31.19-11.51c16.36-2,35.83-9.2,35.83-38.72,0-27.78-33.18-49.27-55-64.62a72,72,0,0,1-28.3-41.86C3202,2484.83,3185,2444.17,3144.56,2444.17Z"/><path class="cls-3" d="M3226.46,3220.39l46.59-.08c6.19.87,13.1,3.22,14.26,10.38a54.91,54.91,0,0,1,.67,9.47c-1.65,2.59-63.43-.34-63.43-.34l-.27-.3C3217.74,3229,3226.46,3220.39,3226.46,3220.39Z"/><polygon class="cls-6" points="3287.98 3240.16 3224.55 3239.82 3225.1 3243.11 3288.07 3243.11 3287.98 3240.16"/><polygon class="cls-1" points="3244.9 3220.31 3249.09 3220.35 3247.79 3227.98 3243.72 3227.98 3244.9 3220.31"/><polygon class="cls-1" points="3253.9 3220.31 3258.09 3220.35 3256.78 3227.98 3252.72 3227.98 3253.9 3220.31"/><path class="cls-13" d="M3223.26,3199.67l3.2,20.72h0a11.72,11.72,0,0,0,12.49.39l.7-.41,2.25-20.7Z"/><path class="cls-13" d="M3286.77,2351.21c-7.66-2.55-11,3.45-11,3.45l20.67,10.57.85-.38c3.39-1.38,10.45-4.43,13.68-5C3309,2357.9,3290.6,2352.49,3286.77,2351.21Z"/><path class="cls-16" d="M914.12,4222.17s6.25,8.65,35.72,16.16c6.49,1.65,13.48,2.78,13.48,13.48H934.23l-29.74-5.14v5.14H888.43s-4.47-26.27,4.91-29.64Z"/><path class="cls-13" d="M915.65,4203.3l-1.53,18.87h0a18.16,18.16,0,0,1-19.68.66l-1.1-.66V4203.3Z"/><path class="cls-16" d="M764.93,4225.93s6.25,8.65,35.71,16.16c6.49,1.65,13.49,2.78,13.49,13.48H785l-29.74-5.14v5.14H739.24s-4.48-26.27,4.9-29.64Z"/><path class="cls-13" d="M766.45,4207.06l-1.52,18.87h0a18.18,18.18,0,0,1-19.68.66l-1.11-.66v-18.87Z"/><path class="cls-16" d="M927.5,3739.57l-7.24,474H885.73s-52.56-382.66-41.34-474S927.5,3739.57,927.5,3739.57Z"/><path class="cls-32" d="M891,3739.47s-12,145.6-39.63,226.2-77.47,247.87-77.47,247.87H738.17s59.68-349.56,46-474.07H891Z"/><path class="cls-4" d="M922.12,3498.22s42.56,99.24,53.36,99.24c8.64,0-3.24-81-3.24-81h35.64s44.83,138.9,9.18,164.28-113.94-71.82-113.94-71.82Z"/><path class="cls-13" d="M795.22,3752.07l12.9,31.89c6.21,12.52,29,12.84,44.19,8.86a3.15,3.15,0,0,0,1.49-5.17c-8.32-9.12-29.92-32.52-37.41-37.75Z"/><path class="cls-4" d="M903.12,3477.73s22.22,15.07,22.22,32.35v229.39H795.11V3525s2.66-47.69,49.28-47.69S903.12,3477.73,903.12,3477.73Z"/><polygon class="cls-3" points="923.18 3739.57 923.18 3533.55 927.5 3533.7 927.5 3739.57 923.18 3739.57"/><path class="cls-15" d="M855.91,3426.51v54.09s9,12.35,25.24,12.35,16.25-11.72,16.25-11.72v-34.66l-24-6.27Z"/><path class="cls-13" d="M899.47,3456.84c5-.15,9.64-1,12.07-3.14,14.42-23-2-85-2-85l-52.36,9.39-1.67,41.53a34.88,34.88,0,0,0,13.08,28.65h0A56,56,0,0,0,899.47,3456.84Z"/><path class="cls-16" d="M881.8,3379.2a112,112,0,0,0,35.67,0c18.28-3.25,6.58-23.4,6.58-23.4s-13.53,6.18-37.58,2.63c-16.23-2.4-20.59-5.55-31,0-14.13,7.53-10.72,33.09-10.72,33.09l7.8,54.07h2.92s.72-32.15.72-43.1c3.06-5,6.37-5,8.92-3.73a8.17,8.17,0,0,1,4.34,7.43v56.13s35.75,15.41,44.85,12.62,3-44.39,3-44.39-10.49-4.55-18.62,4.55-17.82-.36-17.82-.36Z"/><path class="cls-13" d="M1001,3516.42l-1.25-6.84c-2.78-15.16-17.27-34-31.86-38.95H952.8l4.69,32.32,21.35,13.47Z"/><path class="cls-13" d="M860.57,3397.35c4-.34,7.88,3.51,8.62,8.58s-1.91,9.47-5.93,9.8-7.87-3.51-8.62-8.59S856.56,3397.68,860.57,3397.35Z"/><path class="cls-13" d="M963.72,3499.37l29.47,17.05s-18.49-.18-18.79,0l-31.2-26.1s2.26-4.56,9.33-.71A35.91,35.91,0,0,1,963.72,3499.37Z"/><path class="cls-4" d="M809,3491.68s-73.63,81.79-73.63,130.82,59.77,135.43,59.77,135.43l29.52-8.64S798,3642.36,798,3613.92s54.72-70.15,54.72-70.15"/><path class="cls-3" d="M800.15,3613.92c0,24.49,21.67,114,26.77,134.88-1.5.39-2.12.51-4.38,1.1-6.26-25.77-26.71-111.91-26.71-136,0-29.18,53.3-70.14,55.57-71.87l2.62,3.44C853.48,3545.9,800.15,3586.86,800.15,3613.92Z"/><path class="cls-33" d="M944,3445.83s-6.08,31.68,13.49,57.12A8.45,8.45,0,0,0,963,3506c4.54.62,7.73-1,10.19-1.68,3.61-1,5.34-2.88,6.16-4.42a4.1,4.1,0,0,0-.43-4.27c-4-5.91-16.23-26.23-10.64-44.21C957.82,3443,944,3445.83,944,3445.83Z"/><path class="cls-34" d="M975.89,3503.22a6.27,6.27,0,0,0,3.45-3.31,4.1,4.1,0,0,0-.43-4.27c-4-5.91-16.23-26.23-10.64-44.21a27.06,27.06,0,0,0-11.57-5.33C956.07,3465.85,960.3,3479.06,975.89,3503.22Z"/><path class="cls-33" d="M961.47,3472c.94,4.54,3.14,7.92,4.92,7.55s2.47-4.34,1.54-8.87-3.13-7.92-4.92-7.55S960.54,3467.42,961.47,3472Z"/><polygon class="cls-33" points="962.66 3463.21 964.53 3462.77 964.4 3463.71 963.15 3464.2 962.66 3463.21"/><polygon class="cls-35" points="965.96 3479.51 968.24 3479.07 965.65 3478.7 965.96 3479.51"/><path class="cls-5" d="M963,3471.64c.94,4.54,3.14,7.92,4.92,7.55s2.47-4.34,1.54-8.88-3.13-7.91-4.91-7.54S962.06,3467.1,963,3471.64Z"/><path class="cls-5" d="M936.05,3419.12h-3.49c-6.67,0-12.13,5.2-12.13,11.56v9.17c0,6.36,5.46,11.56,12.13,11.56h3.49Z"/><path class="cls-16" d="M1042.75,3428.21c0,25.05-5.76,45.36-12.86,45.36s-12.87-20.31-12.87-45.36,5.76-45.36,12.87-45.36S1042.75,3403.16,1042.75,3428.21Z"/><polygon class="cls-1" points="1016.46 3411.5 1026.62 3418.11 1026.62 3432.78 1016.14 3442.29 1012.52 3423.21 1016.46 3411.5"/><path class="cls-3" d="M1017,3428.21c0-21.05,4.08-38.7,9.59-43.82l0,0C984,3415.11,934,3419.44,934,3419.44v32s67.55-3.8,92.57,20.6l0,0C1021.1,3466.94,1017,3449.28,1017,3428.21Z"/><path class="cls-5" d="M1028,3425.42c0,4.07-.62,7.36-1.39,7.36s-1.39-3.29-1.39-7.36.62-7.37,1.39-7.37S1028,3421.35,1028,3425.42Z"/><path class="cls-13" d="M984.66,3493c-1,.38-4.69,2.68-16.46,2.68-8.57,0-12.43-10.53-13.9-16.26-.51-2-1-4.88,1.55-6.17l13.77-1.91Z"/><circle class="cls-36" cx="4208.92" cy="2302.13" r="133.72" transform="translate(-582.12 2548.59) rotate(-31.62)"/><path class="cls-5" d="M4231.55,2402.39l-7.38-22.38c-16.78,5.27-35.92,5.31-47.95,2.75l2.66-19.94a87.83,87.83,0,0,0,43.4-3.07c20.46-6.75,31.56-19.55,27.13-33-4.27-13-18.14-17.27-41.78-17.31-32.49.26-54.21-4.59-61-25.09-6.45-19.55,5.65-40,31-52.27l-7.85-23.79,17.86-5.89,7.53,22.86c17.44-5.23,30.49-5.35,40.17-4.1l-2.56,21.2c-7-.83-18.62-1.18-37.06,4.9-22.18,7.31-28.35,16.67-25.24,26.1,4,12.25,16.71,14.86,44.57,15.08,32.92.12,51.94,7.43,58.85,28.4,6.14,18.61-3.5,42.67-31.84,56.46l7.61,23.09Z"/><rect class="cls-5" x="4198.43" y="2200.66" width="21.88" height="203.65" transform="translate(-509.22 1433.49) rotate(-18.24)"/><path class="cls-24" d="M4252.45,2434.19c-72.82,24-151.59-15.72-175.59-88.54s15.71-151.58,88.53-175.58S4317,2185.78,4341,2258.6,4325.26,2410.18,4252.45,2434.19Zm-83.73-254c-67.24,22.16-103.9,94.89-81.74,162.13a128.39,128.39,0,1,0,81.74-162.13Z"/><path class="cls-8" d="M4350.47,1064.25c65.15-1,110.84,31.3,135.23,54.6a22.46,22.46,0,0,1,.67,31.9h0a22.53,22.53,0,0,1-30.6,1.49c-20.51-17-55.28-39.18-92.73-43-43.14-4.38-96.63,28-123.27,48.49a22.42,22.42,0,0,1-29.33-1.61l-.33-.31a22.39,22.39,0,0,1,.15-32.37C4235.07,1100.09,4283.18,1065.31,4350.47,1064.25Z"/><path class="cls-8" d="M4354.59,1147.35c32.44,1,57.51,15.64,74.05,29.43a21.72,21.72,0,0,1,1.67,31.81h0a21.53,21.53,0,0,1-29.6,1.46,78.41,78.41,0,0,0-44.37-19.41c-26.52-2.7-44.4,9.1-56.95,22a21.58,21.58,0,0,1-30.43.24l-.37-.35a21.66,21.66,0,0,1,.67-31.83C4287.46,1164.79,4317,1146.22,4354.59,1147.35Z"/><path class="cls-8" d="M4380,1227a31.82,31.82,0,1,1-45,.7A31.81,31.81,0,0,1,4380,1227Z"/></g></svg>