<?xml version="1.0" encoding="utf-8"?>
<!-- Generator: Adobe Illustrator 16.0.4, SVG Export Plug-In . SVG Version: 6.00 Build 0)  -->
<!DOCTYPE svg PUBLIC "-//W3C//DTD SVG 1.1//EN" "http://www.w3.org/Graphics/SVG/1.1/DTD/svg11.dtd">
<svg version="1.1" id="Icon" xmlns="http://www.w3.org/2000/svg" xmlns:xlink="http://www.w3.org/1999/xlink" x="0px" y="0px"
	 width="326.74px" height="326.74px" viewBox="255.567 130.749 326.74 326.74"
	 enable-background="new 255.567 130.749 326.74 326.74" xml:space="preserve">
<path fill="#FFFFFF" d="M433.713,322.8c-6.95-2.987-13.851-4.638-20.726-4.938c-4.787-0.149-12.888-0.6-24.312-1.337
	c-11.438-0.75-20.425-1.2-27-1.338c-6.125-0.15-12.062-0.375-17.812-0.688c-5.75-0.287-10.8-1.037-15.125-2.237
	c-4.487-1.05-8.3-3.025-11.438-5.95c-3.137-2.9-4.7-7.125-4.7-12.663c0-5.375,1.862-9.637,5.6-12.762
	c3.737-3.125,7.312-5.3,10.75-6.5h27.112c20.913,0,39.25-6.725,55.013-20.163c15.763-13.45,23.638-29.875,23.638-49.3
	c0-7.462-1.338-15.087-4.025-22.862c-2.688-7.763-6.8-14.862-12.325-21.288v-1.337h51.987v-21.513h-77.087
	c-6.875-2.087-13.638-3.812-20.288-5.15s-13.337-2.025-20.05-2.025c-24.35,0-44.338,6.725-59.938,20.175
	c-15.613,13.45-23.425,30.625-23.425,51.538c0,13.9,3.95,26.113,11.875,36.638c7.913,10.538,19.038,19.163,33.388,25.887v3.363
	c-11.35,4.775-19.825,10.5-25.438,17.137c-5.6,6.65-8.4,13.925-8.4,21.851c0,6.274,1.2,11.537,3.587,15.8
	c2.387,4.263,5.525,7.962,9.413,11.1c3.438,2.688,7.537,5.038,12.325,7.05c4.775,2.013,9.413,3.7,13.888,5.038v3.138
	c-18.525,0.762-33.763,5.524-45.712,14.337c-11.95,8.812-17.925,20.838-17.925,36.088c0,18.824,8.3,33.112,24.875,42.912
	c16.575,9.8,41.6,14.688,75.062,14.688c20.462,0,37.65-1.95,51.55-5.838c13.9-3.887,25.838-9.337,35.851-16.362
	c9.412-6.875,16.425-14.975,21.075-24.312c4.625-9.337,6.949-19.3,6.949-29.912s-1.725-19.5-5.149-26.675
	c-3.438-7.163-8.15-13.588-14.125-19.275C446.975,329.9,440.662,325.787,433.713,322.8z M381.725,243.362
	c-6.95,10.388-16.85,15.575-29.688,15.575c-11.5,0-20.875-5.225-28.125-15.688c-7.25-10.45-10.863-23.975-10.863-40.562
	c0-7.312,0.638-14.45,1.9-21.4c1.262-6.95,3.387-12.888,6.387-17.812c3.138-5.375,7.212-9.525,12.212-12.438
	s11.013-4.375,18.038-4.375c12.837,0,22.812,5.2,29.913,15.575c7.087,10.388,10.65,24.312,10.65,41.788
	C392.15,219.862,388.675,232.975,381.725,243.362z M416.237,427.787c-12.625,8.45-29.925,12.663-51.875,12.663
	c-12.7,0-23.45-1.237-32.275-3.688c-8.812-2.463-15.837-5.638-21.062-9.538c-5.525-4.024-9.413-8.438-11.65-13.225
	c-2.237-4.775-3.362-9.775-3.362-15.013c0-11.649,3.4-21.162,10.2-28.562c6.788-7.399,18.263-12.675,34.4-15.812
	c17.175,0,32.275,0.375,45.263,1.125c13,0.763,21.588,1.425,25.775,2.013c7.912,1.938,13.812,5.6,17.712,10.987
	c3.888,5.388,5.825,12.237,5.825,20.612C435.162,406.525,428.862,419.35,416.237,427.787z"/>
<path fill="#FFFFFF" d="M520.6,203.85v43.812H537.7V203.85h43.612v-16.812H537.7v-43.913H520.6v43.913h-43.612v16.812H520.6
	L520.6,203.85z"/>
</svg>
