<?xml version="1.0" encoding="utf-8"?>
<!-- Generator: Adobe Illustrator 24.1.2, SVG Export Plug-In . SVG Version: 6.00 Build 0)  -->
<svg version="1.1" id="Layer_1" xmlns="http://www.w3.org/2000/svg" xmlns:xlink="http://www.w3.org/1999/xlink" x="0px" y="0px"
	 viewBox="0 0 60 58.5" style="enable-background:new 0 0 60 58.5;" xml:space="preserve">
<style type="text/css">
	.st0{fill:#B30B00;}
	.st1{fill:#FFFFFF;}
</style>
<g id="Surfaces">
	<g id="Reader_Surface">
		<g id="Outline_no_shadow_copy_2">
			<path class="st0" d="M10.6,0h38.8C55.2,0,60,4.8,60,10.6v37.2c0,5.9-4.8,10.6-10.6,10.6H10.6C4.8,58.5,0,53.7,0,47.9V10.6
				C0,4.8,4.8,0,10.6,0z"/>
		</g>
	</g>
</g>
<g id="Outlined_Mnemonics_Logos">
	<g id="DC_Trefoil">
		<path id="_256" class="st1" d="M48.2,33.9c-1.2-1.3-3.5-1.9-6.8-1.9c-1.8,0-3.7,0.2-5.5,0.5c-1.2-1.1-2.2-2.4-3.2-3.7
			c-0.7-1-1.4-2-2-3.1c1-2.8,1.6-5.8,1.8-8.8c0-2.7-1.1-5.6-4.1-5.6c-1,0-2,0.6-2.5,1.5c-1.3,2.2-0.8,6.7,1.3,11.4
			c-0.7,2.1-1.5,4.2-2.4,6.5c-0.8,2-1.7,3.9-2.8,5.7c-3.1,1.2-9.6,4.2-10.2,7.5c-0.2,1,0.1,2,0.9,2.6c0.7,0.6,1.7,1,2.7,0.9
			c3.9,0,7.8-5.4,10.5-10.1c1.5-0.5,3-1,4.6-1.4c1.7-0.4,3.3-0.8,4.8-1.1c4.2,3.6,7.9,4.2,9.7,4.2c2.5,0,3.5-1.1,3.8-2
			C49.2,35.9,49,34.7,48.2,33.9z M45.5,35.8c-0.1,0.7-0.9,1.2-1.9,1.2c-0.3,0-0.6,0-0.9-0.1c-2-0.5-3.9-1.5-5.5-2.8
			c1.3-0.2,2.7-0.3,4-0.3c0.9,0,1.8,0.1,2.7,0.2C44.8,34.2,45.8,34.6,45.5,35.8z M27.6,13.7c0.2-0.3,0.5-0.5,0.9-0.6
			c1,0,1.2,1.1,1.2,2.1c-0.1,2.3-0.5,4.5-1.2,6.7C26.8,17.6,27,14.7,27.6,13.7z M33.2,32.9c-1.1,0.2-2.2,0.5-3.3,0.8
			c-0.8,0.2-1.6,0.5-2.5,0.7c0.4-0.9,0.8-1.8,1.2-2.6c0.5-1.1,0.9-2.2,1.3-3.3c0.4,0.6,0.7,1.1,1.1,1.6C31.7,31.1,32.5,32,33.2,32.9
			L33.2,32.9z M21.1,38.7c-2.5,4-5,6.6-6.4,6.6c-0.2,0-0.5-0.1-0.6-0.2c-0.3-0.2-0.4-0.6-0.3-0.9C14,42.7,16.9,40.6,21.1,38.7
			L21.1,38.7z"/>
	</g>
</g>
</svg>
