<svg width="36" height="36" xmlns="http://www.w3.org/2000/svg"><path d="M18 0a17.93 17.93 0 0111.64 4.27l-2.502 2.18A14.658 14.658 0 0018 3.272C9.866 3.273 3.273 9.866 3.273 18S9.866 32.727 18 32.727 32.727 26.134 32.727 18c0-2.235-.497-4.395-1.439-6.358l2.397-2.479A17.924 17.924 0 0136 18c0 9.941-8.059 18-18 18S0 27.941 0 18 8.059 0 18 0zm0 26.526a1.895 1.895 0 110 3.79 1.895 1.895 0 010-3.79zM30.772 5.914a1.173 1.173 0 011.632.13 1.235 1.235 0 01-.046 1.677L19.672 20.684l-.016.016a1.588 1.588 0 01-2.246-.008l-5.816-5.856a1.469 1.469 0 01-.035-2.034 1.601 1.601 0 012.104-.215l4.746 3.385a.22.22 0 00.266-.01zM7.579 16.105a1.895 1.895 0 110 3.79 1.895 1.895 0 010-3.79zm20.842 0a1.895 1.895 0 110 3.79 1.895 1.895 0 010-3.79zM18 5.685a1.895 1.895 0 110 3.789 1.895 1.895 0 010-3.79z" fill="#FE6D57" fill-rule="evenodd"/></svg>