<svg xmlns="http://www.w3.org/2000/svg" xmlns:xlink="http://www.w3.org/1999/xlink" id="_ÎÓÈ_1" data-name="—ÎÓÈ_1" viewBox="0 0 518 428.69"><defs><style>.cls-1{fill:#fff;}.cls-2{fill:#f4a086;}.cls-3{fill:#ffe9ae;}.cls-4{fill:#01898c;}.cls-5{fill:#00666a;}.cls-6{fill:#b0d9c8;}.cls-7{fill:#043c5e;}.cls-8{fill:#63c1c5;}.cls-9{fill:url(#_ÂÁ_Ï_ÌÌ_È_ËÂÌÚ_2);}.cls-10{fill:url(#_ÂÁ_Ï_ÌÌ_È_ËÂÌÚ_2-2);}.cls-11{fill:url(#_ÂÁ_Ï_ÌÌ_È_ËÂÌÚ_2-3);}.cls-12{fill:url(#_ÂÁ_Ï_ÌÌ_È_ËÂÌÚ_2-4);}.cls-13{fill:#f8b68f;}.cls-14{fill:#212b53;}.cls-15{fill:#ffdb71;}</style><linearGradient id="_ÂÁ_Ï_ÌÌ_È_ËÂÌÚ_2" x1="432.49" y1="100.66" x2="464.96" y2="100.66" gradientUnits="userSpaceOnUse"><stop offset="0" stop-color="#f1f8f8"/><stop offset="1" stop-color="#c0e4ef"/></linearGradient><linearGradient id="_ÂÁ_Ï_ÌÌ_È_ËÂÌÚ_2-2" x1="432.49" y1="110.48" x2="458.67" y2="110.48" xlink:href="#_ÂÁ_Ï_ÌÌ_È_ËÂÌÚ_2"/><linearGradient id="_ÂÁ_Ï_ÌÌ_È_ËÂÌÚ_2-3" x1="158.61" y1="64.01" x2="198.75" y2="64.01" xlink:href="#_ÂÁ_Ï_ÌÌ_È_ËÂÌÚ_2"/><linearGradient id="_ÂÁ_Ï_ÌÌ_È_ËÂÌÚ_2-4" x1="150.41" y1="65.11" x2="198.5" y2="65.11" xlink:href="#_ÂÁ_Ï_ÌÌ_È_ËÂÌÚ_2"/></defs><rect class="cls-1" width="518" height="428.69"/><path class="cls-2" d="M243.84,89.36s4.4,7.76,8.06,11.15,15.71,7.91,15.71,7.91l-.07-3-10.27-7.22L250.5,89Z"/><path class="cls-2" d="M267.59,105.51a5.3,5.3,0,0,0,2.5,1.52c1.56.56,5.15.78,4.08,2.19-1.76.41-3.76,1.11-3.76,1.11-1.09.14-2.7-.75-3.6-1.49l-2.49-2.63s.2-1.74.19-1.83l.76-.09A8.32,8.32,0,0,0,267.59,105.51Z"/><path class="cls-2" d="M268,106.36a1.37,1.37,0,0,0,.12.24q-.35,0-.69.12c-.84-.21-1.69-.38-2.54-.58.19-.47.44-1.12.45-1.17l5.78.17s.29.69-.87,1A5.66,5.66,0,0,1,268,106.36Z"/><path class="cls-3" d="M145.3,253.44s-32.5-69.62-86.47-72.79C23.8,235.42,79,283.77,79,283.77l63.66,21.49Z"/><path class="cls-1" d="M112.44,207.51,99.2,238.9,60.1,180.75c-.42,0-.85-.08-1.27-.1-.14.21-.27.43-.4.64l20.94,31.15L48,208.34c-.05.29-.09.59-.13.89l-.1.78,32.87,4.3,34.9,51.91-55.31-5.45c.37.62.75,1.22,1.13,1.82l55.4,5.45,24.78,36.86,1.08.36.09-1.67-42.37-63,13.4-31.78Z"/><path class="cls-4" d="M129.28,286.53s-55.77-31.67-89.15-4.45C51.48,369.29,163.22,361,163.22,361Z"/><path class="cls-5" d="M40.13,282.08c0,.34.09.67.14,1L118.87,320,76.45,340.9,78.12,342l42.71-21,30.7,14.44L150.45,333,90.68,304.9,78.31,271.15c-.61,0-1.22-.06-1.83-.07l12,32.8L40.88,281.49l-.75.59Z"/><path class="cls-6" d="M352.1,265s6.69-75.65,57.1-93c59.15,70.16-10,128.15-10,128.15Z"/><path class="cls-1" d="M409.2,172l.61.74-25.75,81.81,49-21.42c0,.6-.05,1.19-.08,1.78l-49.57,21.66L376,280.18,374.68,279,389.49,232h0l-19.42-24.17c.27-.51.54-1,.82-1.52l19.18,23.86,18.19-57.8.94-.35Z"/><path class="cls-4" d="M400.69,236c19.63-13,51.54-27.28,83.38-15.27C493.21,281.5,427,302,427,302L363.82,296S367.71,257.87,400.69,236Z"/><path class="cls-5" d="M427.47,223.31l-.66,32.18,56.12-35.13,1.14.4.09.71-30.05,18.82,28.65,8.54c-.07.27-.15.54-.23.81l-.21.72-30-8.94-50.09,31.35L452,289.36c-.56.39-1.12.77-1.68,1.13l-49.9-16.62-35.57,22.27-1.06-.1.56-1.47,60.81-38.07.67-32.58Z"/><path class="cls-7" d="M389.71,289.14s60-8.38,79.83,27.16c-21.9,39.41-59.94,43.82-90.17,39.62.88-6.33-2.29-12.94-7.36-17.05-2.65-7.07-6.49-13.82-10.07-20.2a19.59,19.59,0,0,0-1.13-1.76Z"/><path class="cls-5" d="M364.67,323.56l-.86-1.55,53.39-3.29,22.62-25.32c.55.18,1.09.37,1.63.57l-22,24.61,49.62-3.05.45.77h0l-.47.83-81.9,5.05,30,33.11-1.83.35L385.13,322.3Z"/><polygon class="cls-6" points="462.68 104.15 466.33 111.32 458.67 109.57 432.49 101.32 462.68 104.15"/><polygon class="cls-8" points="466.33 111.32 453.32 110.51 456.51 108.89 466.33 111.32"/><polygon class="cls-9" points="462.68 104.15 464.96 97.17 432.49 101.32 462.68 104.15"/><polygon class="cls-10" points="432.49 101.32 458.67 109.57 454.77 119.64 432.49 101.32"/><path class="cls-8" d="M463.46,118.53a.49.49,0,0,0,.18-.14.62.62,0,0,0-.06-.87,17.06,17.06,0,0,0-2.57-1.85.61.61,0,1,0-.62,1,16.68,16.68,0,0,1,2.39,1.73A.61.61,0,0,0,463.46,118.53Z"/><path class="cls-8" d="M453.94,185.38a.62.62,0,0,1,.22-.84,17.21,17.21,0,0,0,4.48-3.89.61.61,0,0,1,.86-.08.62.62,0,0,1,.09.86,18.27,18.27,0,0,1-4.81,4.16l0,0A.6.6,0,0,1,453.94,185.38Zm7-6.86a.62.62,0,0,1-.23-.83,22,22,0,0,0,2.22-5.57.61.61,0,0,1,1.19.29,23,23,0,0,1-2.35,5.88.58.58,0,0,1-.25.24A.63.63,0,0,1,460.91,178.52Zm3.12-9.3a.62.62,0,0,1-.57-.66l0-.27a28.79,28.79,0,0,0-.3-5.75.61.61,0,0,1,.51-.7.62.62,0,0,1,.7.52,29.69,29.69,0,0,1,.31,6l0,.3a.62.62,0,0,1-.33.5A.71.71,0,0,1,464,169.22Zm-.85-9.81a.61.61,0,0,1-.75-.43,44.92,44.92,0,0,0-2-5.76.61.61,0,0,1,1.13-.47,45.31,45.31,0,0,1,2,5.92.61.61,0,0,1-.31.7Zm-3.44-9.25a.61.61,0,0,1-.82-.28c-.08-.15-.15-.31-.23-.46q-1,.38-2,.66a.61.61,0,0,1-.32-1.18c.59-.16,1.17-.36,1.74-.57-.63-1.22-1.33-2.49-2.12-3.85a.6.6,0,0,1,.22-.83.61.61,0,0,1,.83.22c.82,1.41,1.55,2.72,2.2,4a19.13,19.13,0,0,0,2.55-1.42.61.61,0,1,1,.68,1,19.83,19.83,0,0,1-2.67,1.49l.2.4a.62.62,0,0,1-.27.82Zm4.83-5.15a.6.6,0,0,1,0-.86,15.89,15.89,0,0,0,2.23-2.9,14.88,14.88,0,0,0,1-2,.62.62,0,0,1,1.14.47,16.6,16.6,0,0,1-1.1,2.19,16.38,16.38,0,0,1-2.4,3.13.66.66,0,0,1-.17.12A.6.6,0,0,1,464.57,145ZM453,150.76a19.13,19.13,0,0,1-6.34-.5.61.61,0,0,1-.44-.74.6.6,0,0,1,.74-.44,18,18,0,0,0,5.93.46.62.62,0,0,1,.67.56.61.61,0,0,1-.34.59A.57.57,0,0,1,453,150.76Zm16.33-14.27a.61.61,0,0,1-.5-.71,18.53,18.53,0,0,0,.06-5.95.61.61,0,1,1,1.2-.18A19.25,19.25,0,0,1,470,136a.59.59,0,0,1-.32.44A.55.55,0,0,1,469.29,136.49ZM443,148.91a14.4,14.4,0,0,1-1.43-.83,12.93,12.93,0,0,1-3.46-3.3.61.61,0,1,1,1-.71,12,12,0,0,0,3.13,3c.43.27.87.53,1.33.76a.63.63,0,0,1,.27.83.57.57,0,0,1-.27.26A.59.59,0,0,1,443,148.91Zm11.07-7.57a23,23,0,0,0-3.78-4.66.62.62,0,0,1,0-.87.6.6,0,0,1,.86,0,23.79,23.79,0,0,1,4,4.9.61.61,0,0,1-.19.85l-.05,0A.61.61,0,0,1,454.1,141.34Zm14.67-14.62a.61.61,0,0,1-.78-.38,18.51,18.51,0,0,0-1.06-2.51,17.27,17.27,0,0,0-1.72-2.76.62.62,0,0,1,.12-.86.61.61,0,0,1,.86.12,19.58,19.58,0,0,1,1.83,2.94,20.15,20.15,0,0,1,1.13,2.67.62.62,0,0,1-.3.75Zm-31.58,15a.61.61,0,0,1-.74-.44,6.78,6.78,0,0,1,.5-4.88,6.45,6.45,0,0,1,1-1.44.62.62,0,0,1,.87,0,.6.6,0,0,1,0,.86,5.28,5.28,0,0,0-.84,1.16,5.49,5.49,0,0,0-.39,4,.61.61,0,0,1-.32.69Zm10.22-7a8.74,8.74,0,0,0-5.63-.53.61.61,0,0,1-.3-1.19,9.89,9.89,0,0,1,6.45.61.62.62,0,0,1,.3.81.61.61,0,0,1-.28.29A.64.64,0,0,1,447.41,134.71Z"/><path class="cls-8" d="M451.29,187.11a.6.6,0,0,0,.31-.72.61.61,0,0,0-.75-.42,13.46,13.46,0,0,1-2.88.49.61.61,0,0,0,.07,1.22,14.52,14.52,0,0,0,3.14-.53Z"/><polygon class="cls-11" points="198.75 70.94 177.58 59.25 166.78 57.09 158.61 58.29 198.75 70.94"/><polyline class="cls-6" points="198.75 70.94 159.11 60.75 158.61 58.29"/><polygon class="cls-8" points="157.98 67.55 158.03 67.63 159.69 73.78 198.65 70.94 157.98 67.55"/><polygon class="cls-12" points="150.41 63.94 156.06 59.35 198.5 70.87 161.97 69.78 150.41 63.94"/><path class="cls-8" d="M61.23,142.49a30.63,30.63,0,0,0,3.82-1.66.59.59,0,0,1,.78.25.58.58,0,0,1-.25.77,30,30,0,0,1-4,1.72c-.49.18-1,.33-1.47.48a.55.55,0,0,1-.51-.09.56.56,0,0,1-.21-.29.58.58,0,0,1,.38-.72C60.29,142.81,60.76,142.65,61.23,142.49Z"/><path class="cls-8" d="M138.82,59.65c1.8.23,3.67.53,5.72.9a.58.58,0,1,1-.2,1.14c-2-.38-3.89-.67-5.66-.9a.54.54,0,0,1-.27-.11.57.57,0,0,1,.41-1Z"/><path class="cls-8" d="M129.22,60.09a.6.6,0,0,1-.24-.46.58.58,0,0,1,.58-.58c1.84,0,3.8.06,5.8.23a.57.57,0,0,1,.53.62.59.59,0,0,1-.62.53c-2-.17-3.89-.24-5.7-.23A.61.61,0,0,1,129.22,60.09Z"/><path class="cls-8" d="M72.35,135.54a.57.57,0,0,1,.81,0,.58.58,0,0,1,0,.82,32.24,32.24,0,0,1-4.54,3.69.59.59,0,0,1-.67,0,.35.35,0,0,1-.13-.14.58.58,0,0,1,.15-.8A30,30,0,0,0,72.35,135.54Z"/><path class="cls-8" d="M74.72,133.86a.58.58,0,0,1-.08-.81c.33-.4.64-.81,1-1.22a29.34,29.34,0,0,0,2.21-3.46.58.58,0,0,1,1,.55,30.35,30.35,0,0,1-2.29,3.6q-.48.63-1,1.26a.58.58,0,0,1-.79.09Z"/><path class="cls-8" d="M79.57,126.06a.35.35,0,0,1-.12-.07.56.56,0,0,1-.19-.68A40.58,40.58,0,0,0,81,119.92a.58.58,0,0,1,.7-.42.59.59,0,0,1,.42.7,39.55,39.55,0,0,1-1.81,5.54A.57.57,0,0,1,79.57,126.06Z"/><path class="cls-8" d="M94.84,76.91c-.48.59-.94,1.19-1.39,1.79-.68.92-1.33,1.87-1.93,2.83a.58.58,0,0,1-.79.18l0,0a.58.58,0,0,1-.15-.77c.62-1,1.28-2,2-2.89.46-.63.94-1.24,1.43-1.84a.56.56,0,0,1,.81-.08A.57.57,0,0,1,94.84,76.91Z"/><path class="cls-8" d="M89.82,84.48a41.85,41.85,0,0,0-2.28,5.2.59.59,0,0,1-.74.35L86.65,90a.59.59,0,0,1-.19-.66A43.45,43.45,0,0,1,88.8,84a.59.59,0,0,1,.78-.25A.58.58,0,0,1,89.82,84.48Z"/><path class="cls-8" d="M101.27,70.49a47.75,47.75,0,0,0-4.17,3.87.57.57,0,0,1-.75.07l-.06-.05a.58.58,0,0,1,0-.82,48.58,48.58,0,0,1,4.27-4,.58.58,0,1,1,.73.89Z"/><path class="cls-8" d="M111.89,63.94a.56.56,0,0,1-.57-.07.48.48,0,0,1-.19-.23.58.58,0,0,1,.3-.76,47.21,47.21,0,0,1,5.47-2,.58.58,0,0,1,.32,1.11A44.37,44.37,0,0,0,111.89,63.94Z"/><path class="cls-8" d="M83.51,108.12a.5.5,0,0,1-.27-.11.54.54,0,0,1-.23-.52l.08-.73c.19-1.67.38-3.34.6-5a.57.57,0,1,1,1.14.15c-.22,1.66-.41,3.32-.6,5l-.08.73A.57.57,0,0,1,83.51,108.12Z"/><path class="cls-8" d="M104,68.42a.59.59,0,0,1-.68,0,.55.55,0,0,1-.12-.14.57.57,0,0,1,.13-.8,47.92,47.92,0,0,1,5-3.06.58.58,0,0,1,.55,1A47.28,47.28,0,0,0,104,68.42Z"/><path class="cls-8" d="M83.24,110.41a.58.58,0,0,1,.5.65c-.28,2.24-.56,4.06-.87,5.73a.58.58,0,0,1-.67.46.66.66,0,0,1-.24-.11.55.55,0,0,1-.22-.57c.3-1.64.58-3.44.86-5.66A.58.58,0,0,1,83.24,110.41Z"/><path class="cls-8" d="M56.52,143.76a.58.58,0,0,1,.22,1.13,46.11,46.11,0,0,1-5.78.75.61.61,0,0,1-.38-.11.58.58,0,0,1-.23-.43.56.56,0,0,1,.53-.61A47.76,47.76,0,0,0,56.52,143.76Z"/><path class="cls-8" d="M86.12,92.23a.56.56,0,0,1,.4.7c-.45,1.7-.84,3.52-1.18,5.58a.59.59,0,0,1-.67.47.51.51,0,0,1-.24-.1.58.58,0,0,1-.23-.56c.35-2.1.75-4,1.21-5.69A.57.57,0,0,1,86.12,92.23Z"/><path class="cls-8" d="M124.05,59.39c.67-.08,1.34-.14,2-.19a.56.56,0,0,1,.61.53.58.58,0,0,1-.53.62c-.65,0-1.31.11-2,.19-1.21.14-2.44.34-3.65.6a.6.6,0,0,1-.46-.1.56.56,0,0,1-.22-.35.57.57,0,0,1,.44-.68C121.53,59.75,122.8,59.54,124.05,59.39Z"/><path class="cls-3" d="M341.38,251.27a18.65,18.65,0,1,1-22.37,0H278.86a11,11,0,0,0-11,11v37.55a18.74,18.74,0,1,0,0,28.38v36a11,11,0,0,0,11,11H380.77a11,11,0,0,0,11-11V262.27a11,11,0,0,0-11-11Z"/><path class="cls-7" d="M380.77,80.81H278.94a11,11,0,0,0-11,11V128a18.56,18.56,0,1,1,0,26.33v50.37h50.55a18.56,18.56,0,1,0,23.67,0h38.62a11,11,0,0,0,11-11V91.81A11,11,0,0,0,380.77,80.81Z"/><path class="cls-8" d="M266.42,162.72a18.51,18.51,0,0,0-14.82,4.92v-37.4a11,11,0,0,0-11-11H138.76a11,11,0,0,0-11,11V243.08h48.62a18.47,18.47,0,1,1,24.21,0h51v-48.4a18.55,18.55,0,1,0,14.82-32Z"/><polygon class="cls-2" points="257.65 86.6 253.26 87.92 252.14 83.15 259.28 82.77 257.65 86.6"/><path class="cls-13" d="M258.27,87.7a2.44,2.44,0,0,0,.87,1.1c2.86.48,7.89-3.92,7.89-3.92l-.1-2.84-3.29-2.14-4,1.64a3.51,3.51,0,0,0-2.07,2.6h0A6.88,6.88,0,0,0,258.27,87.7Z"/><path class="cls-14" d="M261.65,81.4c.73-.14,2.2-.93,2.41-.21.14.52.85,2.22,1.11,2.79.63,1.33,2.26,3.48,4.3,2.53a3,3,0,0,0,1.4-2.62,3,3,0,0,0-.87-2c-1.2-1.23-3.25-2.66-3.46-3.51-.35-1.43-1.72-2.38-2.83-1.85a12.42,12.42,0,0,0-3.55,3.15A6.69,6.69,0,0,0,259,81.88h0Z"/><path class="cls-13" d="M260.87,80.11a1.12,1.12,0,0,1,.47,1.3c-.14.54-.59.84-1,.66a1.1,1.1,0,0,1-.47-1.29C260,80.23,260.47,79.94,260.87,80.11Z"/><polygon class="cls-5" points="252.99 89 255.2 95.16 249.71 99.75 249.71 89 252.99 89"/><path class="cls-14" d="M241.74,116.54a14.69,14.69,0,0,0,6,2.78c.92.23,1.92-.08,1.92,1.44h-5.1l-4.24-.73v.73h-2.3s-.63-3.74.71-4.22Z"/><path class="cls-13" d="M241.29,113.85l.45,2.69h0a2.6,2.6,0,0,1-2.81.09l-.15-.09.22-2.69Z"/><path class="cls-13" d="M202.12,113.91l-2.48-.49h0a2.43,2.43,0,0,1,.22-2.61l.1-.14,2.5.29Z"/><path class="cls-14" d="M231.48,101.18s3.19-.13,9.49-4c-4.26,7.59-2.87,17.92-2.87,17.92h3.61l8.9-23.3-21.32-1.11v10.75Z"/><path class="cls-4" d="M254.68,82.81s-11.12-11.52-33.17,3.06L231,97.16l11.49-3.89,8.71,2.41Z"/><path class="cls-13" d="M242.45,93.27s.56,9.63,2.41,14.27,10.85,13.16,10.85,13.16l1.25-2.78L250.79,107l.37-11.3Z"/><path class="cls-13" d="M257,118.06a5.24,5.24,0,0,0,1.6,2.45c1.17,1.18,4.31,2.93,2.74,3.73-1.76-.38-3.87-.62-3.87-.62-1.05-.33-2.12-1.83-2.61-2.89l-1.12-3.44s.93-1.49,1-1.57l.73.24A8.12,8.12,0,0,0,257,118.06Z"/><path class="cls-13" d="M256.9,119a1.48,1.48,0,0,0,0,.28c-.22-.08-.45-.14-.67-.2l-2.05-1.61c.37-.34.88-.83.91-.87l5.15,2.65s0,.74-1.24.56A5.85,5.85,0,0,1,256.9,119Z"/><path class="cls-7" d="M221.51,85.87s-5.93,4.56-6.3,10.36,5.56,16.65,5.56,16.65-6.64-5.56-18.71-2.38a24.87,24.87,0,0,0-.75,3.84s25,9.11,28.72,4.6.93-21.78.93-21.78Z"/><path class="cls-14" d="M199.94,113.42s-1.87.58-2.3,6.17c-.09,1.14-.48.86-.89,1.16-.37-1.72-1.31-5.29-1.31-5.29l1.4-3.68-.79-.6,1.3-2.07s2.6.27,2.9,1.56Z"/><polygon class="cls-3" points="451.78 380 410.69 252.26 413.03 252.26 454.12 380 451.78 380"/><polygon class="cls-3" points="430.53 380 389.44 252.26 391.78 252.26 432.87 380 430.53 380"/><polygon class="cls-3" points="423.67 285.43 423.67 287.34 401.66 287.33 401.28 285.42 423.67 285.43"/><polygon class="cls-3" points="419.12 273.06 419.12 274.96 397.11 274.95 396.73 273.04 419.12 273.06"/><polygon class="cls-3" points="415.36 260.68 415.36 262.58 393.34 262.57 392.97 260.67 415.36 260.68"/><polygon class="cls-3" points="427.68 297.97 427.68 299.88 405.67 299.86 405.29 297.96 427.68 297.97"/><polygon class="cls-3" points="431.45 310.51 431.45 312.41 409.43 312.4 409.06 310.5 431.45 310.51"/><polygon class="cls-3" points="435.34 323.53 436.23 325.44 414.21 325.42 413.84 323.52 435.34 323.53"/><polygon class="cls-3" points="439.47 336.56 440.36 338.46 418.34 338.45 417.97 336.55 439.47 336.56"/><polygon class="cls-3" points="443.33 349.29 444.22 351.2 422.21 351.18 421.83 349.28 443.33 349.29"/><polygon class="cls-3" points="446.54 362.3 447.43 364.21 425.41 364.2 425.03 362.29 446.54 362.3"/><polygon class="cls-7" points="349.36 380 390.45 252.26 388.11 252.26 347.02 380 349.36 380"/><polygon class="cls-7" points="370.61 380 411.7 252.26 409.36 252.26 368.26 380 370.61 380"/><polygon class="cls-7" points="377.46 285.43 377.46 287.34 399.48 287.33 399.86 285.42 377.46 285.43"/><polygon class="cls-7" points="382.01 273.06 382.01 274.96 404.03 274.95 404.41 273.04 382.01 273.06"/><polygon class="cls-7" points="385.78 260.68 385.78 262.58 407.8 262.57 408.17 260.67 385.78 260.68"/><polygon class="cls-7" points="373.45 297.97 373.45 299.88 395.47 299.86 395.85 297.96 373.45 297.97"/><polygon class="cls-7" points="369.69 310.51 369.69 312.41 391.71 312.4 392.08 310.5 369.69 310.51"/><polygon class="cls-7" points="365.8 323.53 364.91 325.44 386.92 325.42 387.3 323.52 365.8 323.53"/><polygon class="cls-7" points="361.67 336.56 360.78 338.46 382.8 338.45 383.17 336.55 361.67 336.56"/><polygon class="cls-7" points="357.8 349.29 356.91 351.2 378.93 351.18 379.31 349.28 357.8 349.29"/><polygon class="cls-7" points="354.6 362.3 353.71 364.21 375.73 364.2 376.1 362.29 354.6 362.3"/><path class="cls-14" d="M393.58,256.63a16.11,16.11,0,0,1-6.58,3c-1,.26-2.1-.09-2.1,1.57h5.55l4.62-.79v.79h2.49s.7-4.07-.76-4.6Z"/><path class="cls-13" d="M393.86,253.71l-.28,2.92h0a2.83,2.83,0,0,0,3.05.11l.17-.11,1-2.92Z"/><path class="cls-14" d="M407.46,256.63s-2,1.86-6.57,3c-1,.26-2.1-.09-2.1,1.57h5.55l4.62-.79v.79h2.49s.69-4.07-.76-4.6Z"/><path class="cls-13" d="M407.74,253.71l-.28,2.92h0a2.85,2.85,0,0,0,3.06.11l.17-.11,1-2.92Z"/><polygon class="cls-2" points="402.74 157.48 403.52 162.26 407.78 160.36 406.38 154.62 402.74 157.48"/><path class="cls-13" d="M401.19,157.92a2.48,2.48,0,0,1-1.43-.34c-1.72-2.49.24-9.22.24-9.22l2.74-1.15,3.48,2.17.2,4.51a3.64,3.64,0,0,1-1.55,3.11h0A7.12,7.12,0,0,1,401.19,157.92Z"/><path class="cls-14" d="M405.26,150.68a1.5,1.5,0,0,0-1.7-1.12,12.41,12.41,0,0,1-1.89.17c-1.54,0-3.46-.61-3.46-3s2.89-1.54,2.89-1.54,5.93.9,8.23,2.62c1.1.82-.74,3.44-1.41,4.75a7.27,7.27,0,0,1-1.54,2h0Z"/><path class="cls-13" d="M407.24,152.11a1.16,1.16,0,0,0-1.44.12c-.45.38-.54.93-.19,1.23a1.16,1.16,0,0,0,1.44-.12C407.5,153,407.59,152.41,407.24,152.11Z"/><path class="cls-8" d="M403.52,162.26s-6.41,10.52-10.24,35c7.72,2.43,19.51,5.05,19.51,5.05s7-26.49-5-41.91A6.35,6.35,0,0,0,403.52,162.26Z"/><path class="cls-14" d="M393.28,197.22s-5.37,18-5.37,26.17,5.37,31.15,5.37,31.15h4.93s1.15-16.09-.26-25.12a18.26,18.26,0,0,1,.53-7.95c2.64-9.06,5.46-21.31,5.46-21.31Z"/><path class="cls-7" d="M397,198.66s-1.39,19.56.84,26.61,9.66,29.27,9.66,29.27h4.36a78.44,78.44,0,0,0-2.42-24.94,16.18,16.18,0,0,1,.32-9.47,54.4,54.4,0,0,0,3.08-17.86Z"/><path class="cls-13" d="M386.1,200a5.1,5.1,0,0,1-2.77.42c-1.59-.07-4.85-1.19-4.41.45,1.4,1,2.92,2.35,2.92,2.35a5.55,5.55,0,0,0,3.73,0l3.16-1.41s.47-1.61.5-1.68l-.63-.36A8.8,8.8,0,0,1,386.1,200Z"/><path class="cls-13" d="M385.47,200.57a1,1,0,0,1-.2.16,5.5,5.5,0,0,1,.57.36c.82.13,1.64.28,2.46.42,0-.48,0-1.16,0-1.2l-5.18-2s-.5.51.4,1.24A5.53,5.53,0,0,0,385.47,200.57Z"/><path class="cls-8" d="M402.74,170.69l-1.44,11.72a10.67,10.67,0,0,1-2.84,6.05l-10.55,11.19,1,2.62s15.89-7.5,18.82-11.93,4.39-18,4.39-18Z"/><path class="cls-4" d="M411.34,176.87c-.69,4.34-1.94,10.63-3.74,13.35-2.68,4.07-16.68,10.88-18.53,11.76l-.91-2.29,10.46-11.09a10.82,10.82,0,0,0,2.89-6.17l.64-5.25-.39-.23-.66,5.43a10.46,10.46,0,0,1-2.79,5.93L387.76,199.5l-.09.1,1.18,3,.2-.09c.65-.31,16-7.57,18.9-12,1.91-2.89,3.19-9.47,3.86-13.84Z"/><polygon class="cls-1" points="403.27 160.75 407.45 158.44 407.78 160.36 403.27 162.7 403.27 160.75"/><path class="cls-2" d="M82.19,285.62a130.1,130.1,0,0,0,12.36,9.08c3.89,2.29,11.8,3.88,14.57,4.38a2.45,2.45,0,0,0,1.82-.37l2.4-1.57s2.66-.21,3.14,1.48a12.1,12.1,0,0,1-1.4,2.45,2.6,2.6,0,0,1-2.17,1.05c-3.44-.08-13.39-.49-20.26-2.6C84.22,296.93,75.34,291,75.34,291Z"/><polygon class="cls-2" points="83.22 281.49 81.5 286.12 76.69 283.99 80.99 277.62 83.22 281.49"/><path class="cls-13" d="M84.27,283a2.64,2.64,0,0,0,1.48.33c2.71-1.52,4-8.6,4-8.6l-2-2.31-4.19.43-2.22,4.06a3.74,3.74,0,0,0,0,3.57h0A7.35,7.35,0,0,0,84.27,283Z"/><path class="cls-14" d="M82.85,275.46c.52-.61,1.21-2.26,1.87-1.8.47.34,2.21,1.28,2.81,1.58,1.43.7,4.24,1.38,5.3-.78a3.21,3.21,0,0,0-.59-3.14,3.25,3.25,0,0,0-2-1c-1.83-.22-4.51,0-5.25-.6-1.26-1-3.06-.83-3.62.36a13.22,13.22,0,0,0-.84,5,7.21,7.21,0,0,0,.51,2.56h0Z"/><path class="cls-13" d="M81.33,274.91a1.21,1.21,0,0,1,1.27.77c.24.55.07,1.1-.38,1.22a1.18,1.18,0,0,1-1.27-.77C80.7,275.58,80.87,275,81.33,274.91Z"/><path class="cls-14" d="M59.14,370.32s0,2.86,5.75,4.57c1.18.35.8.7,1,1.2H59.3l-2.59-2.91-.8.69L54,372s.87-2.66,2.29-2.68Z"/><path class="cls-13" d="M60.21,367.84l-1.07,2.48h0a2.59,2.59,0,0,1-2.69-.82l-.12-.14.87-2.54Z"/><path class="cls-6" d="M77.07,281.57c-12.8-1.4-24.55,22.54-24.55,22.54L68,315s16.7-15.29,14-28.81A5.73,5.73,0,0,0,77.07,281.57Z"/><path class="cls-14" d="M49.9,371.72a14.68,14.68,0,0,0,6,2.78c.92.23,1.92-.08,1.92,1.44h-5.1l-4.23-.73v.73H46.24s-.64-3.74.7-4.22Z"/><path class="cls-13" d="M49.45,369l.45,2.69h0a2.58,2.58,0,0,1-2.81.09l-.15-.09.22-2.69Z"/><path class="cls-14" d="M68,315s8.48,15.4,7.36,23.54-15.84,30.8-15.84,30.8l-2.68-1.23s3-17.15,5.74-25.05c.65-1.87,1-3.82.17-5.6-3.86-7.93-8.7-21-8.7-21l7.82-5.75Z"/><path class="cls-7" d="M64.34,312.41l-14.43,58H46.79s-2.43-16.67.34-28.22a16.25,16.25,0,0,0,.33-5.25c-1.56-16.85-.58-27.15,5.06-32.84Z"/><path class="cls-7" d="M148.39,235.87a18.47,18.47,0,0,0,4.91,14.82H104.9V363.53a11,11,0,0,0,11,11H217.74a11,11,0,0,0,11-11V325.92a18.47,18.47,0,1,1,0-24.21v-51h-48.4a18.55,18.55,0,1,0-32-14.82Z"/><path class="cls-13" d="M80.85,290.13a129.35,129.35,0,0,0,11.39,10.26c3.64,2.67,11.34,5.05,14.05,5.83a2.48,2.48,0,0,0,1.85-.19l2.54-1.32s3.13.76,3,1.78A12.12,12.12,0,0,1,112,308.8a2.58,2.58,0,0,1-2.26.82c-3.42-.42-13.28-1.83-19.9-4.62-8.13-3.42-16.37-10.26-16.37-10.26Z"/><polygon class="cls-2" points="195.58 265.19 188.65 283.3 184.28 280.05 194.04 263.59 195.58 265.19"/><path class="cls-2" d="M194.72,259.71a2.83,2.83,0,0,0-.63,1.92l-.3,2.61.35.4,1.23,1.09c0-.54-.1,0-.1,0l2-3.43s2.38-1.53-.62-3.78a.86.86,0,0,0-1-.07A2.24,2.24,0,0,0,194.72,259.71Z"/><path class="cls-5" d="M180.28,296.38a113.64,113.64,0,0,0,8.37-13.08L184.89,279l-4.61,5.37Z"/><path class="cls-2" d="M169.46,374.86l2.2.39c.46-2.74,7.32-15.72,7.88-22.46A152.13,152.13,0,0,1,181.9,337l-7.38-2.19s-1.87,0,.18,15.24C170.09,356.09,168.85,369.84,169.46,374.86Z"/><path class="cls-13" d="M174.89,329.24s1.74,10.43,4.15,21.59c-2.52,6.73,1.32,25.53,1.39,25.47.29-.28,1.61,1.36,1.61,1.36s2.8-16.59,3.42-24.08.78-16.6.78-16.6Z"/><path class="cls-7" d="M180.12,375.25a2.46,2.46,0,0,0-.86,2c.19,1.14.46,3.8.46,3.8h1.08l0-2.48c0-.16,2.32,2.48,2.71,2.48h5.72s.38-1.68-3-2.21S180.12,375.25,180.12,375.25Z"/><path class="cls-2" d="M171.92,373.35l-.16,2.37a2.24,2.24,0,0,0,.39,1.4,9,9,0,0,0,1.72,1.79c-1.65.53-3.16-1.33-4-2.56a2.9,2.9,0,0,1-.43-2l.28-1.86Z"/><path class="cls-14" d="M169.46,374.66s-1.46.13-1.7,1.24-.93,3.35-.93,3.35l.79.63,1.12-2.22a32.38,32.38,0,0,0,2.8,3.41h6.24s0-2.07-3.91-2.16C170.27,378.82,169.46,374.66,169.46,374.66Z"/><polygon class="cls-13" points="202.86 264.31 195.93 282.42 191.56 279.17 201.32 262.72 202.86 264.31"/><path class="cls-13" d="M202,258.84a2.83,2.83,0,0,0-.63,1.91l-.3,2.61.36.41,1.22,1.09c0-.54-.1,0-.1,0l2-3.43s2.38-1.53-.62-3.79a.88.88,0,0,0-1-.06A2.21,2.21,0,0,0,202,258.84Z"/><polygon class="cls-2" points="181.9 286.86 177.43 286.86 179.22 281.61 182.71 283.76 181.9 286.86"/><path class="cls-4" d="M187.83,292.51a3.41,3.41,0,0,0-.08-.37c4.43-5.7,8.18-9.72,8.18-9.72l-3.76-4.28-8.54,8.12h-2.51a5,5,0,0,0-6.34.81c-1.08,1.12-1.8,4.14-1.08,7.33,2,8.81.43,13.47.43,13.47l11.52,4.3s.27-7.66.45-13v0a5.93,5.93,0,0,1,.93-2.94A5.21,5.21,0,0,0,187.83,292.51Z"/><path class="cls-13" d="M183.47,272.18l-7.32,2.56.72,5.47c0,.08,0,.15,0,.23l.42.08.07,0,.07,0a5,5,0,0,1,3.42,3.42,8.45,8.45,0,0,0,3.17,0,3.17,3.17,0,0,0,1.67-.72C187.27,279.85,183.47,272.18,183.47,272.18Z"/><path class="cls-14" d="M183.3,276.83c-2,1-1.51,11.13-1.85,18.05a7.85,7.85,0,0,1-6.66,7.35c-2.61.42-5.47.49-7.2-.49,1.14-.94,7.3-10,5.33-22-.26-1.58-.29-6,2.37-8.37,3-2.65,9.05.81,9.05.81S186,275.51,183.3,276.83Z"/><path class="cls-3" d="M185.89,307.61a85.77,85.77,0,0,1,1.53,12.45c0,2.56-.62,18.63-.62,18.63s-11,.79-13.08.79c-.52-13.17-3.53-13.57-3.53-19.72,0-2.67,1.37-5.69,2.42-7.61a11,11,0,0,0,1.52-4.27l.07-.25Z"/><path class="cls-3" d="M173.2,337"/><path class="cls-13" d="M295.8,285.42s7.52,14.48,7,17.66-7,8.71-7,8.71l-1-1.8,3.28-7.42-4.23-12.17Z"/><polygon class="cls-2" points="287.74 279.21 288.35 283.36 292.04 283.36 292.41 276.99 287.74 279.21"/><path class="cls-4" d="M281,297.51V285.83c4.73-3.35,8.07-3,8.07-3a14.48,14.48,0,0,1,2.11-.09s7.91-.58,6.46,11.91C294.49,305.27,296,310,296,310s-8.24,3.35-12.84,1c1.16-2.66-1-9.95-2.13-13.49Z"/><path class="cls-14" d="M293.28,281.52s3.13,1.84,3.13,4.74a6.92,6.92,0,0,1-1.52,4.13,6,6,0,0,0,.16,6.79l.07.08a2.59,2.59,0,0,1,.51,2.18c-.57,2.76-4.37,3.17-5.84.77a15,15,0,0,1-1.44-3.16,3.72,3.72,0,0,1,.78-4.08,1.66,1.66,0,0,0,.09-2.37c-1.18-1.21-2.35-3-.87-4.65a14.38,14.38,0,0,0,3.19-5.22Z"/><path class="cls-2" d="M300.26,374.78l-2.2.39c-.46-2.74-7.32-15.72-7.88-22.46a152.13,152.13,0,0,0-2.36-15.81l7.38-2.19s1.87,0-.18,15.25C299.63,356,300.87,369.76,300.26,374.78Z"/><path class="cls-13" d="M284.35,269.43l6.81-.32,1.21,4.69a1.77,1.77,0,0,1,0,.2l-.31.21-.05,0-.05,0a4.4,4.4,0,0,0-1.66,3.92,7.5,7.5,0,0,1-2.6,1,2.68,2.68,0,0,1-1.59,0C283.78,276.94,284.35,269.43,284.35,269.43Z"/><path class="cls-14" d="M293.31,280.52c-1.77.21,1,0-1.77.21-.08-1.49-4.88-5.37-5.8-6.16a5.73,5.73,0,0,1-2.15-4.43s4.63-5,7.63-3.94a5.55,5.55,0,0,1,3.55,4C295.1,271.27,295.79,273.17,293.31,280.52Z"/><path class="cls-13" d="M294.83,329.16s-1.74,10.43-4.15,21.59c2.52,6.74-1.32,25.53-1.39,25.47-.29-.27-1.61,1.36-1.61,1.36s-2.8-16.59-3.42-24.07-1.57-16.61-1.57-16.61Z"/><path class="cls-7" d="M289.6,375.17a2.43,2.43,0,0,1,.86,2c-.19,1.14-.46,3.8-.46,3.8h-1.08l0-2.48c0-.16-2.32,2.48-2.71,2.48h-5.72s-.37-1.67,3-2.21S289.6,375.17,289.6,375.17Z"/><rect class="cls-15" x="290.83" y="279.93" width="3.16" height="1.59" rx="0.71" transform="translate(584.82 561.45) rotate(180)"/><path class="cls-7" d="M283.49,308.4s-1.88,10.53-1.88,15.77c0,2.88,1.33,15.1,1.33,15.1s11,.32,13.18.32c.28-8.66,3.51-14.38,3.51-21.31,0-4.89-4.3-9.16-4.3-9.16Z"/><path class="cls-3" d="M296.4,346"/><path class="cls-13" d="M262.6,296.18l.5.14a3.08,3.08,0,0,1,2.07,2.06l.12.39a51.56,51.56,0,0,0,9.14,2.1c4.91-14,6.57-15,6.57-15a4.94,4.94,0,0,1,3.17,4.84c0,3.21-2.15,12.31-6.23,15.16a3.82,3.82,0,0,1-3.84.26c-6.56-3.11-11.19-5.78-11.19-5.78l-5-2.73,2.19-1.15A3.26,3.26,0,0,1,262.6,296.18Z"/><path class="cls-2" d="M297.8,373.28l.16,2.36a2.24,2.24,0,0,1-.39,1.4,9,9,0,0,1-1.72,1.79c1.66.53,3.16-1.33,3.95-2.56a2.9,2.9,0,0,0,.43-2l-.28-1.86Z"/><path class="cls-14" d="M300.26,374.58s1.46.13,1.7,1.24.93,3.35.93,3.35l-.79.63L301,377.58a32.38,32.38,0,0,1-2.8,3.41h-6.24s0-2.07,3.91-2.16C299.45,378.74,300.26,374.58,300.26,374.58Z"/></svg>