<?xml version="1.0" encoding="UTF-8" standalone="no"?>
<!DOCTYPE svg PUBLIC "-//W3C//DTD SVG 1.1//EN" "http://www.w3.org/Graphics/SVG/1.1/DTD/svg11.dtd">
<svg width="100%" height="100%" viewBox="0 0 3840 2160" version="1.1" xmlns="http://www.w3.org/2000/svg" xmlns:xlink="http://www.w3.org/1999/xlink" xml:space="preserve" xmlns:serif="http://www.serif.com/" style="fill-rule:evenodd;clip-rule:evenodd;stroke-linejoin:round;stroke-miterlimit:2;">
    <path d="M295,1258C301.378,1254.74 310.829,1247.96 313.397,1241C316.785,1231.81 314.243,1218.74 315.17,1209C317.165,1188.03 320.756,1168.17 327.025,1148C346.082,1086.68 382.525,1032.78 400.576,971C413.474,926.855 410.444,884.051 414,839C446.635,871.635 478.864,905.26 506.884,942C529.526,971.688 547.641,1002.62 545.961,1041C544.89,1065.46 534.212,1089.09 520.656,1109C512.487,1121 500.682,1131.76 496.44,1146C488.697,1171.99 502.323,1202.41 512,1226C518.424,1224.12 521.965,1217.06 525.888,1212C531.714,1204.48 538.947,1197.54 546,1191.17C573.653,1166.19 604.972,1144.4 634,1121C634,1165.84 608.696,1202.34 580.282,1235C532.351,1290.09 468.627,1333.4 439.861,1403C420.442,1449.98 416.863,1505.95 410.282,1556C406.3,1586.28 402.043,1622.23 380.826,1646C375.872,1651.55 370.423,1656.74 364,1660.55C328.938,1681.33 292.452,1650.21 271.601,1624C264.047,1614.5 258.62,1598.12 249.39,1590.62C244.317,1586.49 230.002,1595.15 229.697,1601.01C229.445,1605.86 233.667,1611.83 235.753,1616C241.765,1628.03 247.864,1639.8 255.333,1651C282.75,1692.13 322.104,1729 374,1729C391.649,1729 408.313,1726.03 422,1713.83C448.191,1690.48 452.213,1652.92 456.155,1620C462.885,1563.79 463.832,1503.14 481.671,1449C490.14,1423.29 511.68,1402.13 529.961,1383C559.99,1351.58 592.286,1320.54 618.765,1286C635.368,1264.34 650.585,1239.83 657.102,1213C667.183,1171.49 658.5,1125.04 650.003,1084C645.653,1062.99 641.73,1041.07 634,1021C625.629,1023.35 620.857,1033.07 614.996,1039C601.921,1052.23 588.856,1066.05 573,1076C576.459,1058.16 580.167,1041.35 578.911,1023C574.094,952.663 526.055,891.541 479.91,842C460.096,820.728 439.807,799.948 420.718,778C400.547,754.807 382.835,730.168 385.09,698C386.095,683.648 394.748,673.654 400,661C413.54,667.598 423.753,689.334 433.003,701C459.06,733.864 485.046,766.783 510.651,800C572.867,880.713 635.378,963.172 682.258,1054C706.13,1100.25 730.287,1150.7 736.714,1203C740.371,1232.77 737.895,1264.56 732.576,1294C718.698,1370.81 658.63,1443.08 580,1456.92C561.738,1460.13 543.43,1461.07 525,1458.71C516.65,1457.65 501.132,1451.2 493.213,1454.6C488.428,1456.66 487.218,1464.54 486.13,1469C483.245,1480.82 481.302,1492.97 479.579,1505C478.854,1510.07 477.858,1516.62 482.228,1520.35C488.65,1525.84 500.974,1527.62 509,1529.62C534.433,1535.98 560.878,1538.36 587.001,1536.14C610.035,1534.18 632.733,1528.67 654,1519.57C750.581,1478.24 788.637,1361.22 781.911,1263C768.615,1068.85 650.547,900.99 536.116,751C494.662,696.665 447.175,645.391 411.427,587C392.564,556.188 379.314,516.185 387.425,480C390.77,465.077 399.58,453.084 411,443.271C413.365,441.239 421.576,435.716 418.914,431.742C416.746,428.507 410.679,430.758 408,431.877C398.835,435.703 391.74,442.824 385.09,450C362.564,474.309 360.244,509.538 361.015,541C361.537,562.316 365.392,583.137 373.203,603C377.367,613.588 388.384,628.6 388.342,640C388.306,649.889 376.383,661.826 372.604,671C363.96,691.986 360.351,714.442 363.289,737C367.115,766.368 382.618,792.36 389.112,821C393.421,840.007 391.719,862.105 387.576,881C366.52,977.029 306.482,1061.13 292.87,1159C289.673,1181.99 289.624,1204.89 290.921,1228.01C291.473,1237.84 290.574,1248.96 295,1258ZM501.144,1569.18C493.428,1570.18 502.709,1590.41 504.05,1594C510.139,1610.29 518.35,1629.6 533,1639.96C537.693,1643.27 544.924,1648.2 551,1646.95C569.633,1643.12 564.31,1622.15 559.771,1610C558.265,1605.97 555.729,1597.96 550.961,1596.75C546.023,1595.5 546.291,1603.19 545.351,1605.98C542.794,1613.6 533.882,1615.72 528.004,1610.78C518.218,1602.56 515.249,1590.17 510.269,1579C508.754,1575.6 505.936,1568.55 501.144,1569.18ZM298,1607L341,1642L342,1642L384,1591C376.049,1580.2 362.297,1572.16 352,1563.59C349.06,1561.14 344.21,1555.35 340.09,1555.34C335.735,1555.34 330.903,1564.01 328.414,1567C319.274,1577.98 301.609,1593.12 298,1607ZM1516,1518C1511.63,1537.06 1506.19,1556.19 1500.86,1575C1499.48,1579.87 1494.2,1590.92 1497.04,1595.61C1499.29,1599.32 1505.26,1600.08 1509,1601.44C1520.16,1605.47 1531.36,1609.59 1543,1612C1579.2,1619.49 1620.22,1617.44 1647.92,1589.68C1659.87,1577.7 1668.2,1563.38 1674.99,1548C1685.31,1524.63 1685.04,1500.78 1685,1476L1685,1106L1615,1106C1610.04,1106 1594.32,1103.45 1591.03,1107.6C1587.54,1112.01 1590,1125.53 1590,1131C1590,1152.04 1591,1173.02 1591,1194L1591,1415C1591,1445.26 1598.6,1483.46 1578.48,1509C1568.49,1521.69 1552.68,1527.76 1537,1524.55C1529.76,1523.07 1523.23,1519.25 1516,1518ZM331,786C330.978,819.191 313.494,842.276 289,863.271C255.316,892.142 214.151,911.809 177,935.692C138.748,960.283 100.338,984.452 69.09,1018C18.841,1071.95 -4.925,1143.77 0.09,1217C1.7,1240.52 6.168,1264.54 13.344,1287C18.415,1302.87 26.507,1318.6 29.539,1335C33.283,1355.23 31.375,1376.56 33.321,1397C38.266,1448.93 52.496,1502.14 86.435,1543C100.533,1559.97 117.054,1576.22 137,1586.19C172.786,1604.08 223.243,1602.06 251.91,1571.99C291.498,1530.46 296.254,1458.99 302.715,1405C304.654,1388.79 303.425,1369.5 308.85,1354C312.349,1344.01 323.674,1336.13 331,1328.99C350.809,1309.66 377.791,1291.35 391.662,1267C398.817,1254.44 396.071,1240.61 394.282,1227C392.313,1212.03 390.789,1196.65 387,1182C380.433,1184.3 377.012,1190.91 372.704,1196C365.415,1204.62 357.561,1212.7 349.251,1220.34C328.901,1239.05 298.002,1259.02 286.873,1285C277.603,1306.64 276.125,1331.94 272.728,1355C265.876,1401.52 257.926,1456.09 229.511,1495C193.164,1544.77 122.057,1545.34 87.028,1494C62.945,1458.7 62.117,1419.49 57,1379C68.357,1390.36 80.152,1401.88 94,1410.18C126.722,1429.8 165.225,1417.71 173.335,1379C182.394,1335.76 167.209,1282.76 142.653,1247C128.687,1226.66 107.707,1210.09 82,1218.22C65.48,1223.44 54.188,1239.99 47.309,1255C44.116,1261.97 42.71,1270.62 37,1276C33.504,1250.04 30.613,1225.32 33.17,1199C42.724,1100.66 114.677,1032.42 191,978.424C218.957,958.645 247.943,940.359 276,920.72C296.577,906.316 319.591,889.032 331,866C335.702,878.076 325.684,896.789 321.2,908C307.423,942.446 290.768,975.332 275.309,1009C219.336,1130.9 176.463,1256.85 186.856,1393.04C189.053,1421.83 190.385,1450.39 195.08,1479C196.237,1486.05 196.138,1503.41 201.728,1508.35C204.466,1510.78 207.939,1507.72 210,1505.89C216.073,1500.5 218.071,1496.93 216.753,1489C210.002,1448.37 205.091,1407.17 207.91,1366C214.702,1266.83 240.489,1177.25 279.427,1086C306.535,1022.47 349.027,960.26 355.83,890C358.08,866.77 357.057,843.245 356.039,820C354.894,793.836 352.55,765.402 339.688,742C324.359,714.107 278.639,707.326 264.465,741C254.4,764.91 268.496,793.879 295,797.7C308.733,799.679 320.486,794.338 331,786ZM348,1466C339.109,1479 328.049,1490.71 318.2,1503C315.604,1506.24 308.342,1512.46 308.921,1516.96C309.681,1522.88 322.625,1530.31 327,1533.92C332.082,1538.1 344.297,1551.98 350.985,1551.81C355.624,1551.69 360.402,1543.23 362.999,1540C371.746,1529.11 390.219,1513.79 393,1500C378.842,1490.64 364.506,1470.29 348,1466ZM2837,1107L2837,1477L3085,1477L3085,1400L2928,1400C2933.74,1380.56 2929,1353.31 2929,1333L3051,1333L3051,1256L2929,1256L2930,1211L2929,1186L3073,1186L3073,1107L2837,1107ZM2510,1107L2510,1477L2757,1477L2757,1400L2601,1400L2601,1333L2692,1333C2697.94,1333 2719.15,1336.23 2722.97,1331.4C2726.12,1327.42 2724,1315.9 2724,1311L2724,1256L2602,1256L2602,1186L2747,1186L2747,1129L2745.97,1108.6L2731,1107L2510,1107ZM2170,1107L2170,1186L2300,1186L2271.58,1227L2204.33,1325L2177.56,1364L2165.43,1383L2165,1413L2165,1477L2427,1477L2427,1395L2291,1395L2311.16,1366L2375.42,1272L2410.81,1220L2422.44,1202L2423,1172L2423,1107L2170,1107ZM1870,1107L1842.89,1186L1773.31,1385L1753.95,1441L1742,1475L1840,1475C1842.26,1459.68 1849.46,1444.64 1854.33,1430C1856.08,1424.76 1857.6,1415.48 1861.7,1411.6C1866.33,1407.22 1881.9,1410 1888,1410L1957,1410C1962.82,1410 1976.95,1407.44 1981.44,1411.6C1984.52,1414.47 1985.31,1421.1 1986.42,1425C1989.66,1436.33 1993.07,1447.61 1996.13,1458.99C1997.21,1463 1997.29,1472.33 2001.43,1474.4C2008.2,1477.78 2022.46,1475 2030,1475L2102,1475C2101.62,1466.61 2097.68,1458.85 2095,1451C2089.19,1433.97 2082.18,1417.25 2077.04,1400C2056.52,1331.18 2031.58,1262.28 2006.42,1195C1998.4,1173.53 1992.32,1151.46 1984.19,1130C1982.11,1124.49 1980.42,1111.49 1975.49,1108.03C1969.8,1104.04 1953.84,1107 1947,1107L1870,1107ZM3258,1475L3258,1339C3269.42,1339 3285.66,1336.18 3296,1341.97C3305.67,1347.39 3311.04,1361.32 3315.41,1371C3326.19,1394.88 3336.68,1419.42 3345.77,1444C3348.88,1452.39 3351.25,1467.03 3357.81,1473.4C3362.22,1477.67 3377.15,1475 3383,1475L3454,1475C3451.52,1460.41 3443.65,1446.72 3438.42,1433C3426.71,1402.22 3414.66,1371.58 3402.4,1341C3396.57,1326.47 3390.67,1304.67 3374,1299C3389.43,1285.84 3408.53,1276.31 3418.83,1258C3425.71,1245.76 3427.14,1231.73 3428.09,1218C3430.88,1177.53 3414.83,1133.78 3376,1115.32C3357.26,1106.41 3338.21,1107 3318,1107L3190,1107C3183.72,1107 3172.08,1104.74 3166.43,1107.6C3163.53,1109.07 3164.01,1113.29 3164,1116C3163.96,1124 3164,1132 3164,1140L3164,1459C3164,1462.63 3162.4,1471.44 3165.6,1473.97C3170.15,1477.57 3184.34,1475 3190,1475L3258,1475ZM872,1475L943,1475C948.566,1475 963.904,1477.67 967.925,1473.4C971.167,1469.95 972.145,1463.35 973.692,1459C977.488,1448.34 981.515,1437.78 984.996,1427C986.516,1422.29 987.062,1412.89 992.225,1410.6C1000.89,1406.76 1017.53,1410 1027,1410L1112,1410L1124.42,1457L1130.56,1473.97L1158,1475L1232,1475L1201.34,1386L1138.66,1202L1106,1107L1029,1107C1022.41,1107 1006.05,1104.02 1000.7,1108.03C995.525,1111.91 993.734,1125.11 991.399,1131C982.364,1153.79 974.922,1177.74 966.997,1201C946.191,1262.06 924.97,1323.19 903.308,1384C895.709,1405.33 887.549,1426.42 880.656,1448C877.873,1456.71 872.91,1465.92 872,1475ZM3481,1475L3551,1475L3577.3,1473.97L3583.33,1457L3599,1410L3721,1410L3734.12,1457L3739.51,1473.97L3767,1475L3840,1475C3839.72,1461.65 3832.25,1448.46 3828,1436C3819.12,1409.94 3810.53,1383.85 3801.05,1358C3784.08,1311.72 3769.84,1264.42 3753.31,1218C3740.42,1181.82 3723.65,1144.4 3715,1107L3638,1107C3631.19,1107 3615.15,1104.03 3609.51,1108.03C3604.65,1111.48 3602.95,1126.37 3600.81,1132C3592.14,1154.81 3584.65,1177.96 3576.66,1201C3556.04,1260.4 3535.53,1319.95 3513.95,1379C3506.79,1398.59 3500.55,1418.44 3493.32,1438C3489.04,1449.57 3482.23,1462.7 3481,1475ZM411,1475C416.291,1462.7 417.544,1448.04 420.424,1435C421.501,1430.13 424.205,1423.97 422.396,1419C419.813,1411.9 410.464,1406.52 405,1401.71C392.572,1390.78 381.614,1378.73 370,1367C362.018,1358.94 355.426,1349.94 348.5,1341C346.365,1338.25 343.11,1333.13 338.985,1333.97C335.887,1334.6 333.393,1337.65 331.17,1339.68C327.934,1342.63 321.906,1346.6 320.952,1351.17C319.575,1357.76 330.191,1372.07 333.258,1378C347.345,1405.23 365.478,1432.07 386.986,1454C394.283,1461.43 401.635,1470.17 411,1475ZM1295,1107L1294,1474L1505,1474L1505,1417C1505,1412.1 1507.12,1400.58 1503.97,1396.6C1500.3,1391.96 1480.66,1395 1475,1395L1387,1395L1387,1107L1295,1107ZM609,1333L581,1392C596.634,1401.12 615.605,1411.99 633,1417C640.984,1397.82 657.363,1377.4 661,1357L609,1333ZM444,1227C434.067,1244.02 419.456,1267.55 416,1287L467,1311L487.781,1268L494.184,1252.21L482,1244.54L444,1227ZM180.995,1044.66C173.301,1046.57 166.502,1053.7 160.715,1058.75C142.138,1074.94 126.455,1097.1 123.285,1122C121.36,1137.12 125.072,1168.04 148,1160.95C161.9,1156.64 168.974,1141.07 172.101,1128C172.944,1124.48 174.827,1115.3 170.683,1113.14C167.266,1111.35 164.007,1115.5 162.533,1118.02C158.592,1124.75 156.197,1139.26 145.09,1130.43C143.528,1129.19 142.215,1127.67 141.144,1125.99C136.562,1118.79 138.962,1110.2 142.323,1103C149.833,1086.91 163.026,1074.76 174.91,1062C177.094,1059.66 193.666,1041.5 180.995,1044.66ZM404,1136C414.608,1132.89 424.688,1114.14 432.075,1106C447.438,1089.06 462.773,1072.1 477.95,1055C485.11,1046.93 495.985,1036.85 498.471,1026C500.114,1018.83 497.167,1010.78 495,1004C483.763,1007.18 473.528,1025.69 465.675,1034.17C449.757,1051.35 433.401,1068.23 418.13,1086C410.994,1094.3 401.455,1103.78 399.471,1115C398.21,1122.14 401.489,1129.49 404,1136ZM245,785.439C218.738,789.571 208.654,811.408 211.677,831.202C214.7,850.995 230.831,868.746 257,864.704C307.081,856.969 294.802,777.603 245,785.439Z" style="fill:rgb(191,191,191);fill-rule:nonzero;"/>
    <path d="M111,1287.44C93.338,1290.01 79.636,1304.95 71.64,1320C69.081,1324.82 64.466,1332.29 66.607,1337.96C71.319,1350.42 97.46,1351.35 108,1349.7C124.857,1347.07 140.067,1334.68 142.389,1317C144.384,1301.81 125.352,1285.35 111,1287.44ZM1051,1218L1018,1323L1085,1323L1064.04,1259L1051,1218ZM1921,1219L1889,1323L1955,1323L1933.72,1255L1921,1219ZM3659,1220L3647,1260L3627,1323L3694,1323C3685.87,1298.03 3678.31,1272.94 3670,1248C3667.48,1240.44 3665.45,1224.85 3659,1220ZM3258,1187L3258,1258C3274.44,1258 3297.73,1262.2 3313,1255.47C3338.75,1244.13 3339.42,1205.62 3316,1191.48C3300.7,1182.24 3275.27,1187 3258,1187Z" style="fill:white;fill-rule:nonzero;"/>
</svg>
