<svg xmlns="http://www.w3.org/2000/svg" viewBox="17.087 17.191 885.828 165.618">
<g transform="translate(-2521.9698,-654.34261)">
 <g transform="matrix(3.0676446,0,0,3.0676446,-6165.655,-2195.369)">
  <g transform="matrix(1.7716542,0,0,1.7716542,-2301.0501,-745.37663)">
   <path d="m 3054.8273,974.3862 c 0,-2.385 1.9363,-4.32 4.32,-4.32 2.385,0 4.3188,1.935 4.3188,4.32 0,2.385 -1.9338,4.31875 -4.3188,4.31875 -2.3837,0 -4.32,-1.93375 -4.32,-4.31875" style="fill:#86bc24"/>
   <path d="m 2917.0546,962.94557 c 0,-2.73625 -0.5287,-4.76625 -1.5862,-6.08875 -1.0588,-1.32125 -2.6626,-1.98125 -4.8188,-1.98125 l -2.2937,0 0,16.7325 1.755,0 c 2.395,0 4.15,-0.71 5.2675,-2.135 1.1162,-1.4225 1.6762,-3.59875 1.6762,-6.5275 m 8.18,-0.285 c 0,4.985 -1.34,8.82625 -4.02,11.5225 -2.68,2.6975 -6.4475,4.04625 -11.3038,4.04625 l -9.4362,0 0,-29.87125 10.095,0 c 4.6825,0 8.2975,1.22625 10.845,3.6775 2.5463,2.4525 3.82,5.9925 3.82,10.625" style="fill:#0f0b0b"/>
   <path d="m 2951.3731,978.22895 7.5087,0 0,-29.99625 -7.5087,0 0,29.99625 z" style="fill:#0f0b0b"/>
   <path d="m 2969.4302,967.0402 c 0,1.9125 0.25,3.37125 0.7488,4.37375 0.5,1.00375 1.3374,1.505 2.5149,1.505 1.165,0 1.9888,-0.50125 2.4688,-1.505 0.48,-1.0025 0.7187,-2.46125 0.7187,-4.37375 0,-1.9025 -0.2425,-3.3375 -0.7287,-4.30625 -0.4875,-0.97125 -1.3188,-1.4575 -2.4975,-1.4575 -1.1525,0 -1.9762,0.48375 -2.4762,1.44625 -0.4988,0.96375 -0.7488,2.4025 -0.7488,4.3175 m 14.0937,0 c 0,3.64375 -0.955,6.48625 -2.87,8.52375 -1.9137,2.03875 -4.5925,3.05875 -8.0362,3.05875 -3.3025,0 -5.9313,-1.0425 -7.8825,-3.1275 -1.9537,-2.085 -2.93,-4.9025 -2.93,-8.455 0,-3.6325 0.9563,-6.455 2.8713,-8.4675 1.9149,-2.0125 4.5999,-3.01875 8.0574,-3.01875 2.1363,0 4.0263,0.46625 5.6638,1.3975 1.6387,0.93125 2.9038,2.265 3.7925,4.0025 0.89,1.735 1.3337,3.765 1.3337,6.08625" style="fill:#0f0b0b"/>
   <path d="m 2986.5059,978.22907 7.51,0 0,-11.48 0,-10.80125 -7.51,0 0,22.28125 z" style="fill:#0f0b0b"/>
   <path d="m 2986.5056,953.2527 7.51,0 0,-5.02125 -7.51,0 0,5.02125 z" style="fill:#0f0b0b"/>
   <path d="m 3009.2307,972.54595 c 1.0138,0 2.2213,-0.2575 3.63,-0.76875 l 0,5.60625 c -1.0125,0.445 -1.975,0.76375 -2.89,0.9525 -0.915,0.19125 -1.9888,0.28625 -3.2175,0.28625 -2.5213,0 -4.3387,-0.63375 -5.455,-1.89875 -1.1112,-1.265 -1.6687,-3.2075 -1.6687,-5.82875 l 0,-9.185 -2.63,0 0,-5.76 2.63,0 0,-5.69 7.5675,-1.31625 0,7.00625 4.7912,0 0,5.76 -4.7912,0 0,8.6725 c 0,1.4425 0.6787,2.16375 2.0337,2.16375" style="fill:#0f0b0b"/>
   <path d="m 3026.6116,972.54595 c 1.0138,0 2.2213,-0.2575 3.63,-0.76875 l 0,5.60625 c -1.0112,0.445 -1.975,0.76375 -2.89,0.9525 -0.9162,0.19125 -1.9862,0.28625 -3.2175,0.28625 -2.5212,0 -4.3387,-0.63375 -5.4525,-1.89875 -1.1137,-1.265 -1.6712,-3.2075 -1.6712,-5.82875 l 0,-9.185 -2.6313,0 0,-5.76 2.6313,0 0,-5.77625 7.5662,-1.23 0,7.00625 4.7938,0 0,5.76 -4.7938,0 0,8.6725 c 0,1.4425 0.6788,2.16375 2.035,2.16375" style="fill:#0f0b0b"/>
   <path d="m 3039.7174,964.32582 c 0.1025,-1.22 0.4513,-2.11375 1.0462,-2.685 0.5976,-0.57 1.3351,-0.855 2.2176,-0.855 0.9625,0 1.7275,0.32 2.295,0.965 0.5712,0.64125 0.8687,1.5 0.8925,2.575 l -6.4513,0 z m 10.59,-6.145 c -1.785,-1.75 -4.3175,-2.62625 -7.5937,-2.62625 -3.4438,0 -6.0938,1.00625 -7.9513,3.01875 -1.8563,2.0125 -2.785,4.9 -2.785,8.6625 0,3.64375 1.0038,6.45375 3.0063,8.42625 2.0037,1.9725 4.8174,2.96 8.4412,2.96 1.74,0 3.2375,-0.11875 4.4925,-0.355 1.2475,-0.23375 2.455,-0.65625 3.6263,-1.26625 l -1.1538,-5.02125 c -0.8512,0.3475 -1.6612,0.615 -2.4262,0.79125 -1.105,0.25625 -2.3175,0.385 -3.6376,0.385 -1.4474,0 -2.5899,-0.35375 -3.4274,-1.06125 -0.8375,-0.70875 -1.2838,-1.68625 -1.335,-2.93125 l 13.4225,0 0,-3.42125 c 0,-3.29125 -0.8926,-5.8125 -2.6788,-7.56125" style="fill:#0f0b0b"/>
   <path d="m 2935.2007,964.32582 c 0.1025,-1.22 0.4513,-2.11375 1.0462,-2.685 0.5963,-0.57 1.335,-0.855 2.2188,-0.855 0.96,0 1.725,0.32 2.2938,0.965 0.5712,0.64125 0.8674,1.5 0.8937,2.575 l -6.4525,0 z m 10.5912,-6.145 c -1.7862,-1.75 -4.3175,-2.62625 -7.5949,-2.62625 -3.4451,0 -6.0938,1.00625 -7.9501,3.01875 -1.8562,2.0125 -2.7862,4.9 -2.7862,8.6625 0,3.64375 1.0025,6.45375 3.0075,8.42625 2.0025,1.9725 4.8162,2.96 8.44,2.96 1.74,0 3.2375,-0.11875 4.4925,-0.355 1.2475,-0.23375 2.455,-0.65625 3.6275,-1.26625 l -1.155,-5.02125 c -0.8513,0.3475 -1.6613,0.615 -2.425,0.79125 -1.1075,0.25625 -2.3187,0.385 -3.6388,0.385 -1.4462,0 -2.5899,-0.35375 -3.4274,-1.06125 -0.8388,-0.70875 -1.2838,-1.68625 -1.335,-2.93125 l 13.4225,0 0,-3.42125 c 0,-3.29125 -0.8926,-5.8125 -2.6776,-7.56125" style="fill:#0f0b0b"/>
  </g>
 </g>
</g>
</svg>