<?xml version="1.0" encoding="UTF-8" standalone="no"?>
<!DOCTYPE svg PUBLIC "-//W3C//DTD SVG 1.1//EN" "http://www.w3.org/Graphics/SVG/1.1/DTD/svg11.dtd">
<svg width="100%" height="100%" viewBox="0 0 3840 2160" version="1.1" xmlns="http://www.w3.org/2000/svg" xmlns:xlink="http://www.w3.org/1999/xlink" xml:space="preserve" xmlns:serif="http://www.serif.com/" style="fill-rule:evenodd;clip-rule:evenodd;stroke-linejoin:round;stroke-miterlimit:2;">
    <g>
        <path d="M2629,463L2628,766L2629,766L2629,643C2629,623.777 2625.55,600.707 2630,582C2643.22,585.209 2659.8,582.667 2673.41,582.667L3170.92,582.667C3189.52,582.667 3214.12,586.913 3232,582L3232,760L3233,1220L3658,1221L3657.67,1134.33L3657.67,833L3658,767L3626,766L3351,766L3351,582L3264,582C3257.41,582 3238.44,585.23 3233.6,580.397C3228.77,575.563 3232,556.587 3232,550L3232,463L2629,463Z" style="fill:rgb(191,191,191);fill-rule:nonzero;"/>
        <path d="M3232,463L3232,581L3233,581L3233,499L3232,463M2628,464L2629,465L2628,464M2628,466L2629,467L2628,466M2628,468L2629,469L2628,468M2628,470L2629,471L2628,470M2628,472L2629,473L2628,472M2628,474L2629,475L2628,474M2628,476L2629,477L2628,476M2628,478L2629,479L2628,478M2628,480L2629,481L2628,480M2628,482L2629,483L2628,482M2628,484L2629,485L2628,484M2628,486L2629,487L2628,486M2628,488L2629,489L2628,488M2628,490L2629,491L2628,490M2628,492L2629,493L2628,492M2628,494L2629,495L2628,494M2628,496L2629,497L2628,496M2628,498L2629,499L2628,498M2628,500L2629,501L2628,500M2628,502L2629,503L2628,502M2628,504L2629,505L2628,504M2628,506L2629,507L2628,506M2628,508L2629,509L2628,508M2628,510L2629,511L2628,510M2628,512L2629,513L2628,512M2628,514L2629,515L2628,514M2628,516L2629,517L2628,516M2628,518L2629,519L2628,518M2628,520L2629,521L2628,520M2628,522L2629,523L2628,522M2628,524L2629,525L2628,524M2628,526L2629,527L2628,526M2628,528L2629,529L2628,528M2628,530L2629,531L2628,530M2628,532L2629,533L2628,532M2628,534L2629,535L2628,534M2628,536L2629,537L2628,536M2628,538L2629,539L2628,538M2628,540L2629,541L2628,540M2628,542L2629,543L2628,542M2628,544L2629,545L2628,544M2628,546L2629,547L2628,546M2628,548L2629,549L2628,548M2628,550L2629,551L2628,550M2628,552L2629,553L2628,552M2628,554L2629,555L2628,554M2628,556L2629,557L2628,556M2628,558L2629,559L2628,558M2628,560L2629,561L2628,560M2628,562L2629,563L2628,562M2628,564L2629,565L2628,564M2628,566L2629,567L2628,566M2628,568L2629,569L2628,568M2628,570L2629,571L2628,570M2628,572L2629,573L2628,572M2628,574L2629,575L2628,574M2628,576L2629,577L2628,576M2628,578L2629,579L2628,578M2628.33,580.667L2628.67,581.333L2628.33,580.667M3235,581L3236,582L3235,581M3237,581L3238,582L3237,581M3239,581L3240,582L3239,581M3241,581L3242,582L3241,581M3243,581L3244,582L3243,581M3245,581L3246,582L3245,581M3247,581L3248,582L3247,581M3249,581L3250,582L3249,581M3251,581L3252,582L3251,581M3253,581L3254,582L3253,581M3255,581L3256,582L3255,581M3257,581L3258,582L3257,581M3259,581L3260,582L3259,581M3261,581L3262,582L3261,581M3263,581L3264,582L3263,581M3265,581L3266,582L3265,581M3267,581L3268,582L3267,581M3269,581L3270,582L3269,581M3271,581L3272,582L3271,581M3273,581L3274,582L3273,581M3275,581L3276,582L3275,581M3277,581L3278,582L3277,581M3279,581L3280,582L3279,581M3281,581L3282,582L3281,581M3283,581L3284,582L3283,581M3285,581L3286,582L3285,581M3287,581L3288,582L3287,581M3289,581L3290,582L3289,581M3291,581L3292,582L3291,581M3293,581L3294,582L3293,581M3295,581L3296,582L3295,581M3297,581L3298,582L3297,581M3299,581L3300,582L3299,581M3301,581L3302,582L3301,581M3303,581L3304,582L3303,581M3305,581L3306,582L3305,581M3307,581L3308,582L3307,581M3309,581L3310,582L3309,581M3311,581L3312,582L3311,581M3313,581L3314,582L3313,581M3315,581L3316,582L3315,581M3317,581L3318,582L3317,581M3319,581L3320,582L3319,581M3321,581L3322,582L3321,581M3323,581L3324,582L3323,581M3325,581L3326,582L3325,581M3327,581L3328,582L3327,581M3329,581L3330,582L3329,581M3331,581L3332,582L3331,581M3333,581L3334,582L3333,581M3335,581L3336,582L3335,581M3337,581L3338,582L3337,581M3339,581L3340,582L3339,581M3341,581L3342,582L3341,581M3343,581L3344,582L3343,581M3345,581L3346,582L3345,581M3347,581L3348,582L3347,581M3349,581L3350,582L3349,581Z" style="fill:rgb(191,191,191);fill-rule:nonzero;"/>
        <path d="M2630,582L2629,613L2629,675L2628,874L2628,1523L2036,1523L2024.6,1524.03L2023,1534L2023,1674L2629,1674L2629,1524L3404,1523L3641,1523L3656.97,1521.4L3658,1500L3658,1221L3233,1220L3232,582C3197.67,586.186 3160.53,582.333 3125.92,582.333L2724.25,582.333C2693.68,582.333 2660.26,586.167 2630,582Z" style="fill:rgb(191,191,191);fill-rule:nonzero;"/>
        <path d="M2635,582L2636,583L2635,582M2640,582L2641,583L2640,582M2645,582L2646,583L2645,582M2650,582L2651,583L2650,582M2655,582L2656,583L2655,582M2660,582L2661,583L2660,582M2665,582L2666,583L2665,582M2670,582L2671,583L2670,582M2675,582L2676,583L2675,582M2680,582L2681,583L2680,582M2685,582L2686,583L2685,582M2690,582L2691,583L2690,582M2695,582L2696,583L2695,582M2700,582L2701,583L2700,582M2705,582L2706,583L2705,582M2710,582L2711,583L2710,582M2715,582L2716,583L2715,582M2720,582L2721,583L2720,582M2725,582L2726,583L2725,582M2730,582L2731,583L2730,582M2735,582L2736,583L2735,582M2740,582L2741,583L2740,582M2745,582L2746,583L2745,582M2750,582L2751,583L2750,582M2755,582L2756,583L2755,582M2760,582L2761,583L2760,582M2765,582L2766,583L2765,582M2770,582L2771,583L2770,582M2775,582L2776,583L2775,582M2780,582L2781,583L2780,582M2785,582L2786,583L2785,582M2790,582L2791,583L2790,582M2795,582L2796,583L2795,582M2800,582L2801,583L2800,582M2805,582L2806,583L2805,582M2810,582L2811,583L2810,582M2815,582L2816,583L2815,582M2820,582L2821,583L2820,582M2825,582L2826,583L2825,582M2830,582L2831,583L2830,582M2835,582L2836,583L2835,582M2840,582L2841,583L2840,582M2845,582L2846,583L2845,582M2850,582L2851,583L2850,582M2855,582L2856,583L2855,582M2860,582L2861,583L2860,582M2865,582L2866,583L2865,582M2870,582L2871,583L2870,582M2875,582L2876,583L2875,582M2880,582L2881,583L2880,582M2885,582L2886,583L2885,582M2890,582L2891,583L2890,582M2895,582L2896,583L2895,582M2900,582L2901,583L2900,582M2905,582L2906,583L2905,582M2910,582L2911,583L2910,582M2915,582L2916,583L2915,582M2920,582L2921,583L2920,582M2925,582L2926,583L2925,582M2930,582L2931,583L2930,582M2935,582L2936,583L2935,582M2940,582L2941,583L2940,582M2945,582L2946,583L2945,582M2950,582L2951,583L2950,582M2955,582L2956,583L2955,582M2960,582L2961,583L2960,582M2965,582L2966,583L2965,582M2970,582L2971,583L2970,582M2975,582L2976,583L2975,582M2980,582L2981,583L2980,582M2985,582L2986,583L2985,582M2990,582L2991,583L2990,582M2995,582L2996,583L2995,582M3000,582L3001,583L3000,582M3005,582L3006,583L3005,582M3010,582L3011,583L3010,582M3015,582L3016,583L3015,582M3020,582L3021,583L3020,582M3025,582L3026,583L3025,582M3030,582L3031,583L3030,582M3035,582L3036,583L3035,582M3040,582L3041,583L3040,582M3045,582L3046,583L3045,582M3050,582L3051,583L3050,582M3055,582L3056,583L3055,582M3060,582L3061,583L3060,582M3065,582L3066,583L3065,582M3070,582L3071,583L3070,582M3075,582L3076,583L3075,582M3080,582L3081,583L3080,582M3085,582L3086,583L3085,582M3090,582L3091,583L3090,582M3095,582L3096,583L3095,582M3100,582L3101,583L3100,582M3105,582L3106,583L3105,582M3110,582L3111,583L3110,582M3115,582L3116,583L3115,582M3120,582L3121,583L3120,582M3125,582L3126,583L3125,582M3130,582L3131,583L3130,582M3135,582L3136,583L3135,582M3140,582L3141,583L3140,582M3145,582L3146,583L3145,582M3150,582L3151,583L3150,582M3155,582L3156,583L3155,582M3160,582L3161,583L3160,582M3165,582L3166,583L3165,582M3170,582L3171,583L3170,582M3175,582L3176,583L3175,582M3180,582L3181,583L3180,582M3185,582L3186,583L3185,582M3190,582L3191,583L3190,582M3195,582L3196,583L3195,582M3200,582L3201,583L3200,582M3205,582L3206,583L3205,582M3210,582L3211,583L3210,582M3215,582L3216,583L3215,582M3220,582L3221,583L3220,582M3225,582L3226,583L3225,582M3351.33,582.667L3351.67,583.333L3351.33,582.667M3351,585L3352,586L3351,585M3232,586L3233,587L3232,586M3351,587L3352,588L3351,587M3351,589L3352,590L3351,589M3351,591L3352,592L3351,591M3351,593L3352,594L3351,593M3351,595L3352,596L3351,595M3351,597L3352,598L3351,597M3351,599L3352,600L3351,599M3351,601L3352,602L3351,601M3351,603L3352,604L3351,603M3351,605L3352,606L3351,605M3351,607L3352,608L3351,607M3351,609L3352,610L3351,609M3351,611L3352,612L3351,611M3351,613L3352,614L3351,613M3351,615L3352,616L3351,615M3351,617L3352,618L3351,617M3351,619L3352,620L3351,619M3351,621L3352,622L3351,621M3351,623L3352,624L3351,623M3351,625L3352,626L3351,625M3351,627L3352,628L3351,627M3351,629L3352,630L3351,629M3351,631L3352,632L3351,631M3351,633L3352,634L3351,633M3351,635L3352,636L3351,635M3351,637L3352,638L3351,637M3351,639L3352,640L3351,639M3351,641L3352,642L3351,641M3351,643L3352,644L3351,643M3351,645L3352,646L3351,645M3351,647L3352,648L3351,647M3351,649L3352,650L3351,649M3351,651L3352,652L3351,651M3351,653L3352,654L3351,653M3351,655L3352,656L3351,655M3351,657L3352,658L3351,657M3351,659L3352,660L3351,659M3351,661L3352,662L3351,661M3351,663L3352,664L3351,663M3351,665L3352,666L3351,665M3351,667L3352,668L3351,667M3351,669L3352,670L3351,669M3351,671L3352,672L3351,671M3351,673L3352,674L3351,673M3351,675L3352,676L3351,675M3351,677L3352,678L3351,677M3351,679L3352,680L3351,679M3351,681L3352,682L3351,681M3351,683L3352,684L3351,683M3351,685L3352,686L3351,685M3351,687L3352,688L3351,687M3351,689L3352,690L3351,689M3351,691L3352,692L3351,691M3351,693L3352,694L3351,693M3351,695L3352,696L3351,695M3351,697L3352,698L3351,697M3351,699L3352,700L3351,699M3351,701L3352,702L3351,701M3351,703L3352,704L3351,703M3351,705L3352,706L3351,705M3351,707L3352,708L3351,707M3351,709L3352,710L3351,709M3351,711L3352,712L3351,711M3351,713L3352,714L3351,713M3351,715L3352,716L3351,715M3351,717L3352,718L3351,717M3351,719L3352,720L3351,719M3351,721L3352,722L3351,721M3351,723L3352,724L3351,723M3351,725L3352,726L3351,725M3351,727L3352,728L3351,727M3351,729L3352,730L3351,729M3351,731L3352,732L3351,731M3351,733L3352,734L3351,733M3351,735L3352,736L3351,735M3351,737L3352,738L3351,737M3351,739L3352,740L3351,739M3351,741L3352,742L3351,741M3351,743L3352,744L3351,743M3351,745L3352,746L3351,745M3351,747L3352,748L3351,747M3351,749L3352,750L3351,749M3351,751L3352,752L3351,751M3351,753L3352,754L3351,753M3351,755L3352,756L3351,755M3351,757L3352,758L3351,757M3351,759L3352,760L3351,759M3351,761L3352,762L3351,761M3351,763L3352,764L3351,763M3351,765L3352,766L3351,765M3657,766L3658,767L3657,766M3657,768L3658,769L3657,768M3657,770L3658,771L3657,770M3657,772L3658,773L3657,772M3657,774L3658,775L3657,774M3657,776L3658,777L3657,776M3657,778L3658,779L3657,778M3657,780L3658,781L3657,780M3657,782L3658,783L3657,782M3657,784L3658,785L3657,784M3657,786L3658,787L3657,786M3657,788L3658,789L3657,788Z" style="fill:rgb(191,191,191);fill-rule:nonzero;"/>
        <path d="M1493,1274L1492,1274L1492,808L1357,808C1353.53,808 1348.46,807.105 1345.38,809.028C1337.06,814.229 1330.62,831.637 1325.6,840C1310.16,865.722 1294.44,891.273 1279,917C1239.09,983.511 1198.31,1049.49 1158.4,1116C1146.18,1136.37 1133.77,1156.63 1121.55,1177C1115.74,1186.68 1108,1196.44 1104,1207L1103,1207C1102.44,1106.42 1104.66,1005.73 1102.88,905.166C1102.46,881.174 1103.31,857.158 1102.88,833.166C1102.79,828.233 1105.5,812.263 1101.4,809.027C1097.69,806.107 1087.52,808 1083,808L1033,808C1010.36,808 987.995,815.301 966,820.349C929.031,828.833 892.036,837.244 855,845.424C836.458,849.52 816.903,856.456 798,858L798,916C827.035,916.24 856.005,922.579 885,924C892.399,924.363 913.06,923.162 918.397,928.599C923.441,933.739 920,954.017 920,961L920,1424L1060,1424C1063.7,1424 1069.34,1425.02 1072.62,1422.97C1080.63,1417.97 1086.33,1401.92 1091.32,1394C1107.31,1368.62 1122.54,1342.71 1138,1317C1174.57,1256.18 1211.93,1195.84 1248.45,1135C1266.81,1104.41 1290.88,1073.73 1305,1041L1306,1041L1306,1424L1463,1424C1467.45,1424 1473.87,1425.15 1477.91,1422.97C1489.37,1416.81 1500.03,1396.35 1507.87,1386C1529.5,1357.44 1551.73,1329.33 1573.65,1301C1639.5,1215.9 1707.32,1132.07 1771.87,1046C1805.33,1001.39 1844.54,950.873 1841.96,892C1838.61,815.602 1757.2,770.976 1689,798.604C1675.02,804.265 1654.95,813.85 1646.6,827.001C1643.58,831.773 1645,839.575 1645,845L1645,1012C1645,1028.73 1649.22,1051.98 1644.49,1068C1642.46,1074.85 1635.61,1081.36 1631.37,1087C1622.15,1099.3 1613.09,1111.71 1603.87,1124C1579.68,1156.25 1555.82,1188.75 1531.63,1221C1519,1237.83 1502.38,1255.17 1493,1274M2447,1253C2438.52,1254.51 2430.77,1260.12 2423,1263.69C2403.96,1272.44 2385.2,1281.72 2366,1290.14C2295.28,1321.15 2212.73,1335.06 2148,1282.54C2084.26,1230.82 2066.57,1141.96 2071.91,1064C2074.12,1031.74 2078.38,999.063 2091.15,969C2114.85,913.186 2165.6,864.046 2229,859L2229,1011C2229,1014.51 2227.91,1020.33 2230.03,1023.36C2232.99,1027.6 2241.48,1029.99 2246,1032.25C2260.23,1039.36 2274.68,1045.52 2290,1049.86C2324.81,1059.72 2366.21,1057.15 2397,1036.92C2445.25,1005.21 2453.66,937.46 2426.56,889C2383.26,811.545 2283.84,790 2202,790C2076.88,790 1946.56,842.439 1884.31,957C1871.45,980.669 1861.4,1005.85 1854.87,1032C1847.45,1061.74 1843.26,1093.33 1844.01,1124C1846.88,1241.04 1911.52,1362.62 2024,1408.55C2099.66,1439.44 2189.54,1438.74 2269,1425.41C2315.01,1417.7 2360.32,1402.86 2403,1384.14C2413.37,1379.59 2423.8,1375.18 2434,1370.26C2437.3,1368.66 2442.77,1367.49 2444.97,1364.36C2449.17,1358.37 2446,1341.23 2446,1334C2446,1308.68 2441.14,1277.61 2447,1253Z" style="fill:rgb(191,191,191);fill-rule:nonzero;"/>
        <path d="M3657,790L3658,791L3657,790M3657,792L3658,793L3657,792Z" style="fill:rgb(191,191,191);fill-rule:nonzero;"/>
        <path d="M29,867L29,925L130,925L130,1600L128.972,1614.7L107,1621.71L38,1639L38,1697L434,1697L434,1639C409.617,1633.97 385.17,1628.34 361,1622.37C354.383,1620.74 339.503,1620.47 334.742,1615.41C331.992,1612.49 333,1606.66 333,1603L333,1433C333,1429.7 332.006,1424.21 334.028,1421.36C335.925,1418.68 340.243,1419.92 343,1419.99C351.521,1420.18 360.539,1420.29 369,1421.29C401.939,1425.17 436.924,1425.18 470,1422.91C559.19,1416.8 645.175,1379.67 703.728,1311C785.792,1214.76 798.507,1062.58 750.424,948C722.765,882.085 671.466,824.536 601,804.427C535.881,785.845 470.889,801.926 412,831.37C385.174,844.783 360.438,864.177 333,876L333,794L269,794.464L207,813.28L78,852.424L29,867Z" style="fill:rgb(191,191,191);fill-rule:nonzero;"/>
        <path d="M3657,794L3658,795L3657,794M3657,796L3658,797L3657,796M3657,798L3658,799L3657,798M3657,800L3658,801L3657,800M3657,802L3658,803L3657,802M3657,804L3658,805L3657,804M3657,806L3658,807L3657,806M3657,808L3658,809L3657,808M3657,810L3658,811L3657,810M3657,812L3658,813L3657,812M3657,814L3658,815L3657,814M3657,816L3658,817L3657,816M3657,818L3658,819L3657,818M3657,820L3658,821L3657,820M3657,822L3658,823L3657,822M3657,824L3658,825L3657,824M3657,826L3658,827L3657,826M3657,828L3658,829L3657,828M3657,830L3658,831L3657,830M3657,832L3658,833L3657,832M3657,834L3658,835L3657,834M3657,836L3658,837L3657,836M3657,838L3658,839L3657,838M3657,840L3658,841L3657,840M3657,842L3658,843L3657,842M3657,844L3658,845L3657,844M3657,846L3658,847L3657,846M3657,848L3658,849L3657,848M3657,850L3658,851L3657,850M3657,852L3658,853L3657,852M3657,854L3658,855L3657,854M3657,856L3658,857L3657,856M3657,858L3658,859L3657,858M3657,860L3658,861L3657,860M3657,862L3658,863L3657,862M3657,864L3658,865L3657,864M3657,866L3658,867L3657,866M3657,868L3658,869L3657,868M3657,870L3658,871L3657,870M3657,872L3658,873L3657,872M3657,874L3658,875L3657,874M3657,876L3658,877L3657,876M3657,878L3658,879L3657,878M3657,880L3658,881L3657,880M3657,882L3658,883L3657,882M3657,884L3658,885L3657,884M3657,886L3658,887L3657,886M3657,888L3658,889L3657,888M3657,890L3658,891L3657,890M3657,892L3658,893L3657,892M3657,894L3658,895L3657,894M3657,896L3658,897L3657,896M3657,898L3658,899L3657,898M3657,900L3658,901L3657,900M3657,902L3658,903L3657,902M3657,904L3658,905L3657,904M3657,906L3658,907L3657,906M3657,908L3658,909L3657,908M3657,910L3658,911L3657,910M3657,912L3658,913L3657,912M3657,914L3658,915L3657,914M3657,916L3658,917L3657,916M3657,918L3658,919L3657,918M3657,920L3658,921L3657,920M3657,922L3658,923L3657,922M3657,924L3658,925L3657,924Z" style="fill:rgb(191,191,191);fill-rule:nonzero;"/>
        <path d="M388,925.424C374.268,927.228 360.644,928.837 347,931.389C343.054,932.127 335.532,931.942 333.603,936.228C330.661,942.768 333,954.872 333,962L333,1315C333,1322.61 330.232,1336.83 333.603,1343.68C335.416,1347.36 342.667,1346 346,1346C358.521,1346 371.534,1347.02 384,1345.83C413.963,1342.98 443.477,1337.75 470,1322.57C545.793,1279.19 567.378,1178.21 559.235,1096.91C555.912,1063.73 551.903,1031.35 536.73,1001C509.564,946.668 447.764,917.574 388,925.424Z" style="fill:white;fill-rule:nonzero;"/>
        <path d="M3657,926L3658,927L3657,926M3657,928L3658,929L3657,928M3657,930L3658,931L3657,930M3657,932L3658,933L3657,932M3657,934L3658,935L3657,934M3657,936L3658,937L3657,936M3657,938L3658,939L3657,938M3657,940L3658,941L3657,940M3657,942L3658,943L3657,942M3657,944L3658,945L3657,944M3657,946L3658,947L3657,946M3657,948L3658,949L3657,948M3657,950L3658,951L3657,950M3657,952L3658,953L3657,952M3657,954L3658,955L3657,954M3657,956L3658,957L3657,956M3657,958L3658,959L3657,958M3657,960L3658,961L3657,960M3657,962L3658,963L3657,962M3657,964L3658,965L3657,964M3657,966L3658,967L3657,966M3657,968L3658,969L3657,968M3657,970L3658,971L3657,970M3657,972L3658,973L3657,972M3657,974L3658,975L3657,974M3657,976L3658,977L3657,976M3657,978L3658,979L3657,978M3657,980L3658,981L3657,980M3657,982L3658,983L3657,982M3657,984L3658,985L3657,984M3657,986L3658,987L3657,986M3657,988L3658,989L3657,988M3657,990L3658,991L3657,990M3657,992L3658,993L3657,992M3657,994L3658,995L3657,994M3657,996L3658,997L3657,996M3657,998L3658,999L3657,998M3657,1000L3658,1001L3657,1000M3657,1002L3658,1003L3657,1002M3657,1004L3658,1005L3657,1004M3657,1006L3658,1007L3657,1006M3657,1008L3658,1009L3657,1008M3657,1010L3658,1011L3657,1010M3657,1012L3658,1013L3657,1012M3657,1014L3658,1015L3657,1014M3657,1016L3658,1017L3657,1016M3657,1018L3658,1019L3657,1018M3657,1020L3658,1021L3657,1020M3657,1022L3658,1023L3657,1022M3657,1024L3658,1025L3657,1024M3657,1026L3658,1027L3657,1026M3657,1028L3658,1029L3657,1028M3657,1030L3658,1031L3657,1030M3657,1032L3658,1033L3657,1032M3657,1034L3658,1035L3657,1034M3657,1036L3658,1037L3657,1036M3657,1038L3658,1039L3657,1038M3657,1040L3658,1041L3657,1040M3657,1042L3658,1043L3657,1042M3657,1044L3658,1045L3657,1044M3657,1046L3658,1047L3657,1046M3657,1048L3658,1049L3657,1048M3657,1050L3658,1051L3657,1050M3657,1052L3658,1053L3657,1052M3657,1054L3658,1055L3657,1054M3657,1056L3658,1057L3657,1056M3657,1058L3658,1059L3657,1058M3657,1060L3658,1061L3657,1060M3657,1062L3658,1063L3657,1062M3657,1064L3658,1065L3657,1064M3657,1066L3658,1067L3657,1066M3657,1068L3658,1069L3657,1068M3657,1070L3658,1071L3657,1070M3657,1072L3658,1073L3657,1072M3657,1074L3658,1075L3657,1074M3657,1076L3658,1077L3657,1076M3657,1078L3658,1079L3657,1078M3657,1080L3658,1081L3657,1080M3657,1082L3658,1083L3657,1082M3657,1084L3658,1085L3657,1084M3657,1086L3658,1087L3657,1086M3657,1088L3658,1089L3657,1088M3657,1090L3658,1091L3657,1090M3657,1092L3658,1093L3657,1092M3657,1094L3658,1095L3657,1094M3657,1096L3658,1097L3657,1096M3657,1098L3658,1099L3657,1098M3657,1100L3658,1101L3657,1100M3657,1102L3658,1103L3657,1102M3657,1104L3658,1105L3657,1104M3657,1106L3658,1107L3657,1106M3657,1108L3658,1109L3657,1108M3657,1110L3658,1111L3657,1110M3657,1112L3658,1113L3657,1112M3657,1114L3658,1115L3657,1114M3657,1116L3658,1117L3657,1116M3657,1118L3658,1119L3657,1118M3657,1120L3658,1121L3657,1120M3657,1122L3658,1123L3657,1122M3657,1124L3658,1125L3657,1124M3657,1126L3658,1127L3657,1126M3657,1128L3658,1129L3657,1128M3657,1130L3658,1131L3657,1130M3657,1132L3658,1133L3657,1132M3657,1134L3658,1135L3657,1134M3657,1136L3658,1137L3657,1136M3657,1138L3658,1139L3657,1138M3657,1140L3658,1141L3657,1140M3657,1142L3658,1143L3657,1142M3657,1144L3658,1145L3657,1144M3657,1146L3658,1147L3657,1146M3657,1148L3658,1149L3657,1148M3657,1150L3658,1151L3657,1150M3657,1152L3658,1153L3657,1152M3657,1154L3658,1155L3657,1154M3657,1156L3658,1157L3657,1156M3657,1158L3658,1159L3657,1158M3657,1160L3658,1161L3657,1160M3657,1162L3658,1163L3657,1162M3657,1164L3658,1165L3657,1164M3657,1166L3658,1167L3657,1166M3657,1168L3658,1169L3657,1168M3657,1170L3658,1171L3657,1170M3657,1172L3658,1173L3657,1172M3657,1174L3658,1175L3657,1174M3657,1176L3658,1177L3657,1176M3657,1178L3658,1179L3657,1178M3657,1180L3658,1181L3657,1180M3657,1182L3658,1183L3657,1182M3657,1184L3658,1185L3657,1184M3657,1186L3658,1187L3657,1186M3657,1188L3658,1189L3657,1188M3657,1190L3658,1191L3657,1190M3657,1192L3658,1193L3657,1192M3657,1194L3658,1195L3657,1194M3657,1196L3658,1197L3657,1196M3657,1198L3658,1199L3657,1198M3657,1200L3658,1201L3657,1200M3657,1202L3658,1203L3657,1202M3657,1204L3658,1205L3657,1204M3657,1206L3658,1207L3657,1206M3657,1208L3658,1209L3657,1208M3657,1210L3658,1211L3657,1210M3657,1212L3658,1213L3657,1212M3657,1214L3658,1215L3657,1214M3657,1216L3658,1217L3657,1216M3657,1218L3658,1219L3657,1218M3658,1220L3658,1501L3656.4,1521.4L3636,1523L3352,1523L3352,1524C3467,1524 3582.09,1523 3697,1523L3782,1523C3787.52,1523 3806.37,1525.94 3809.97,1521.4C3813.24,1517.27 3811,1505.09 3811,1500L3811,1220L3658,1220M2627,1522L2628,1523L2627,1522Z" style="fill:rgb(191,191,191);fill-rule:nonzero;"/>
        <path d="M3810,1522L3811,1523L3810,1522Z" style="fill:rgb(191,191,191);fill-rule:nonzero;"/>
        <path d="M2023,1523L2024,1524L2023,1523Z" style="fill:rgb(191,191,191);fill-rule:nonzero;"/>
        <path d="M3233,1523L3233,1524L3352,1524L3316,1523L3233,1523Z" style="fill:rgb(191,191,191);fill-rule:nonzero;"/>
        <path d="M2024,1674L2024,1675L2628,1675L2611,1674L2024,1674Z" style="fill:rgb(191,191,191);fill-rule:nonzero;"/>
    </g>
</svg>
