<?xml version="1.0" encoding="UTF-8" standalone="no"?>
<!DOCTYPE svg PUBLIC "-//W3C//DTD SVG 1.1//EN" "http://www.w3.org/Graphics/SVG/1.1/DTD/svg11.dtd">
<svg width="100%" height="100%" viewBox="0 0 455 225" version="1.1" xmlns="http://www.w3.org/2000/svg" xmlns:xlink="http://www.w3.org/1999/xlink" xml:space="preserve" xmlns:serif="http://www.serif.com/" style="fill-rule:evenodd;clip-rule:evenodd;stroke-linejoin:round;stroke-miterlimit:2;">
    <path d="M0,225L229.87,225L454.83,0L0,0L0,225" style="fill:rgb(191,191,191);"/>
    <path d="M269.92,45L225,45L225.15,150.65L186.035,44.96L147.25,44.96L113.86,133.225C110.31,110.765 87.09,103.015 68.82,97.21C56.755,93.335 43.95,87.635 44.08,81.335C44.18,76.165 50.93,71.37 64.345,72.085C73.345,72.57 81.295,73.295 97.11,80.935L112.66,53.835C98.24,46.495 78.3,41.86 61.95,41.845L61.85,41.845C42.785,41.845 26.91,48.02 17.07,58.195C10.21,65.295 6.51,74.325 6.36,84.31C6.11,98.05 11.145,107.79 21.725,115.575C30.665,122.125 42.1,126.375 52.175,129.495C64.6,133.345 74.75,136.695 74.625,143.825C74.525,146.425 73.545,148.855 71.675,150.815C68.575,154.015 63.825,155.215 57.25,155.345C44.565,155.615 35.165,153.62 20.185,144.765L6.35,172.215C21.315,180.725 37.2,184.995 55.25,184.995L59.31,184.965C75.02,184.68 87.77,180.915 97.9,172.765C98.48,172.3 99,171.83 99.54,171.355L97.84,180.115L135.74,179.995L142.54,162.585C149.69,165.025 157.82,166.375 166.45,166.375C174.86,166.375 182.77,165.095 189.785,162.795L194.525,179.995L262.525,180.06L262.69,140.37L277.16,140.37C312.135,140.37 332.81,122.57 332.81,92.72C332.799,59.475 312.7,44.995 269.92,44.995L269.92,45ZM166.45,135.31C161.225,135.31 156.325,134.4 152.11,132.8L166.29,88.025L166.565,88.025L180.515,132.925C176.315,134.425 171.53,135.31 166.445,135.31L166.45,135.31ZM272.55,109.585L262.68,109.585L262.68,73.5L272.555,73.5C285.705,73.5 296.205,77.88 296.205,91.31C296.194,105.21 285.705,109.585 272.555,109.585" style="fill:white;"/>
</svg>
