<?xml version="1.0" encoding="UTF-8" standalone="no"?>
<!DOCTYPE svg PUBLIC "-//W3C//DTD SVG 1.1//EN" "http://www.w3.org/Graphics/SVG/1.1/DTD/svg11.dtd">
<svg width="100%" height="100%" viewBox="0 0 3603 512" version="1.1" xmlns="http://www.w3.org/2000/svg" xmlns:xlink="http://www.w3.org/1999/xlink" xml:space="preserve" xmlns:serif="http://www.serif.com/" style="fill-rule:evenodd;clip-rule:evenodd;stroke-linejoin:round;stroke-miterlimit:2;">
    <path d="M3243,46.424C3219.59,49.498 3196.29,50.259 3173,55.211C3111.05,68.384 3053.15,95.507 3006,138.17C2989.82,152.813 2976.17,170.519 2964.68,189C2955.7,203.446 2949.32,218.898 2944,235C2914.76,323.587 2963.1,414.191 3035,465.573C3061.14,484.251 3094.12,504.721 3126,511.482C3141.46,514.761 3160.2,512 3176,512L3358,512C3371.29,512 3385.85,513.682 3399,511.79C3425.53,507.974 3456.08,488.873 3478,474.333C3512.84,451.22 3543.63,422.586 3564.57,386C3596.82,329.651 3598.53,259.746 3568.74,202C3523.55,114.379 3426.46,67.259 3333,51.586C3304.47,46.803 3271.87,42.634 3243,46.424M1214,53.594C1187.74,54.543 1161.96,55.741 1136,60.424C1027.9,79.922 898.704,153.208 888.914,275C887.492,292.691 887.424,310.475 890.805,328C895.325,351.432 904.364,373.684 916.811,394C932.47,419.559 953.535,441.322 977,459.789C1003.82,480.9 1040.23,503.844 1074,511.471C1086.91,514.388 1102.77,512 1116,512L1203,512C1252.47,512 1302.6,514.38 1352,511.96C1360.17,511.56 1368.57,507.013 1376,503.85C1392.9,496.653 1409.25,488.471 1425,479C1512.5,426.391 1572.41,320.106 1526.69,220C1474.7,106.137 1333.74,49.267 1214,53.594M46,67L46,133L122,133C129.48,133 145.197,130.013 151.621,134.028C158.553,138.361 163.623,153.819 167.248,161C177.795,181.893 189.522,202.201 200.258,223C235.426,291.126 272.219,358.563 308.691,426C319.295,445.606 329.817,465.286 340.219,485C344.033,492.228 347.995,505.246 354.39,510.397C358.59,513.779 367.908,512 373,512L422,512C486.456,512 551.61,514.802 615.996,511.981C626.927,511.502 633.671,488.433 638.424,480C658.052,445.178 676.127,409.354 694.781,374C725.96,314.91 756.748,255.432 789.139,197C797.741,181.483 805.537,165.518 814.139,150C816.91,145.002 819.339,136.178 824.379,133.028C830.803,129.013 846.52,132 854,132L931,132L931,67L612,67L612,132L695,132L625.781,263L550,406L511.85,339L429.719,196L394,133L508,132L508,67L46,67M1572,67L1572,133L1678,133L1678,449L1566,449L1566,512L2209,512L2209,309L2139,309C2138.87,325.223 2135.49,341.666 2130.33,357C2126.21,369.269 2120.28,380.516 2112.71,391C2060.09,463.783 1966.36,450 1888,450L1888,133L1993,132L1993,67L1572,67M2094,67L2094,133L2170,133C2177.48,133 2193.2,130.013 2199.62,134.028C2205.74,137.852 2209.12,149.873 2212.58,156C2223.87,176.035 2233.71,196.885 2244.86,217C2283.84,287.323 2319.16,359.677 2358.14,430C2367.99,447.764 2377.6,465.869 2386.75,484C2390.55,491.519 2394.99,505.035 2401.53,510.397C2405.66,513.783 2414.96,512 2420,512L2470,512C2534.46,512 2599.61,514.802 2664,511.981C2674.93,511.502 2681.67,488.433 2686.42,480C2705.85,445.535 2724.11,410.157 2742.26,375C2773.05,315.342 2804.59,255.718 2837.14,197C2845.74,181.483 2853.54,165.518 2862.14,150C2864.91,145.002 2867.34,136.178 2872.38,133.028C2878.8,129.013 2894.52,132 2902,132L2978,132L2978,67L2660,67L2660,132L2743,132L2656.31,295L2597,406L2561.28,343L2479.15,200L2441,133L2556,132L2556,67L2094,67Z" style="fill:rgb(191,191,191);fill-rule:nonzero;"/>
    <path d="M3249,117.428C3213.19,122.559 3187.28,148.745 3170,179C3135.95,238.602 3134.9,319.609 3161.58,382C3179.32,423.486 3217.29,466.819 3267,460.714C3305.16,456.027 3332.85,425.802 3349.25,393C3379.52,332.446 3379.92,255.927 3353.42,194C3336.01,153.32 3297.8,110.437 3249,117.428M1207,123.425C1164.07,128.871 1135.57,157.269 1116.75,195C1089.07,250.518 1088.55,321.769 1111.2,379C1128.12,421.734 1166.74,468.845 1218,462.715C1254.88,458.304 1281.65,432.051 1299.42,401C1332.74,342.782 1333.48,262.922 1307.42,202C1291.28,164.26 1253.72,117.498 1207,123.425Z" style="fill:white;fill-rule:nonzero;"/>
</svg>
