<svg xmlns="http://www.w3.org/2000/svg" xmlns:xlink="http://www.w3.org/1999/xlink" viewBox="0 0 500 493.33"><defs><style>.cls-1{isolation:isolate;}.cls-2{fill:#fff;}.cls-3{fill:url(#_ÂÁ_Ï_ÌÌ_È_ËÂÌÚ_3);}.cls-4{fill:url(#_ÂÁ_Ï_ÌÌ_È_ËÂÌÚ_3-2);}.cls-5{fill:#1c2c57;}.cls-6{fill:#006769;}.cls-7{fill:#58c4c5;}.cls-8{fill:#ffe9ae;}.cls-9{fill:url(#_ÂÁ_Ï_ÌÌ_È_ËÂÌÚ_7);}.cls-10{fill:#118c8c;}.cls-11{fill:none;}.cls-12{fill:#ffd874;}.cls-13{fill:url(#_ÂÁ_Ï_ÌÌ_È_ËÂÌÚ_17);}.cls-14{fill:#faa525;}.cls-15{fill:#f68b27;}.cls-16{fill:#004060;}.cls-17{fill:#fab08a;}.cls-18{fill:#52b8b9;}.cls-19{fill:#f79c82;}.cls-20{fill:#33aaa7;}.cls-21{fill:url(#_ÂÁ_Ï_ÌÌ_È_ËÂÌÚ_3-3);}.cls-22{fill:url(#_ÂÁ_Ï_ÌÌ_È_ËÂÌÚ_3-4);}.cls-23{fill:url(#_ÂÁ_Ï_ÌÌ_È_ËÂÌÚ_3-5);}.cls-24{fill:url(#_ÂÁ_Ï_ÌÌ_È_ËÂÌÚ_3-6);}.cls-25{mix-blend-mode:multiply;}.cls-26{fill:#b1e1ea;}.cls-27{fill:url(#_ÂÁ_Ï_ÌÌ_È_ËÂÌÚ_3-7);}.cls-28{fill:#a2d7c5;}.cls-29{fill:url(#_ÂÁ_Ï_ÌÌ_È_ËÂÌÚ_3-8);}.cls-30{fill:url(#_ÂÁ_Ï_ÌÌ_È_ËÂÌÚ_14);}.cls-31{fill:url(#_ÂÁ_Ï_ÌÌ_È_ËÂÌÚ_3-9);}.cls-32{fill:url(#_ÂÁ_Ï_ÌÌ_È_ËÂÌÚ_17-2);}.cls-33{fill:url(#_ÂÁ_Ï_ÌÌ_È_ËÂÌÚ_3-10);}</style><linearGradient id="_ÂÁ_Ï_ÌÌ_È_ËÂÌÚ_3" x1="357.31" y1="148.4" x2="440.21" y2="148.4" gradientUnits="userSpaceOnUse"><stop offset="0" stop-color="#d6ede5"/><stop offset="1" stop-color="#b1e1ea"/></linearGradient><linearGradient id="_ÂÁ_Ï_ÌÌ_È_ËÂÌÚ_3-2" x1="-31.86" y1="118.8" x2="89.19" y2="118.8" gradientTransform="translate(71.36)" xlink:href="#_ÂÁ_Ï_ÌÌ_È_ËÂÌÚ_3"/><linearGradient id="_ÂÁ_Ï_ÌÌ_È_ËÂÌÚ_7" x1="148.85" y1="121.75" x2="511.51" y2="582.53" gradientUnits="userSpaceOnUse"><stop offset="0" stop-color="#eaf6f3"/><stop offset="1" stop-color="#b1e1ea"/></linearGradient><linearGradient id="_ÂÁ_Ï_ÌÌ_È_ËÂÌÚ_17" x1="39.04" y1="146.28" x2="70.8" y2="146.28" gradientTransform="matrix(1.03, -0.15, -0.15, 0.99, 261.83, 63.58)" gradientUnits="userSpaceOnUse"><stop offset="0.22" stop-color="#d6ede5"/><stop offset="0.76" stop-color="#b1e1ea"/></linearGradient><linearGradient id="_ÂÁ_Ï_ÌÌ_È_ËÂÌÚ_3-3" x1="391.1" y1="305.19" x2="413.97" y2="305.19" xlink:href="#_ÂÁ_Ï_ÌÌ_È_ËÂÌÚ_3"/><linearGradient id="_ÂÁ_Ï_ÌÌ_È_ËÂÌÚ_3-4" x1="433.37" y1="299.18" x2="416.56" y2="341.22" xlink:href="#_ÂÁ_Ï_ÌÌ_È_ËÂÌÚ_3"/><linearGradient id="_ÂÁ_Ï_ÌÌ_È_ËÂÌÚ_3-5" x1="406.5" y1="288.43" x2="389.69" y2="330.48" xlink:href="#_ÂÁ_Ï_ÌÌ_È_ËÂÌÚ_3"/><linearGradient id="_ÂÁ_Ï_ÌÌ_È_ËÂÌÚ_3-6" x1="390.92" y1="282.21" x2="374.11" y2="324.25" xlink:href="#_ÂÁ_Ï_ÌÌ_È_ËÂÌÚ_3"/><linearGradient id="_ÂÁ_Ï_ÌÌ_È_ËÂÌÚ_3-7" x1="223.5" y1="50.39" x2="324.01" y2="50.39" gradientTransform="matrix(-1, 0, 0, 1, 641.02, 0)" xlink:href="#_ÂÁ_Ï_ÌÌ_È_ËÂÌÚ_3"/><linearGradient id="_ÂÁ_Ï_ÌÌ_È_ËÂÌÚ_3-8" x1="62.87" y1="50.18" x2="96.98" y2="50.18" gradientTransform="translate(94.38 -45.96) rotate(33.22)" xlink:href="#_ÂÁ_Ï_ÌÌ_È_ËÂÌÚ_3"/><linearGradient id="_ÂÁ_Ï_ÌÌ_È_ËÂÌÚ_14" x1="75.29" y1="55.84" x2="96.98" y2="55.84" gradientTransform="translate(94.38 -45.96) rotate(33.22)" gradientUnits="userSpaceOnUse"><stop offset="0.24" stop-color="#d6ede5"/><stop offset="0.48" stop-color="#cfebe6"/><stop offset="0.82" stop-color="#bde5e8"/><stop offset="1" stop-color="#b1e1ea"/></linearGradient><linearGradient id="_ÂÁ_Ï_ÌÌ_È_ËÂÌÚ_3-9" x1="257.15" y1="30.12" x2="299.32" y2="30.12" xlink:href="#_ÂÁ_Ï_ÌÌ_È_ËÂÌÚ_3"/><linearGradient id="_ÂÁ_Ï_ÌÌ_È_ËÂÌÚ_17-2" x1="257.42" y1="33.07" x2="307.1" y2="33.07" gradientTransform="matrix(1, 0, 0, 1, 0, 0)" xlink:href="#_ÂÁ_Ï_ÌÌ_È_ËÂÌÚ_17"/><linearGradient id="_ÂÁ_Ï_ÌÌ_È_ËÂÌÚ_3-10" x1="652.07" y1="330.35" x2="654.13" y2="330.35" gradientTransform="translate(-507.4)" xlink:href="#_ÂÁ_Ï_ÌÌ_È_ËÂÌÚ_3"/></defs><g class="cls-1"><g id="_ÎÓÈ_1" data-name="—ÎÓÈ_1"><rect class="cls-2" width="500" height="493.33"/><path class="cls-3" d="M357.51,150.13c-3,13.14,28,14.83,40.73,15a50.41,50.41,0,0,0,10.54-1c10.79-2.19,34.43-7.94,31.11-15.76-4.27-10.09-17.12-3.05-17.12-3.05s1.61-7.62-20.25-12.65-21.77,11.73-21.77,11.73S361.31,133.62,357.51,150.13Z"/><path class="cls-4" d="M39.5,129.67s85.91,8.51,113.94.92c5.34-1.45,8.58-7.31,6.44-12.4-1.14-2.71-3.7-5-9.38-6.61-6.61-1.86-12.36,1.46-16,4.56a2.79,2.79,0,0,1-4.46-1.4c-.78-2.48-2.65-5.16-6.91-6.71-6.3-2.29-15.23,3-20.49,6.8A2,2,0,0,1,99.4,113c.3-4.73-1.55-10.7-13.53-8.77S69.23,113,67.3,117.91a3.25,3.25,0,0,1-5,1.41c-2.93-2.3-7.45-4.14-12.93-.87C39.5,124.35,39.5,129.67,39.5,129.67Z"/><path class="cls-5" d="M158.44,197.55S147.54,132,100,121.34c-46.5,69.74,22.2,115.29,22.2,115.29Z"/><path class="cls-6" d="M100,121.34l-.48.73,31.75,71.62L84.59,179.27c.08.54.16,1.08.25,1.61l47.21,14.58,9.16,20.67,1.08-1.16L124,173.77h0l15.16-23.93c-.3-.43-.6-.87-.91-1.3l-15,23.62-22.43-50.6-.89-.22Z"/><path class="cls-7" d="M136.42,192.56S87.06,148.29,43.14,164C33.86,219.37,94,239.09,94,239.09l57.81-4.48Z"/><path class="cls-6" d="M94.79,167.22l.11,29.4L44.18,163.68l-1,.35c0,.22-.07.43-.1.65L70.2,182.32l-26.3,7.36c.06.26.13.5.2.75l.19.66,27.55-7.71,45.27,29.4L71.35,227.17l1.52,1.06,45.82-14.42,32.15,20.88,1-.08-.5-1.35L96.37,197.57l-.12-29.77Z"/><path class="cls-8" d="M134.89,224.25s-55-6.27-72.27,26.63c38.52,65.4,124.42,21,124.42,21Z"/><path class="cls-2" d="M62.62,250.88l.45.75,74.9,2.73-26.61,30.93,1.68.27,26.8-31.13,29.25,1.07L167.42,254l-56.95-2.07L89.23,229.29l-1.48.56,20.64,22L63,250.17l-.39.71Z"/><path class="cls-8" d="M343.05,255.54s7.79-66,54.78-78.89c49.75,67.46-16.72,116.21-16.72,116.21Z"/><path class="cls-2" d="M397.83,176.65l.51.71L370,250.4,416,233.79c0,.54-.11,1.08-.18,1.61l-46.46,16.81-8.18,21.07L360,272.17l16.29-42h0L360,207l.84-1.34,16.07,22.89,20-51.61.89-.26Z"/><path class="cls-6" d="M364.82,249.51S412,203,456.65,216.6C468.53,271.44,409.38,294,409.38,294l-57.95-1.73Z"/><path class="cls-7" d="M405.2,222.23l1.28,29.37,49.1-35.3,1.07.3.12.65-26.3,18.9,26.63,6.11c-.06.26-.11.51-.17.76l-.15.67-27.89-6.4L385.07,268.8,431.45,281c-.49.38-1,.76-1.47,1.12L383.53,269.9l-31.12,22.37-1,0,.43-1.38,53.2-38.25-1.29-29.74Z"/><path class="cls-7" d="M367.84,281.09s54.63-8.86,73.46,23.19C405.92,371.43,318,331.16,318,331.16Z"/><path class="cls-2" d="M441.3,304.28l-.42.77-74.68,6.27,28,29.63-1.67.36-28.24-29.83-29.17,2.45,1.59-1.6,56.8-4.77L413.69,284l1.51.49-19.58,22.92,45.25-3.8c.14.23.29.46.43.7Z"/><path class="cls-6" d="M119.35,99.13l-.5,312.81A14.16,14.16,0,0,0,133,426.12H372.78a14.16,14.16,0,0,0,14.16-14.06L389,98.74A14.15,14.15,0,0,0,374.8,84.49L133.48,85A14.17,14.17,0,0,0,119.35,99.13Z"/><polygon class="cls-9" points="129.65 98.03 129.14 413.08 376.7 413.08 378.77 97.5 129.65 98.03"/><polygon class="cls-10" points="129.65 98.03 129.14 117.16 378.94 117.16 378.77 97.5 129.65 98.03"/><line class="cls-11" x1="144.8" y1="102.3" x2="144.8" y2="102.3"/><line class="cls-11" x1="141.65" y1="112.54" x2="143.23" y2="112.54"/><polygon class="cls-2" points="153.7 132.44 153.24 139.1 241.68 139.1 243.49 133.22 153.7 132.44"/><polygon class="cls-12" points="248.11 377.31 247.65 383.97 336.09 383.97 337.89 378.09 248.11 377.31"/><polygon class="cls-2" points="153.51 148.54 153.58 153.62 288.23 153.62 289.61 149.13 153.51 148.54"/><polygon class="cls-7" points="246.06 270.76 246.37 304.81 343.06 304.81 342.31 270.76 246.06 270.76"/><polygon class="cls-6" points="246.6 316.69 343.72 316.69 342.81 322.23 246.28 322.23 246.6 316.69"/><polygon class="cls-2" points="247.54 327.77 344.65 327.77 343.74 333.31 247.21 333.31 247.54 327.77"/><polygon class="cls-6" points="153.21 162.56 250.32 162.56 249.41 168.1 152.88 168.1 153.21 162.56"/><polygon class="cls-7" points="154.14 176.41 251.26 176.41 250.34 181.96 153.82 181.96 154.14 176.41"/><polygon class="cls-7" points="154.14 189.62 251.26 189.62 250.34 195.16 153.82 195.16 154.14 189.62"/><polygon class="cls-6" points="246.6 338.86 343.71 338.86 342.8 344.4 246.27 344.4 246.6 338.86"/><polygon class="cls-10" points="222.24 266.37 222.1 321.26 162.23 321.26 164.41 266.37 222.24 266.37"/><polygon class="cls-2" points="171.37 310.45 174.11 310.45 174.14 309.13 172.49 309.14 172.54 307.16 171.44 307.16 171.37 310.45"/><path class="cls-2" d="M178.06,309.13H182l0,1.32H178Zm7.91,0h4l0,1.33h-4Zm8,0h4l0,1.34h-4Zm8.1,0h4.09v1.35h-4.09Z"/><polygon class="cls-2" points="210.28 310.45 213.19 310.45 213.21 307.06 212.04 307.06 212.03 309.1 210.29 309.1 210.28 310.45"/><path class="cls-2" d="M212.11,296h1.16l0,5.55h-1.16Zm.07-11,1.15,0,0,5.5h-1.15Z"/><polygon class="cls-2" points="212.21 279.48 213.36 279.45 213.38 276.15 210.51 276.22 210.5 277.54 212.22 277.5 212.21 279.48"/><path class="cls-2" d="M178.72,277l3.89-.1,0,1.29-3.9.1Zm7.81-.2,3.93-.1,0,1.3-3.94.1Zm7.9-.2,4-.1v1.31l-4,.09Zm8-.2,4-.11v1.32l-4,.1Z"/><polygon class="cls-2" points="172.07 280.4 173.15 280.38 173.19 278.45 174.82 278.41 174.85 277.13 172.14 277.2 172.07 280.4"/><path class="cls-2" d="M171.69,296.39l1.1,0-.13,5.38h-1.09Zm.25-10.68,1.09,0-.12,5.33h-1.09Z"/><polygon class="cls-10" points="222.24 202.34 222.1 257.23 162.23 257.23 164.41 202.34 222.24 202.34"/><polygon class="cls-2" points="171.37 246.43 174.11 246.43 174.14 245.11 172.49 245.11 172.54 243.14 171.44 243.14 171.37 246.43"/><path class="cls-2" d="M178.06,245.11H182l0,1.33H178Zm7.91,0h4l0,1.33h-4Zm8,0h4l0,1.34h-4Zm8.1,0h4.09v1.35h-4.09Z"/><polygon class="cls-2" points="210.28 246.43 213.19 246.43 213.21 243.04 212.04 243.04 212.03 245.07 210.29 245.08 210.28 246.43"/><path class="cls-2" d="M212.11,231.93h1.16l0,5.54h-1.16Zm.07-11,1.15,0,0,5.5h-1.15Z"/><polygon class="cls-2" points="212.21 215.46 213.36 215.43 213.38 212.13 210.51 212.2 210.5 213.52 212.22 213.47 212.21 215.46"/><path class="cls-2" d="M178.72,213l3.89-.1,0,1.29-3.9.1Zm7.81-.2,3.93-.1,0,1.3-3.94.09Zm7.9-.2,4-.1v1.3l-4,.1Zm8-.21,4-.1v1.32l-4,.1Z"/><polygon class="cls-2" points="172.07 216.38 173.15 216.36 173.19 214.43 174.82 214.39 174.85 213.11 172.14 213.18 172.07 216.38"/><path class="cls-2" d="M171.69,232.36h1.1l-.13,5.38h-1.09Zm.25-10.67,1.09,0-.12,5.33h-1.09Z"/><path class="cls-8" d="M215.88,194.57a75.76,75.76,0,0,0-6-4.95c-3,16.74-12.61,36.55-16.43,35.67-3.32-.77-8.38-5.75-13-15.65-2.18,1.72-4.33,3.61-6.28,5.38-.65,13.68,14.64,26.36,19.49,27.48C198.71,243.67,219.8,212.41,215.88,194.57Z"/><path class="cls-8" d="M215.88,257.05a75.76,75.76,0,0,0-6-5c-3,16.74-12.61,36.55-16.43,35.67-3.32-.77-8.38-5.76-13-15.65-2.18,1.72-4.33,3.61-6.28,5.38-.65,13.68,14.64,26.36,19.49,27.48C198.71,306.15,219.8,274.89,215.88,257.05Z"/><polygon class="cls-10" points="163.82 331.25 162.23 386.14 222.1 386.14 221.64 331.25 163.82 331.25"/><polygon class="cls-2" points="213.3 375.34 210.56 375.34 210.57 374.02 212.21 374.02 212.23 372.05 213.33 372.05 213.3 375.34"/><path class="cls-2" d="M206.63,375.34h-3.94V374h4Zm-7.91,0h-4l0-1.33h4Zm-8,0h-4.05l0-1.34h4Zm-8.11,0h-4.09l0-1.35h4.09Z"/><polygon class="cls-2" points="174.39 375.34 171.48 375.34 171.57 371.94 172.73 371.95 172.68 373.98 174.42 373.99 174.39 375.34"/><path class="cls-2" d="M172.87,366.38h-1.16l.14-5.54H173Zm.28-11.06H172l.14-5.5,1.15,0Z"/><polygon class="cls-2" points="173.43 344.37 172.28 344.34 172.37 341.03 175.24 341.11 175.2 342.43 173.48 342.38 173.43 344.37"/><path class="cls-2" d="M207,343.2l-3.89-.09,0-1.29,3.88.1Zm-7.81-.19-3.93-.09,0-1.3,3.93.1Zm-7.89-.19-4-.1,0-1.31,4,.11Zm-8-.2-4-.09,0-1.32,4,.1Z"/><polygon class="cls-2" points="213.55 345.29 212.47 345.27 212.48 343.34 210.86 343.3 210.87 342.01 213.57 342.08 213.55 345.29"/><path class="cls-2" d="M213.37,366.65h-1.09l.05-5.38h1.09Zm.09-10.73h-1.09l0-5.34,1.08,0Z"/><polygon class="cls-2" points="247.74 361.82 248.14 371.32 347.69 371.32 347.87 361.82 247.74 361.82"/><polygon class="cls-7" points="301.62 132.44 297.58 198.21 365.98 198.18 365.88 132.44 301.62 132.44"/><path class="cls-6" d="M356.53,198.78c.05-.71.11-1.43.11-2.15.12-16.43-11.48-29.11-25.62-28.77-13.84.33-25.54,13.06-26.41,28.85,0,.7,0,1.39,0,2.07Z"/><path class="cls-6" d="M346.14,151.34c.14-8.27-6.23-14.58-14.15-14.21s-14.4,7.14-14.76,15.25S323,167.22,331,167,346,159.75,346.14,151.34Z"/><path class="cls-2" d="M305.33,218.08,284.1,219a5.63,5.63,0,0,1-6.09-6.12l2.1-24.69a7.35,7.35,0,0,1,7.23-6.51h21.38a5.61,5.61,0,0,1,5.67,6.27l-2.24,23.75A7.33,7.33,0,0,1,305.33,218.08Z"/><path class="cls-13" d="M287,184c-2.87.16-4.17,2-4.81,4.54-1.54,6.09-3,18.55.8,24,4.06,5.75,15.77,4.28,22.57,3.47a5.35,5.35,0,0,0,4.91-4.48c1.42-7.4,3.51-22.25-2.38-25.27C302.82,183.54,292.79,183.65,287,184Z"/><path class="cls-7" d="M309.19,206.2l-.73-.32-1.2-.36c-6.88-1.19-13.75-2.38-20.61-3.41q-3.09-.45-6.12-1.08c-.06,4.46.54,8.83,2.41,11.47,4.06,5.75,15.77,4.28,22.57,3.47a5.35,5.35,0,0,0,4.91-4.48c.25-1.27.51-2.78.76-4.42Z"/><path class="cls-5" d="M293.72,214.34c1.39-.24,7.65-1.56,9-5.87.69-2.19-.66-5.66-2.44-6.47-5.44-2.46-7.57,11.05-7.57,11.05l.66,1.21Z"/><path class="cls-6" d="M293.19,214.22c1.28-2.7,5.45-10.75,9.11-9.79l-.16-.37c-3.94-1-8.17,7.63-9.29,10.09Z"/><path class="cls-6" d="M287.17,201.78a63.52,63.52,0,0,1,3.67,12,23,23,0,0,1,2.86.52c1.21-4.28,3.52-14.21.66-19.75-1.64-3.17-3.39-4.42-4.85-4.84-2.67-.78-4.65,2-4,6.14A28,28,0,0,0,287.17,201.78Z"/><path class="cls-10" d="M287.66,213.74a18.16,18.16,0,0,1,3.36.1c-.16-3.5-1.12-11.38-6.7-14.32-1.49-.78-2.83.61-2.63,2.87C282.2,208,285.84,212.06,287.66,213.74Z"/><path class="cls-2" d="M292,214l.28,0c.48-4.63,1.14-16.34-3.51-24.4h-.26C293.09,197.64,292.42,209.46,292,214Z"/><path class="cls-6" d="M289.54,213.72h.3c-1.14-3.38-4.21-11.68-7.63-13.72l-.18.3C285.26,202.23,288.34,210.28,289.54,213.72Z"/><path class="cls-14" d="M300.54,189.74a4.74,4.74,0,0,0,3,3.84c1.69.68,3.05,0,3-1.43a4.78,4.78,0,0,0-3.06-3.79C301.89,187.7,300.54,188.31,300.54,189.74Z"/><path class="cls-2" d="M343.11,242.54h-98c-2.11,0-3.3-1.73-2.66-3.84h0a5.68,5.68,0,0,1,5-3.83h98c2.11,0,3.3,1.73,2.66,3.83h0A5.67,5.67,0,0,1,343.11,242.54Z"/><path class="cls-15" d="M303.77,234.87H247.46a5.68,5.68,0,0,0-5,3.83c-.64,2.11.55,3.84,2.66,3.84h51.12Z"/><path class="cls-2" d="M345,257.18h-98c-2.11,0-3.3-1.73-2.65-3.84h0a5.64,5.64,0,0,1,5-3.83h98c2.11,0,3.31,1.72,2.66,3.83h0A5.67,5.67,0,0,1,345,257.18Z"/><path class="cls-15" d="M320.07,249.51H249.3a5.64,5.64,0,0,0-5,3.83c-.65,2.11.54,3.84,2.65,3.84h65.95Z"/><polygon class="cls-16" points="201.48 68.41 198.02 110.91 297.87 110.91 297.73 68.41 201.48 68.41"/><polygon class="cls-15" points="199.47 93.08 198.02 110.91 297.87 110.91 297.81 93.08 199.47 93.08"/><path class="cls-16" d="M260.92,54.11h-25.3a4.86,4.86,0,0,0-4.86,4.58l-.68,11.55a4.87,4.87,0,0,0,4.86,5.16h26a4.86,4.86,0,0,0,4.86-4.88l0-11.56A4.87,4.87,0,0,0,260.92,54.11ZM239.87,65.88h0a4.87,4.87,0,0,1,4.86-4.58h6.44A4.86,4.86,0,0,1,256,66.16h0A4.86,4.86,0,0,1,251.17,71h-6.44A4.87,4.87,0,0,1,239.87,65.88Z"/><path class="cls-8" d="M215.88,326.21a75.76,75.76,0,0,0-6-4.95c-3,16.74-12.61,36.55-16.43,35.67-3.32-.77-8.38-5.76-13-15.66-2.18,1.73-4.33,3.62-6.28,5.39-.65,13.68,14.64,26.36,19.49,27.48C198.71,375.31,219.8,344.05,215.88,326.21Z"/><path class="cls-17" d="M97.78,282.53a6.35,6.35,0,0,0-.27,4.54l.83,5.89,1,.69,3.77,1.55a4,4,0,0,1,0-2.36l1.65-6.1s2.58-10.28-4.41-9.84c0-8.38-2.3-7-2.3-7l-.16,7.24Z"/><path class="cls-18" d="M80.4,302.91s4.88,18.63,9,19S98,292.35,98,292.35l5.66.68s2.2,42.94-10.5,43.73S78.72,328,78.72,328Z"/><path class="cls-7" d="M79.87,353.86H46.63V303.38C56.13,288.89,68,292.84,68,292.84s10.76.19,12.44,10.07C80.4,310.05,79.87,353.86,79.87,353.86Z"/><path class="cls-19" d="M64.08,286.14l-.49,7.13.23.23a6.19,6.19,0,0,0,8.41.11h0l.11-5.37Z"/><path class="cls-17" d="M61.47,271.23l.6,11.79a1.84,1.84,0,0,1,1.64,2.32,2.35,2.35,0,0,1,.2.87,13.52,13.52,0,0,0,10.51,2.45c7.46-1.43,3-15.86,3-15.86Z"/><path class="cls-5" d="M57.72,280.09a7.25,7.25,0,0,0-1.9-3.27c-4.22-3.66-.44-6.32.9-7.18s1.19-3.65,3.11-5.15c2.94-2.3,5.76.08,7.64-.27s3-2.84,5.77-1.52,2.43,3.47,3.31,4.37,2.48-1.59,5.15,1.26c4,4.35-3.9,6.21-3.9,6.21a14.4,14.4,0,0,1-10.1-.46,1.9,1.9,0,0,0-2.23.54c-1.38,1.88-1.39,11.72-1.39,11.72l-1.92-1.59S58,284.05,57.72,280.09Z"/><path class="cls-17" d="M62.19,281.05a1.81,1.81,0,1,0,1-2.36A1.81,1.81,0,0,0,62.19,281.05Z"/><path class="cls-5" d="M72.34,449s1.87,2.6,10.7,4.84c1.94.5,4,.84,4,4H78.36l-8.91-1.54v1.54H64.64s-1.34-7.87,1.47-8.88Z"/><path class="cls-17" d="M72.79,443.39,72.34,449h0a5.44,5.44,0,0,1-5.9.2l-.33-.2v-5.65Z"/><path class="cls-5" d="M47.58,449s1.87,2.6,10.7,4.84c1.94.5,4,.84,4,4H53.6l-8.91-1.54v1.54H39.88s-1.34-7.87,1.47-8.88Z"/><path class="cls-17" d="M48,443.39,47.58,449h0a5.44,5.44,0,0,1-5.9.2l-.33-.2v-5.65Z"/><path class="cls-7" d="M58.78,329.5c-5-10.43,2-19.45,2-19.45l-14.11-6.67s-10,23,2.74,34.74,30,9.75,30,9.75v-6.63S63.77,339.93,58.78,329.5Z"/><path class="cls-17" d="M78.35,347l8,.16c3.23-.17,5.38-5,5.92-8.58a.73.73,0,0,0-1-.79c-2.7.94-9.64,3.39-11.44,4.51Z"/><path class="cls-5" d="M79.87,353.86c9.91,28-5.58,90-5.58,90H65.46s4.16-87.88-7.33-90Z"/><path class="cls-7" d="M57,322.54a17.78,17.78,0,0,0,1.78,7c5,10.43,21.4,11.81,21.4,11.81V348s-18.06,1.87-30.78-9.88c-4.6-4.26-6.22-10-6.43-15.58Z"/><path class="cls-17" d="M99.31,283.41s-1.84-.55-2.12-3.89-1.87-2.31-1.87-2.31.82,13.19,2.92,13.68S99.31,283.41,99.31,283.41Z"/><path class="cls-16" d="M70.1,353.86c2.69,34.32-19.22,90-19.22,90H40.39s7.13-35.58,7.27-69a175.88,175.88,0,0,0-1-21Z"/><path class="cls-20" d="M80.1,342.42c-.65-.06-15.94-1.47-21-12s2-19.88,2.06-20l.79.61c-.07.09-6.74,8.91-1.94,18.93s20,11.45,20.18,11.46Z"/><path class="cls-20" d="M77,349c-5.52,0-17.84-1.1-27.46-10-12.83-11.85-3-35.07-2.87-35.3l.91.39c-.09.23-9.67,22.81,2.63,34.17s29.4,9.64,29.57,9.62l.12,1A27.38,27.38,0,0,1,77,349Z"/><polygon class="cls-19" points="414.79 289.06 415.46 297.53 423.78 297.89 420.43 284.75 414.79 289.06"/><path class="cls-17" d="M391.39,295.62c-.13-.39-.72-1.71-3-3.51-2.09-1.61-7.41-3.69-5.1-5.29,2.85.23,6.22.16,6.22.16,1.71.31,3.72,2.44,4.72,4l2.48,5.17s-1.14,2.54-1.17,2.67l-1.19-.22A13.76,13.76,0,0,0,391.39,295.62Z"/><path class="cls-17" d="M391.26,294.17a1.91,1.91,0,0,0-.07-.43,10.8,10.8,0,0,0,1.1.16c1.18.72,2.38,1.4,3.56,2.1-.5.62-1.21,1.5-1.25,1.57L386,294.49s-.1-1.18,1.82-1.14A9.09,9.09,0,0,1,391.26,294.17Z"/><polygon class="cls-21" points="404.45 313.19 391.1 300.78 395.71 293.89 413.98 302.52 406.02 316.49 404.45 313.19"/><path class="cls-22" d="M419.28,292.48c19-4,15.73,59.1,15.73,59.1H404.88s-.43-11-1.53-24.89C402.42,314.88,409,301.55,419.28,292.48Z"/><path class="cls-5" d="M409.36,455.89s-3,2.75-9.73,4.47c-1.49.38-3.09-.12-3.09,2.33h8.21l6.82-1.18v1.18h3.69s1-6-1.12-6.8Z"/><path class="cls-17" d="M409.78,451.56l-.42,4.33h0a4.18,4.18,0,0,0,4.52.15l.26-.15.76-4.33Z"/><path class="cls-17" d="M366.66,312.23c-.41,0-1.83-.31-4.1-2.18-2-1.67-5.25-6.39-6.29-3.78.86,2.72,1.54,6,1.54,6,.68,1.6,3.2,3.07,4.95,3.7l5.6,1.26s2.22-1.68,2.34-1.74l-.49-1.11A13.46,13.46,0,0,1,366.66,312.23Z"/><path class="cls-17" d="M365.21,312.44a2,2,0,0,1-.42,0c.15.34.28.69.4,1,1,1,1.89,2,2.84,3,.49-.62,1.18-1.5,1.24-1.56l-4.92-7.75s-1.18.17-.71,2A9.11,9.11,0,0,0,365.21,312.44Z"/><path class="cls-5" d="M438.35,449.83s-3,2.75-9.73,4.47c-1.49.38-3.1-.13-3.1,2.33h8.21l6.83-1.18v1.18h3.69s1-6-1.13-6.8Z"/><path class="cls-17" d="M438.77,445.49l-.42,4.34h0a4.18,4.18,0,0,0,4.52.15l.25-.15.77-4.34Z"/><path class="cls-5" d="M435,351.58s-2.42,12.77-.26,39.21a48.44,48.44,0,0,0,3.14,13.62c5.81,14.86,6.6,42.3,6.6,42.3h-6.63l-23.39-66.88Z"/><path class="cls-23" d="M423.78,313.29s-5.21,19.4-19.33,21.19S367.1,318.4,367.1,318.4l2.56-5.11,24.51,6.87a8.31,8.31,0,0,0,9.54-4l7.38-13.6Z"/><path class="cls-16" d="M404.88,351.58l4.39,101.13h5.93s6.66-23.57,6.16-42.16a42.94,42.94,0,0,1,3-17.22A159,159,0,0,0,435,351.58Z"/><polygon class="cls-2" points="353.06 302.52 374.38 318.56 398.76 299.51 378.85 284.75 353.06 302.52"/><path class="cls-24" d="M381.39,322.57a15.34,15.34,0,0,1,1.29-5.63l-13-3.65-2.56,5.11A122.26,122.26,0,0,0,382,327.93,18.86,18.86,0,0,1,381.39,322.57Z"/><g class="cls-25"><path class="cls-26" d="M423.41,313.19c-.05.19-5.31,19.18-19,20.91-12.77,1.62-33.46-13.32-36.64-15.69-.16.2-.32.4-.49.59,3.06,2.3,21.84,16,35.09,16a16.62,16.62,0,0,0,2.14-.13c14.21-1.8,19.6-21.27,19.65-21.47Z"/></g><path class="cls-17" d="M363,316.06l4.59,1a15.05,15.05,0,0,1,1.67-3.12,14,14,0,0,1-2.63-1.75c-.41,0-1.82-.31-4.08-2.17a18.56,18.56,0,0,1,.51,5.06C363.08,315.43,363.06,315.75,363,316.06Z"/><path class="cls-17" d="M369,314.46l-4.63-7.28s-1.18.17-.71,2a9.11,9.11,0,0,0,1.57,3.22,2,2,0,0,1-.42,0c.15.34.28.69.4,1,.92.95,1.82,1.92,2.73,2.88A14.89,14.89,0,0,1,369,314.46Z"/><path class="cls-17" d="M389.92,291.45h-.16a6.82,6.82,0,0,1,1.8,2.44,14.88,14.88,0,0,1,1.53,1.33,12.41,12.41,0,0,1,.23-1.38A15.59,15.59,0,0,1,389.92,291.45Z"/><path class="cls-17" d="M390.75,292.17a9,9,0,0,0-2.81-.54c-1.92,0-1.82,1.14-1.82,1.14l7,2.47c.06-.47.14-.94.23-1.4A15.42,15.42,0,0,1,390.75,292.17Z"/><polygon class="cls-2" points="414.79 296.99 414.79 292.82 421.75 289.93 424.28 293.14 414.79 296.99"/><path class="cls-17" d="M411,292.39a4.66,4.66,0,0,1-2.88-.43c-3.92-5-1.66-19.78-1.66-19.78l12.39.87,1.43,9.6a8.14,8.14,0,0,1-2.32,7h0A13.08,13.08,0,0,1,411,292.39Z"/><path class="cls-5" d="M413.13,273.92a26.07,26.07,0,0,1-8.28.89c-4.33-.29-2.12-5.27-2.12-5.27s3.3,1.1,8.8-.33c3.71-1,4.64-1.8,7.19-.77,3.48,1.39,3.32,7.41,3.32,7.41l-.45,12.75-.7.89s-.95-8.26-1.23-10.8c-.83-1.08-1.6-1-2.16-.65a1.93,1.93,0,0,0-.83,1.84l1.41,13s-7.91,4.48-10.1,4-1.81-10.23-1.81-10.23a3.9,3.9,0,0,1,4.44.59c2.09,1.89,4.13-.53,4.13-.53Z"/><path class="cls-17" d="M418.52,277.6a2.12,2.12,0,0,0-1.79,2.21c-.05,1.2.68,2.15,1.62,2.13a2.15,2.15,0,0,0,1.79-2.21C420.18,278.53,419.46,277.58,418.52,277.6Z"/><path class="cls-27" d="M417.52,66.18H319.38s-5.32-6.73,0-11.26a9.31,9.31,0,0,1,8.93-1.51,2.94,2.94,0,0,0,3.64-2.3c.59-2.76,2.43-6.39,7.71-8.53s8.49,1.11,10.39,4.42a1.48,1.48,0,0,0,2.67-.28c1.65-5.21,7.39-12.12,26.25-12.12,24,0,21.33,12.75,19.19,18a1.22,1.22,0,0,0,1.38,1.67c3.7-.79,10.57-1.82,13.65.6C417.52,58.32,417.52,66.18,417.52,66.18Z"/><polygon class="cls-28" points="119.38 41.12 114.51 48.57 123.14 47.57 152.94 41.66 119.38 41.12"/><polygon class="cls-7" points="114.51 48.57 128.91 49.25 125.6 47.08 114.51 48.57"/><polygon class="cls-29" points="119.38 41.12 117.72 33.17 152.94 41.66 119.38 41.12"/><polygon class="cls-30" points="152.94 41.66 123.14 47.57 126.21 59.12 152.94 41.66"/><path class="cls-7" d="M115.26,53.16a.56.56,0,0,1-.12-.23.67.67,0,0,1,.46-.84,19.57,19.57,0,0,1,3.44-.68.68.68,0,0,1,.14,1.35,17.76,17.76,0,0,0-3.2.63A.67.67,0,0,1,115.26,53.16Z"/><path class="cls-7" d="M93.12,124.67s0,0,0,0a20.23,20.23,0,0,1-2.92-6.4.67.67,0,1,1,1.3-.35,19,19,0,0,0,2.73,6,.7.7,0,0,1-.17,1A.68.68,0,0,1,93.12,124.67Zm-3.53-10.23a.64.64,0,0,1-.14-.36,25.58,25.58,0,0,1,.35-7,.68.68,0,0,1,1.33.25A24.09,24.09,0,0,0,90.8,114a.68.68,0,0,1-.62.74A.7.7,0,0,1,89.59,114.44ZM91,103.69a.68.68,0,0,1-.1-.66l.12-.31a32.79,32.79,0,0,1,3.07-5.89.68.68,0,0,1,.94-.19.67.67,0,0,1,.2.93,30.81,30.81,0,0,0-3,5.65l-.11.28a.69.69,0,0,1-.88.4A.75.75,0,0,1,91,103.69Zm5.56-9.36a.69.69,0,0,1,0-.85,50.45,50.45,0,0,1,4.78-5,.68.68,0,0,1,1,0,.7.7,0,0,1,0,1,47.72,47.72,0,0,0-4.65,4.88.69.69,0,0,1-1,.09Zm7.82-7.64a.68.68,0,0,1,.1-.94l.39-.31a22,22,0,0,1-2-2.74.68.68,0,0,1,1.15-.71A21,21,0,0,0,106,84.6c1.24-1,2.57-1.95,4-3a.68.68,0,0,1,.94.17.67.67,0,0,1-.16.94c-1.42,1-2.71,2-3.91,2.89.48.48,1,.94,1.49,1.38a.67.67,0,0,1,.08,1,.66.66,0,0,1-.95.08,22.76,22.76,0,0,1-1.69-1.57l-.44.36a.68.68,0,0,1-.95-.1Zm-3.24-7.61a.72.72,0,0,1-.11-.19,19.46,19.46,0,0,1-1-4.26,20.4,20.4,0,0,1-.09-2.71.68.68,0,0,1,1.36,0,16.29,16.29,0,0,0,.08,2.52,17.17,17.17,0,0,0,.91,3.94.69.69,0,0,1-.41.87A.68.68,0,0,1,101.18,79.08Zm9.6,11.18a.68.68,0,0,1-.06-.76.67.67,0,0,1,.92-.25,19.63,19.63,0,0,0,6.18,2.26.68.68,0,1,1-.24,1.34,21.38,21.38,0,0,1-6.6-2.42A.85.85,0,0,1,110.78,90.26Zm-10-21.94a.71.71,0,0,1-.13-.6,22,22,0,0,1,2.87-6.41.68.68,0,1,1,1.13.74,20.53,20.53,0,0,0-2.69,6,.67.67,0,0,1-.82.48A.68.68,0,0,1,100.76,68.32Zm20.49,24.57a.69.69,0,0,1-.14-.39.67.67,0,0,1,.64-.71,15.6,15.6,0,0,0,1.69-.16A13.14,13.14,0,0,0,128,90.06a.68.68,0,0,1,.67,1.18,14.73,14.73,0,0,1-5,1.73,15.75,15.75,0,0,1-1.83.17A.69.69,0,0,1,121.25,92.89Zm-8-12.62,0,0a.68.68,0,0,1,.21-.94,26.38,26.38,0,0,1,6.27-3.1.68.68,0,1,1,.41,1.29,25.07,25.07,0,0,0-6,3A.68.68,0,0,1,113.27,80.27Zm-7.19-21.39a.66.66,0,0,1,0-.88,22,22,0,0,1,2.36-2.17,23,23,0,0,1,3.2-2.12.69.69,0,0,1,.92.28.67.67,0,0,1-.27.91,20.85,20.85,0,0,0-5.23,4,.68.68,0,0,1-1,0S106.09,58.91,106.08,58.88Zm24.83,29.58a.68.68,0,0,1,0-.84,6.14,6.14,0,0,0,1.45-4.22,5.47,5.47,0,0,0-.31-1.55.67.67,0,0,1,.41-.86.66.66,0,0,1,.86.41,6.37,6.37,0,0,1,.39,1.92A7.49,7.49,0,0,1,132,88.46a.68.68,0,0,1-.95.11A.57.57,0,0,1,130.91,88.46Zm-7.49-11.89a.62.62,0,0,1-.15-.42.67.67,0,0,1,.67-.67,10.93,10.93,0,0,1,6.77,2.35.68.68,0,0,1-.85,1.06A9.62,9.62,0,0,0,124,76.83.65.65,0,0,1,123.42,76.57Z"/><polygon class="cls-31" points="257.15 35.56 279.89 25.79 291.12 24.67 299.32 26.72 257.15 35.56"/><polyline class="cls-28" points="257.15 35.56 298.56 29.17 299.32 26.72"/><polygon class="cls-7" points="299.03 36.21 298.97 36.29 296.65 42.39 257.25 35.58 299.03 36.21"/><polygon class="cls-32" points="307.1 33.3 301.8 28.05 257.42 35.52 294.74 38.09 307.1 33.3"/><path class="cls-7" d="M390.05,122.27a31.61,31.61,0,0,1-3.72-2.07.58.58,0,0,0-.81.17.59.59,0,0,0,.17.82,31.79,31.79,0,0,0,3.86,2.15c.48.22,1,.43,1.45.63a.59.59,0,0,0,.77-.32.59.59,0,0,0-.32-.77C391,122.69,390.51,122.48,390.05,122.27Z"/><path class="cls-7" d="M319.33,30.09c-1.85.05-3.79.16-5.91.34a.59.59,0,0,0,.1,1.18c2.1-.18,4-.29,5.85-.34a.66.66,0,0,0,.28-.09.57.57,0,0,0,.29-.52A.59.59,0,0,0,319.33,30.09Z"/><path class="cls-7" d="M329.08,31.5a.59.59,0,0,0-.24-1.09c-1.88-.2-3.88-.32-5.94-.35a.58.58,0,0,0-.6.58.59.59,0,0,0,.58.6c2,0,4,.14,5.83.34A.59.59,0,0,0,329.08,31.5Z"/><path class="cls-7" d="M379.43,114.08a.58.58,0,0,0-.83-.07.59.59,0,0,0-.07.83,32.05,32.05,0,0,0,4.26,4.22.59.59,0,0,0,.67,0,.64.64,0,0,0,.15-.13.58.58,0,0,0-.08-.83A32.84,32.84,0,0,1,379.43,114.08Z"/><path class="cls-7" d="M377.18,112.12a.59.59,0,0,0,.16-.82c-.29-.43-.57-.88-.84-1.33a29.4,29.4,0,0,1-1.91-3.75.58.58,0,0,0-.77-.31.6.6,0,0,0-.31.77,31.75,31.75,0,0,0,2,3.9q.42.7.87,1.38a.59.59,0,0,0,.79.18Z"/><path class="cls-7" d="M373,103.69a.35.35,0,0,0,.14-.06.59.59,0,0,0,.26-.67,40.54,40.54,0,0,1-1.25-5.67.59.59,0,1,0-1.16.17,40.2,40.2,0,0,0,1.28,5.84A.58.58,0,0,0,373,103.69Z"/><path class="cls-7" d="M362.4,52.09c.43.65.85,1.3,1.25,2,.59,1,1.16,2,1.67,3.07a.59.59,0,0,0,.8.26l0,0a.59.59,0,0,0,.22-.77c-.53-1.06-1.11-2.12-1.72-3.15-.41-.68-.83-1.35-1.28-2a.55.55,0,0,0-.81-.16A.58.58,0,0,0,362.4,52.09Z"/><path class="cls-7" d="M366.76,60.31a43.89,43.89,0,0,1,1.8,5.52.59.59,0,0,0,.72.43.69.69,0,0,0,.15-.07.58.58,0,0,0,.27-.65,43.12,43.12,0,0,0-1.85-5.67.59.59,0,1,0-1.09.44Z"/><path class="cls-7" d="M356.5,44.91a48.18,48.18,0,0,1,3.86,4.35.58.58,0,0,0,.76.15l.06,0a.58.58,0,0,0,.1-.83,47.64,47.64,0,0,0-3.95-4.47.59.59,0,0,0-.83,0A.6.6,0,0,0,356.5,44.91Z"/><path class="cls-7" d="M346.34,37.16a.59.59,0,0,0,.59,0,.63.63,0,0,0,.21-.22.59.59,0,0,0-.22-.8,47.42,47.42,0,0,0-5.37-2.61.59.59,0,0,0-.45,1.1A45,45,0,0,1,346.34,37.16Z"/><path class="cls-7" d="M370.81,85a.66.66,0,0,0,.29-.09.58.58,0,0,0,.29-.51v-.75c0-1.72-.05-3.44-.11-5.16a.6.6,0,0,0-.61-.57.59.59,0,0,0-.57.61c.06,1.71.08,3.43.11,5.14v.74A.59.59,0,0,0,370.81,85Z"/><path class="cls-7" d="M353.94,42.53a.6.6,0,0,0,.69.06l.14-.12a.6.6,0,0,0-.06-.84A49.79,49.79,0,0,0,350,38a.59.59,0,1,0-.66,1A47.55,47.55,0,0,1,353.94,42.53Z"/><path class="cls-7" d="M370.85,87.38a.59.59,0,0,0-.57.61c.06,2.31.16,4.2.31,5.92a.59.59,0,0,0,.64.54.61.61,0,0,0,.25-.08.59.59,0,0,0,.29-.56c-.15-1.7-.25-3.56-.31-5.85A.6.6,0,0,0,370.85,87.38Z"/><path class="cls-7" d="M394.73,124a.6.6,0,0,0-.74.4.59.59,0,0,0,.4.73,47.47,47.47,0,0,0,5.81,1.34.56.56,0,0,0,.4-.07.61.61,0,0,0,.28-.41.59.59,0,0,0-.48-.68A45.62,45.62,0,0,1,394.73,124Z"/><path class="cls-7" d="M369.75,68.57a.59.59,0,0,0-.48.68c.29,1.77.5,3.67.65,5.8a.59.59,0,0,0,.62.55.62.62,0,0,0,.27-.09.57.57,0,0,0,.28-.54,58.84,58.84,0,0,0-.66-5.91A.59.59,0,0,0,369.75,68.57Z"/><path class="cls-7" d="M422.67,127.56a.6.6,0,0,0-.67.5.59.59,0,0,0,.5.67,55.83,55.83,0,0,1,5.73,1.09.58.58,0,0,0,.45-.06.61.61,0,0,0,.27-.36.59.59,0,0,0-.43-.72A58.66,58.66,0,0,0,422.67,127.56Z"/><path class="cls-7" d="M334.41,31.31c-.67-.15-1.35-.28-2-.4a.59.59,0,1,0-.21,1.16c.67.12,1.33.25,2,.39,1.23.27,2.46.6,3.66,1a.58.58,0,0,0,.74-.38.59.59,0,0,0-.38-.74C336.94,31.93,335.67,31.59,334.41,31.31Z"/><path class="cls-7" d="M403.87,125.85a.59.59,0,1,0-.14,1.17c2.12.25,4.26.43,5.89.55a.59.59,0,1,0,.09-1.17C408.09,126.27,406,126.1,403.87,125.85Z"/><path class="cls-7" d="M413.24,126.65a.59.59,0,0,0-.09,1.18c1.79.13,3.86.28,5.86.48a.52.52,0,0,0,.37-.08.59.59,0,0,0-.25-1.09C417.11,126.94,415,126.78,413.24,126.65Z"/><polygon class="cls-8" points="365.31 329.46 375.74 336.11 380.14 326.95 366.67 311.5 365.31 329.46"/><polygon class="cls-17" points="310.26 268.38 323.03 301.75 331.19 295.68 312.97 264.96 310.26 268.38"/><path class="cls-17" d="M309.52,257.06a5.19,5.19,0,0,1,1.88,3.25L313,265l-.5.87-2.21,2.54a3.38,3.38,0,0,0-.87-1.74l-3.47-3.89s-5.7-6.64-.38-8.9c-3.12-6.17-.89-6-.89-6l2.8,5.29Z"/><path class="cls-17" d="M308.72,258.27s1.15-1.08.13-3.66.52-2.39.52-2.39,4.27,10,2.9,11.18S308.72,258.27,308.72,258.27Z"/><path class="cls-8" d="M346.86,308.61l-3.82.3-13-15.15-7,8a212.21,212.21,0,0,0,15.86,24.74c.54,2.56,3.33,28.3,3.33,28.3h22.52s-3.59-18.89,2.75-29.4S346.86,308.61,346.86,308.61Z"/><path class="cls-17" d="M364.19,408.17s-.12,52.48-.12,52.2-3.4,0-3.4,0-5-27.44-6.1-39.82,0-13.2,0-13.2Z"/><path class="cls-17" d="M353.25,408.17s-.12,52.48-.12,52.2-3.4,0-3.4,0-5-27.44-6.1-39.82,0-13.2,0-13.2Z"/><path class="cls-17" d="M346.29,282.63,360,287.41l-1.35,10.21c0,.14-.06.28-.09.42l-.78.16-.13,0-.12,0a9.33,9.33,0,0,0-6.39,6.39,16.15,16.15,0,0,1-5.92-.07,6,6,0,0,1-3.11-1.34C339.2,297,346.29,282.63,346.29,282.63Z"/><path class="cls-5" d="M345.94,291.22a9,9,0,0,1,.28,7.86c-1.86,3.93-1.69,8.35-.46,10.77.85,1.65,3.05,3.3,5,4.52a7.72,7.72,0,0,1,3.63,5.85c.31,3.32.62,7.4,3.47,8.38,8.25,2.84,11.27,2.56,12.37-4.31a14,14,0,0,0-.71-6.74,12,12,0,0,1,.26-9,15.86,15.86,0,0,0,1.55-5.39c0-1.56-1.42-3.75-2.92-5.62a11.56,11.56,0,0,1-2.43-8.29c.26-3-.15-6.78-3.17-9.35-5.64-4.81-18.16,2.76-18.16,2.76S343.46,286.27,345.94,291.22Z"/><path class="cls-17" d="M380.14,327l5,5.18c3.33,3.45,4.36,8.24.36,10.88l-16.37,13,1.51,2.82a6.86,6.86,0,0,1-.6,7.4l-1.73,2.27-3.83-13.14,11.87-14.82a2.85,2.85,0,0,0-.62-4.43h0Z"/><path class="cls-16" d="M342.22,354.79a55,55,0,0,0-3.3,17.23c0,4.77,4.12,40.69,4.12,40.69h21.45c-1.45-26.53,6.59-29.78,6.59-41.25,0-8.09-6.34-16.67-6.34-16.67Z"/><path class="cls-5" d="M364.07,456.38s1.88,1.48,1.54,3.36-.84,6.27-.84,6.27h-1.92l.06-4.1c0-.27-4.14,4.1-4.84,4.1h-10.2s-.68-2.76,5.31-3.65S364.07,456.38,364.07,456.38Z"/><path class="cls-5" d="M353.18,456.38s1.87,1.48,1.53,3.36-.83,6.27-.83,6.27H352l.06-4.1c0-.27-4.14,4.1-4.84,4.1H337s-.68-2.76,5.32-3.65S353.18,456.38,353.18,456.38Z"/><path class="cls-8" d="M365.31,408.17"/><polygon class="cls-17" points="139.53 307.91 148.16 324.17 138.65 323.71 137.98 307.38 139.53 307.91"/><polygon class="cls-2" points="125.98 300.7 133.95 300.69 137.25 352.23 122.97 352.23 125.98 300.7"/><path class="cls-16" d="M111.34,452s-2,1.55-1.61,3.52.87,6.6.87,6.6h2l-.06-4.31c0-.28,4.34,4.31,5.08,4.31h10.72s.71-2.91-5.59-3.84S111.34,452,111.34,452Z"/><path class="cls-17" d="M116,450l1.45,3.79a4.83,4.83,0,0,0,2,2.51,19,19,0,0,0,5,2.27c-2.91,2.49-7.55-.11-10.2-1.95a6.51,6.51,0,0,1-2.59-3.75L111,450Z"/><path class="cls-16" d="M131.76,452s-2,1.55-1.61,3.52.88,6.6.88,6.6h2l-.06-4.31c0-.28,4.35,4.31,5.08,4.31h10.72s.71-2.91-5.58-3.84S131.76,452,131.76,452Z"/><path class="cls-17" d="M136.41,450l1.45,3.79a4.88,4.88,0,0,0,2,2.51,19.24,19.24,0,0,0,5,2.27c-2.91,2.49-7.55-.11-10.2-1.95a6.48,6.48,0,0,1-2.6-3.75l-.6-2.87Z"/><path class="cls-10" d="M119.86,352.23s-1.34,7.7,6.37,45.56C120,417.52,130,450.53,130,450.53h7.27l5-98.3Z"/><path class="cls-12" d="M133.07,300.7l2.59,62.53,8.57-3.67a92.13,92.13,0,0,1-3.5-28c-1.31-11.79,5.38-5.58-2.81-28.29C134.87,300.69,133.07,300.7,133.07,300.7Z"/><path class="cls-19" d="M134.19,294.25l-1,5.27a3.35,3.35,0,0,1-5.08,2.21l-3.51-2.2,6.27-14.19Z"/><path class="cls-7" d="M112.86,352.23s-9.54,7.7-1.84,45.56c-6.23,19.73-.73,52.74-.73,52.74h6.53l18.39-98.3Z"/><path class="cls-12" d="M126,295.41s-8,4.52-10.55,8.56c-2.39,3.85-3.21,12.61-3.44,20.41-.32,10.71-5.49,38.85-5.49,38.85h21.58l.54-61.26Z"/><path class="cls-5" d="M141.86,278.43c-4.88-1.23-9.57,3.77-9.57,3.77L128.62,302l-5.65-8.7s-.32-11.82,5.14-19.65c3.9-4.75,11.41-3.38,15.2,1.23,1.84,2.24,2.23,5.34,2.05,8.19-.24,3.82-1.32,25.78-1.32,25.78l-11.19-8.28a52.36,52.36,0,0,1,1.34-6.29C136,287.26,145.14,279.26,141.86,278.43Z"/><path class="cls-17" d="M130.83,281.9a1.75,1.75,0,0,1,2.08,1.08,1.52,1.52,0,0,1-.53,2.15A1.76,1.76,0,0,1,130.3,284,1.5,1.5,0,0,1,130.83,281.9Z"/><path class="cls-17" d="M136.06,295.17a3.88,3.88,0,0,0,2.39.31c4.25-3.07,5.78-15.36,5.78-15.36l-3.36-3.57-6.7,1.47-3.3,7.32a6.73,6.73,0,0,0,.28,6.07h0A10.71,10.71,0,0,0,136.06,295.17Z"/><path class="cls-5" d="M143,278.18c-.35,3.71-10.69,4-10.69,4l-.54-5,6-3.32,4.77,2.87A3.1,3.1,0,0,1,143,278.18Z"/><path class="cls-5" d="M142.76,278.9c-.35,1.38,1.05,3.79,1.05,3.79l.83-1.48,0-1.29-.81-1S143.1,277.52,142.76,278.9Z"/><path class="cls-17" d="M117.63,304c-10.45,1.22-5.51,28.15-3.27,39.21a4.68,4.68,0,0,0,6,3.55C129.43,343.86,142.7,332,142.7,332l-2.1-2.65L123,333.43S129.73,302.56,117.63,304Z"/><path class="cls-2" d="M138.51,323l-3.4,21.11a1,1,0,0,0,1,1.16h13.5a1,1,0,0,0,1-.85l3.35-21.1a1,1,0,0,0-1-1.16H139.51A1,1,0,0,0,138.51,323Z"/><path class="cls-17" d="M153.5,332.34a9.34,9.34,0,0,0-.24-2.75c-.32-2-.24-5.12-2.27-3.56a10.24,10.24,0,0,0-2.15,5c-.4,1.41.47,3.39,1.28,4.45l1.4,3.06A8.86,8.86,0,0,0,153.5,332.34Z"/><path class="cls-33" d="M144.67,330.35a1,1,0,1,0,1-1A1,1,0,0,0,144.67,330.35Z"/></g></g></svg>