<?xml version="1.0" encoding="UTF-8" standalone="no"?>
<!DOCTYPE svg PUBLIC "-//W3C//DTD SVG 1.1//EN" "http://www.w3.org/Graphics/SVG/1.1/DTD/svg11.dtd">
<svg width="100%" height="100%" viewBox="0 0 3840 2160" version="1.1" xmlns="http://www.w3.org/2000/svg" xmlns:xlink="http://www.w3.org/1999/xlink" xml:space="preserve" xmlns:serif="http://www.serif.com/" style="fill-rule:evenodd;clip-rule:evenodd;stroke-linejoin:round;stroke-miterlimit:2;">
    <g>
        <path d="M2228,586L2227,587C2229.92,612.768 2227.5,640.065 2227.5,666C2227.5,674.267 2224.41,690.3 2228.47,697.606C2230.77,701.745 2238.86,703.149 2243,704.681C2256.04,709.506 2269.08,714.477 2282,719.601C2315.81,733.006 2350.01,745.493 2384,758.424C2403.76,765.941 2423.6,775.433 2444,781L2444,782C2425.68,784.744 2406.34,795.037 2389,801.576C2353.74,814.876 2318.39,828.002 2283,840.947C2269.66,845.827 2256.33,850.754 2243,855.681C2238.99,857.162 2230.73,858.623 2228.39,862.499C2224.29,869.291 2227.5,886.128 2227.5,894C2227.5,920.914 2230.03,949.261 2227,976L2267,961.2L2350,927.8L2513,862.2L2600,827C2596.89,805.803 2599.5,782.435 2599.5,761C2599.5,754.681 2602.11,740.675 2598.11,735.499C2593.23,729.202 2577.31,726.123 2570,723.2C2545.98,713.59 2522.02,703.808 2498,694.2C2436.98,669.789 2376.02,645.211 2315,620.8C2286.1,609.241 2257.49,595.976 2228,586Z" style="fill:rgb(191,191,191);fill-rule:nonzero;"/>
        <path d="M2352,1133L2301,1133L2301,1200C2301,1204.67 2298.65,1218.84 2302.6,1221.97C2305.54,1224.3 2312.47,1223 2316,1223L2352,1223L2352,1406C2352,1444.62 2349.72,1485.57 2370.45,1520C2399.21,1567.77 2460.46,1574.63 2511,1571.09C2523.06,1570.24 2535.17,1569.06 2547,1566.35C2550.32,1565.59 2556.74,1565.14 2558.97,1562.27C2562.67,1557.52 2560,1542.89 2560,1537L2560,1468C2536.31,1475.71 2499.89,1482.99 2482.79,1459C2469.69,1440.62 2475,1410.25 2475,1389L2475,1223L2558,1223L2558,1133L2475,1133L2475,1002C2443.79,1009.39 2412.72,1027.3 2383,1039.4C2376.26,1042.14 2355.79,1046.69 2352.6,1053.39C2349.81,1059.26 2352,1070.55 2352,1077L2352,1133Z" style="fill:rgb(191,191,191);fill-rule:nonzero;"/>
        <path d="M880,1404L769,1404C764.516,1427.8 756.124,1449.68 737,1465.68C706.762,1490.97 657.102,1486.04 631.174,1457C598.419,1420.32 599.447,1355.75 605.286,1310C609.263,1278.84 621.529,1245.45 649,1227.7C698.102,1195.97 754.93,1230.26 762,1285L878,1285C877.239,1267.27 873.25,1248.7 867.308,1232C826.996,1118.74 675.3,1092.67 579,1149.01C497.775,1196.53 478.884,1287.04 481.015,1374C482.886,1450.36 522.578,1524.57 594,1556.14C695.761,1601.12 839.103,1567.06 872.14,1451C876.426,1435.95 879.957,1419.72 880,1404Z" style="fill:rgb(191,191,191);fill-rule:nonzero;"/>
        <path d="M1332,1404L1221,1404C1215.85,1468.7 1138.71,1508.6 1088.01,1461.83C1072.17,1447.21 1064.95,1426.42 1060.35,1406C1057.24,1392.2 1056,1378.12 1056,1364C1056,1310.39 1059.07,1233.77 1124,1218.13C1132.74,1216.02 1142.03,1215.3 1151,1216.17C1176.37,1218.62 1195.58,1234.31 1206.22,1257C1209.11,1263.17 1210.41,1280.16 1215.56,1283.97C1221.29,1288.21 1238.96,1285 1246,1285L1330,1285C1329.96,1269.86 1326.27,1254.49 1322.14,1240C1288.44,1121.62 1136.74,1094.29 1038,1145.26C953.831,1188.71 931.971,1281.1 933.004,1368C933.964,1448.76 974.875,1527.4 1052,1558.55C1153.51,1599.54 1291.84,1565.16 1324.42,1451C1328.78,1435.73 1332,1419.91 1332,1404Z" style="fill:rgb(191,191,191);fill-rule:nonzero;"/>
        <path d="M1792,1432C1783.44,1429.47 1772.9,1431 1764,1431L1710,1431C1701.81,1431 1687.74,1428.27 1680.22,1431.6C1675.03,1433.91 1671.47,1447.17 1668.3,1452C1660.81,1463.42 1649.42,1473.05 1637,1478.69C1604.71,1493.35 1559.26,1488.52 1535.29,1461C1516.4,1439.32 1508.58,1407.26 1508,1379L1792,1379C1792,1306.95 1793.96,1227.64 1737.96,1173.09C1664.14,1101.18 1525.39,1103.83 1451,1173.09C1410.38,1210.91 1391.32,1264.89 1386.17,1319C1378.94,1394.97 1394.3,1481.47 1457,1531.55C1531.4,1590.98 1667.19,1591.46 1739,1526.83C1768.29,1500.46 1782.35,1469.29 1792,1432Z" style="fill:rgb(191,191,191);fill-rule:nonzero;"/>
        <path d="M3804,1431L3728,1431C3717.53,1431 3703.19,1428.42 3693.13,1431.32C3687.7,1432.88 3684.28,1446.36 3681.3,1451C3673.77,1462.71 3663.51,1471.65 3651,1477.74C3610.75,1497.36 3558.52,1484.71 3536.44,1445C3524.87,1424.21 3524.21,1401.67 3520,1379L3802,1379C3802,1307.45 3804.36,1226.92 3747.99,1173.09C3671.14,1099.71 3527.4,1103.31 3454.04,1180C3413.7,1222.17 3397.3,1280.01 3395.05,1337.09C3391.82,1419.28 3415.8,1506.93 3493,1548.69C3586.7,1599.37 3729.5,1578.81 3784.85,1482C3793.59,1466.71 3801.63,1448.6 3804,1431Z" style="fill:rgb(191,191,191);fill-rule:nonzero;"/>
        <path d="M1989,1195L1988,1195L1988,1133L1865,1133L1865,1565L1988,1565L1988,1372C1988,1340.48 1982.77,1303.55 1991.43,1273C2004.38,1227.3 2068.09,1201.42 2107,1233.46C2133.75,1255.5 2128,1296.31 2128,1327L2128,1565L2251,1565L2251,1322C2251,1276.24 2255.12,1225.42 2231.57,1184C2194.95,1119.58 2107.78,1108.36 2045,1139.75C2022.66,1150.93 1997.88,1170.74 1989,1195Z" style="fill:rgb(191,191,191);fill-rule:nonzero;"/>
        <path d="M3228,1212L3227,1212L3227,1133L3104,1133L3104,1567L3227,1567L3227,1379C3227,1347.49 3223.73,1312.38 3244.52,1286C3271.02,1252.36 3319.32,1248 3359,1248L3359,1128C3312.52,1128 3269.44,1144.28 3242.67,1184C3236.9,1192.56 3230.41,1201.84 3228,1212Z" style="fill:rgb(191,191,191);fill-rule:nonzero;"/>
        <path d="M2631,1133L2631,1374C2631,1421.31 2627.37,1472.67 2652.6,1515C2690.51,1578.58 2785.11,1591.49 2846,1554.19C2864.2,1543.04 2886.71,1524.37 2893,1503L2894,1503L2894,1547C2894,1551.13 2892.34,1560 2895.03,1563.4C2898.78,1568.13 2919.2,1565 2925,1565L3015,1565L3015,1133L2892,1133L2892,1327C2892,1358.42 2897.34,1395.47 2889.27,1426C2877.68,1469.81 2820.96,1500.25 2780,1472.64C2749.51,1452.09 2754,1410.01 2754,1378L2754,1133L2631,1133Z" style="fill:rgb(191,191,191);fill-rule:nonzero;"/>
        <path d="M47,1266L163,1266C163.421,1215.13 230.696,1196.05 268,1222.21C293.306,1239.96 291,1272.77 291,1300C245.87,1300 200.384,1298.76 156,1308.21C129.182,1313.92 101.853,1323.71 80,1340.67C61.575,1354.96 47.483,1373.84 40.004,1396C22.453,1448.01 33.311,1516.18 81,1548.48C130.373,1581.92 207.918,1584.56 258,1551.33C271.379,1542.46 288.542,1530.25 295,1515L296,1515L296,1565L414,1565L414,1314C414,1265.2 415.838,1213.9 380.829,1175C358.559,1150.25 327.98,1136.63 296,1129.58C208.493,1110.28 93.339,1129.4 56.601,1222C51.228,1235.54 47.121,1251.36 47,1266Z" style="fill:rgb(191,191,191);fill-rule:nonzero;"/>
        <path d="M1511,1298L1671,1298C1671,1275.08 1665.69,1249.01 1650.67,1231C1626.36,1201.83 1575.15,1198.78 1546,1222.47C1524.77,1239.72 1511.56,1270.71 1511,1298Z" style="fill:white;fill-rule:nonzero;"/>
        <path d="M3518,1298L3681,1298C3681,1274.99 3675.75,1249.09 3660.67,1231C3637.09,1202.7 3589.79,1199.54 3560,1219.52C3532.68,1237.84 3525.37,1268.08 3518,1298Z" style="fill:white;fill-rule:nonzero;"/>
        <path d="M291,1381C267.754,1381 244.133,1379.97 221,1382.17C208.344,1383.37 195.919,1385.49 184,1390.06C152.697,1402.09 141.673,1449.89 165.301,1474.83C198.632,1510.01 273.207,1486.9 287.644,1444C294.2,1424.52 291,1401.3 291,1381Z" style="fill:white;fill-rule:nonzero;"/>
    </g>
</svg>
