<?xml version="1.0" encoding="UTF-8" standalone="no"?>
<!DOCTYPE svg PUBLIC "-//W3C//DTD SVG 1.1//EN" "http://www.w3.org/Graphics/SVG/1.1/DTD/svg11.dtd">
<svg width="100%" height="100%" viewBox="0 0 2857 883" version="1.1" xmlns="http://www.w3.org/2000/svg" xmlns:xlink="http://www.w3.org/1999/xlink" xml:space="preserve" xmlns:serif="http://www.serif.com/" style="fill-rule:evenodd;clip-rule:evenodd;stroke-linejoin:round;stroke-miterlimit:2;">
    <g>
        <path d="M549,127.424C523.661,130.751 498.819,133.237 474,139.92C429.46,151.913 386.775,171.086 346,192.407C267.428,233.49 194.059,285.252 138.346,355.039C100.13,402.909 54.894,479.404 101.279,536.576C107.675,544.458 114.576,551.214 123,556.971C133.883,564.409 146.08,569.69 159,572.334C209.632,582.697 262.128,546.141 300,517.235C370.42,463.487 444.001,412.745 522,370.46C566.489,346.341 642.331,311.518 681.076,364C712.122,406.055 703.557,460.342 686.529,506C649.343,605.712 562.489,676.107 480,737.873C449.745,760.528 416.177,780.698 381,794.645C367.952,799.818 351.111,806.866 337,801.892C308.58,791.873 337.633,753.007 347.746,739.911C376.883,702.178 418.584,674.627 443.999,633.961C462.047,605.084 441.454,578.327 411,572.619C323.343,556.189 270.206,653.628 251.011,724C240.994,760.722 262.1,818.378 304,825.671C312.915,827.223 322.961,826 332,826C342.479,826 353.618,827.062 364,825.572C412.187,818.653 457.555,790.417 498,765.05C597.687,702.528 690.083,623.847 749.284,521C770.303,484.485 787.759,445.508 796.193,404C807.712,347.309 804.851,287.084 777.691,235.004C745.15,172.603 676.356,138.58 609,129.718C589.627,127.17 568.516,124.862 549,127.424M1439,129.428C1421.59,131.923 1406,136.671 1393.01,149.089C1363.45,177.361 1364.98,230.904 1395,257.826C1412.09,273.15 1434.75,277.775 1457,274.572C1468.43,272.926 1479.34,268.789 1489,262.455C1549.96,222.484 1511.42,119.053 1439,129.428Z" style="fill:rgb(191,191,191);fill-rule:nonzero;"/>
        <path d="M619,131L620,132L619,131Z" style="fill:rgb(191,191,191);fill-rule:nonzero;"/>
        <path d="M484,137L485,138L484,137Z" style="fill:rgb(191,191,191);fill-rule:nonzero;"/>
        <path d="M678,148L679,149L678,148M441,150L442,151L441,150M685,151L686,152L685,151M1506,160L1507,161L1506,160Z" style="fill:rgb(191,191,191);fill-rule:nonzero;"/>
        <path d="M391,170L392,171L391,170Z" style="fill:rgb(191,191,191);fill-rule:nonzero;"/>
        <path d="M725,175L726,176L725,175Z" style="fill:rgb(191,191,191);fill-rule:nonzero;"/>
        <path d="M2595,196L2595,599C2595,655.164 2583.47,727.265 2619.75,775C2658.97,826.608 2726.34,828 2785,828C2785,808.673 2784,789.372 2784,770C2784,765.627 2786.14,753.148 2782.4,750.179C2778.15,746.814 2765.49,747.704 2760,746.75C2737.69,742.875 2711.7,733.938 2708.29,708C2706.78,696.519 2708.48,684.563 2707.82,673C2705.06,624.572 2707,575.531 2707,527L2707,177L2595,196M1912,196L1912,598C1912,654.46 1900.56,726.049 1937.24,774C1977.09,826.109 2045.95,826 2105,826C2105,807.026 2103.61,788.051 2104.01,769C2104.11,764.447 2107.46,753.386 2103.4,750.013C2098.53,745.968 2085.18,746.535 2079,745.576C2057.19,742.192 2036.35,734.308 2030.38,711C2022.19,679.047 2027,641.774 2027,609C2027,541.996 2028,474.954 2028,408L2101,408L2101,319L2028,318L2028,179L1912,196Z" style="fill:rgb(191,191,191);fill-rule:nonzero;"/>
        <path d="M370,180L371,181L370,180M734,182L735,183L734,182M346,192L347,193L346,192Z" style="fill:rgb(191,191,191);fill-rule:nonzero;"/>
        <path d="M338,196L339,197L338,196Z" style="fill:rgb(191,191,191);fill-rule:nonzero;"/>
        <path d="M308,213L309,214L308,213Z" style="fill:rgb(191,191,191);fill-rule:nonzero;"/>
        <path d="M304,215L305,216L304,215Z" style="fill:rgb(191,191,191);fill-rule:nonzero;"/>
        <path d="M773,228L774,229L773,228M780,241L781,242L780,241M787,257L788,258L787,257M792,272L793,273L792,272M794,279L795,280L794,279Z" style="fill:rgb(191,191,191);fill-rule:nonzero;"/>
        <path d="M795,282L796,283L795,282Z" style="fill:rgb(191,191,191);fill-rule:nonzero;"/>
        <path d="M795,283L796,284L795,283M202,288L203,289L202,288Z" style="fill:rgb(191,191,191);fill-rule:nonzero;"/>
        <path d="M1582,820L1694,820C1694,727.411 1695,634.657 1695,542C1695,516.001 1694.87,489.994 1694.92,464C1694.94,456.283 1691.17,443.056 1695.03,436.105C1699.36,428.287 1716.95,423.379 1725,420.667C1746.23,413.515 1768.53,409 1791,409C1799.62,409 1808.4,408.501 1817,409.09C1821.8,409.418 1828.14,411.417 1832.79,409.397C1839.37,406.531 1843.47,391.176 1846.31,385C1856.9,361.944 1871.28,338.564 1878,314C1801.71,295.206 1715.8,311.118 1649,351.2C1627.22,364.265 1596.42,383.611 1586.45,408C1579.8,424.274 1581,441.805 1581,459C1581,486.327 1581.66,513.712 1581.66,541.001C1581.67,633.929 1582,726.976 1582,820M961,360C965.865,380.529 977.036,400.412 984.796,420C986.498,424.297 989.352,437.814 994.275,439.187C998.984,440.5 1006.81,434.809 1011,433C1025.88,426.571 1040.61,419.695 1056,414.516C1098.18,400.318 1163.03,389.102 1191.56,434C1195.83,440.715 1198.87,448.354 1200.99,456C1204.38,468.247 1206,481.321 1206,494C1136.83,494 1050.3,481.836 990,523.029C975.162,533.164 962.21,545.578 951.478,560C892.231,639.625 920.634,752.298 1003,803.575C1070.32,845.484 1163.05,832.347 1232,800.691C1254.71,790.264 1277.2,775.585 1295,757.996C1300.46,752.601 1307.44,746.911 1311.03,740C1315.12,732.108 1313.35,720.617 1314.17,712C1316.4,688.566 1317,664.567 1317,641C1317,596.913 1315.09,552.987 1314.01,509C1313.45,485.767 1315.7,461.024 1312.71,438C1308.68,406.99 1291.71,377.211 1269,356.089C1209.58,300.815 1119.42,301.208 1046,324.026C1016.21,333.284 989.59,348.097 961,360M2502,703C2487.58,706.338 2473.73,714.06 2460,719.551C2436.21,729.067 2410.76,738.146 2385,739.911C2369.52,740.97 2353.82,739.67 2339,734.971C2278.16,715.689 2254,640.861 2254,583L2536,583C2536,525.858 2530.96,463.388 2506.22,411C2494.3,385.771 2477.1,361.256 2454,345.042C2386.8,297.877 2273.47,302.241 2214.29,360.424C2192.91,381.439 2177.53,408.628 2165.72,436C2136.75,503.146 2129.61,578.796 2146.24,650C2165.94,734.401 2224.21,810.324 2313,825.75C2371.06,835.837 2432.49,824.516 2486,800.86C2498.67,795.259 2510.97,789.305 2523,782.421C2526.35,780.504 2533.18,778.087 2534.18,773.896C2535.51,768.36 2527.81,757.82 2525.3,753C2516.88,736.857 2509,719.803 2502,703Z" style="fill:rgb(191,191,191);fill-rule:nonzero;"/>
        <path d="M801,318L802,319L801,318Z" style="fill:rgb(191,191,191);fill-rule:nonzero;"/>
        <path d="M1393,338L1393,820L1504,820L1503,322L1393,338Z" style="fill:rgb(191,191,191);fill-rule:nonzero;"/>
        <path d="M159,330L160,331L159,330M585,342L586,343L585,342M148,343L149,344L148,343M993,344L994,345L993,344Z" style="fill:rgb(191,191,191);fill-rule:nonzero;"/>
        <path d="M670,352L671,353L670,352Z" style="fill:rgb(191,191,191);fill-rule:nonzero;"/>
        <path d="M1861,352L1862,353L1861,352M552,354L553,355L552,354M550,355L551,356L550,355Z" style="fill:rgb(191,191,191);fill-rule:nonzero;"/>
        <path d="M546,357L547,358L546,357Z" style="fill:rgb(191,191,191);fill-rule:nonzero;"/>
        <path d="M963,367L964,368L963,367M1607,382L1608,383L1607,382M495,385L496,386L495,385Z" style="fill:rgb(191,191,191);fill-rule:nonzero;"/>
        <path d="M111,393L112,394L111,393Z" style="fill:rgb(191,191,191);fill-rule:nonzero;"/>
        <path d="M475,397L476,398L475,397Z" style="fill:rgb(191,191,191);fill-rule:nonzero;"/>
        <path d="M2261,497L2419,497C2415.46,470.682 2407.3,435.912 2386.91,417.439C2360.59,393.594 2315.3,396.628 2291.09,422.015C2273.9,440.036 2263.02,472.332 2261,497Z" style="fill:white;fill-rule:nonzero;"/>
        <path d="M447,414L448,415L447,414M701,419L702,420L701,419M92,430L93,431L92,430M392,449L393,450L392,449Z" style="fill:rgb(191,191,191);fill-rule:nonzero;"/>
        <path d="M782,450L783,451L782,450Z" style="fill:rgb(191,191,191);fill-rule:nonzero;"/>
        <path d="M1694,455L1695,456L1694,455M377,459L378,460L377,459M2525,471L2526,472L2525,471M772,475L773,476L772,475Z" style="fill:rgb(191,191,191);fill-rule:nonzero;"/>
        <path d="M346,481L347,482L346,481M768,484L769,485L768,484Z" style="fill:rgb(191,191,191);fill-rule:nonzero;"/>
        <path d="M320,501L321,502L320,501M86,510L87,511L86,510M300,516L301,517L300,516Z" style="fill:rgb(191,191,191);fill-rule:nonzero;"/>
        <path d="M750,518L751,519L750,518M673,536L674,537L673,536Z" style="fill:rgb(191,191,191);fill-rule:nonzero;"/>
        <path d="M102,537L103,538L102,537M1581,539L1582,540L1581,539M261,543L262,544L261,543Z" style="fill:rgb(191,191,191);fill-rule:nonzero;"/>
        <path d="M108,544L109,545L108,544M1581,548L1582,549L1581,548M242,554L243,555L242,554M236,557L237,558L236,557Z" style="fill:rgb(191,191,191);fill-rule:nonzero;"/>
        <path d="M1581,557L1582,558L1581,557M1581.33,563.667L1581.67,564.333L1581.33,563.667M136,564L137,565L136,564Z" style="fill:rgb(191,191,191);fill-rule:nonzero;"/>
        <path d="M138,565L139,566L138,565M211,567L212,568L211,567Z" style="fill:rgb(191,191,191);fill-rule:nonzero;"/>
        <path d="M169,573L170,574L169,573Z" style="fill:rgb(191,191,191);fill-rule:nonzero;"/>
        <path d="M417,574L418,575L417,574Z" style="fill:rgb(191,191,191);fill-rule:nonzero;"/>
        <path d="M1201,584C1169.79,584 1137.96,580.778 1107,585.13C1093.86,586.977 1080.46,590.755 1069,597.63C1026.38,623.203 1033.54,687.462 1066,717.91C1088.99,739.464 1125.35,743.36 1155,736.346C1169.27,732.969 1189.1,724.834 1197.4,711.999C1203.36,702.78 1202,683.657 1202,673C1202,643.285 1201,613.724 1201,584Z" style="fill:white;fill-rule:nonzero;"/>
        <path d="M439,586L440,587L439,586M328,594L329,595L328,594M930,598L931,599L930,598M682,613L683,614L682,613Z" style="fill:rgb(191,191,191);fill-rule:nonzero;"/>
        <path d="M295,628L296,629L295,628Z" style="fill:rgb(191,191,191);fill-rule:nonzero;"/>
        <path d="M438,641L439,642L438,641M594,642L595,643L594,642M633,662L634,663L633,662M624,670L625,671L624,670Z" style="fill:rgb(191,191,191);fill-rule:nonzero;"/>
        <path d="M412,671L413,672L412,671M554,679L555,680L554,679Z" style="fill:rgb(191,191,191);fill-rule:nonzero;"/>
        <path d="M552,681L553,682L552,681M395,688L396,689L395,688M262,689L263,690L262,689M525,703L526,704L525,703M580,706L581,707L580,706M572,712L573,713L572,712M366,717L367,718L366,717M505,719L506,720L505,719Z" style="fill:rgb(191,191,191);fill-rule:nonzero;"/>
        <path d="M498,724L499,725L498,724M357,727L358,728L357,727M538,737L539,738L538,737Z" style="fill:rgb(191,191,191);fill-rule:nonzero;"/>
        <path d="M532,741L533,742L532,741M344,743L345,744L344,743M1581,743L1582,744L1581,743M468,746L469,747L468,746Z" style="fill:rgb(191,191,191);fill-rule:nonzero;"/>
        <path d="M338,752L339,753L338,752Z" style="fill:rgb(191,191,191);fill-rule:nonzero;"/>
        <path d="M2526,755L2527,756L2526,755M432,769L433,770L432,769M325.333,778.667L325.667,779.333L325.333,778.667M473,779L474,780L473,779Z" style="fill:rgb(191,191,191);fill-rule:nonzero;"/>
        <path d="M325,780L326,781L325,780Z" style="fill:rgb(191,191,191);fill-rule:nonzero;"/>
        <path d="M408,782L409,783L408,782M404,784L405,785L404,784M2643,797L2644,798L2643,797M417,808L418,809L417,808M288,818L289,819L288,818Z" style="fill:rgb(191,191,191);fill-rule:nonzero;"/>
    </g>
</svg>
