<?xml version="1.0" encoding="UTF-8" standalone="no"?>
<!DOCTYPE svg PUBLIC "-//W3C//DTD SVG 1.1//EN" "http://www.w3.org/Graphics/SVG/1.1/DTD/svg11.dtd">
<svg width="100%" height="100%" viewBox="0 0 3000 2000" version="1.1" xmlns="http://www.w3.org/2000/svg" xmlns:xlink="http://www.w3.org/1999/xlink" xml:space="preserve" xmlns:serif="http://www.serif.com/" style="fill-rule:evenodd;clip-rule:evenodd;stroke-linejoin:round;stroke-miterlimit:2;">
    <g>
        <path d="M834,1113C820.557,1113 800.7,1111.06 788,1115.6C779.548,1118.62 771.803,1127.68 764,1132.4C746.719,1142.84 728.28,1150.98 709,1156.97C618.464,1185.11 496.041,1175.98 428.09,1103C416.387,1090.43 406.903,1075.77 400.15,1060C394.365,1046.49 390.286,1031.67 389,1017C381.289,929.016 450.031,862.298 530,838.28C550.153,832.227 570.194,829.177 591,826.714C599.132,825.752 613.233,823.498 620.941,826.742C628.383,829.875 620.885,838.147 618.141,842C608.314,855.801 598.293,869.444 588.127,883C559.001,921.834 528.91,960.805 504.72,1003C492.907,1023.61 480.491,1042.69 489.815,1067C505.341,1107.48 553.519,1103.94 589,1104C598.002,1104.01 606.953,1105 616,1105C670.46,1105 724.697,1104.42 779,1102.04C791.952,1101.47 805.048,1101 818,1101C825.495,1101 835.303,1101.67 842,1097.77C866.71,1083.39 876.331,1041.15 878.83,1015C884.544,955.21 854.866,897.128 808,860.888C793.209,849.451 777.69,840.097 761,831.753C755.694,829.1 747.122,823.18 741.004,823.647C734.592,824.136 727.325,836.423 726,842C787.897,859.824 837.996,929.372 838,993C838.001,1010.49 838.471,1039.11 823.957,1051.77C817.869,1057.08 809.479,1055.91 802,1056C789.693,1056.15 777.373,1057 765,1057C723.408,1057 681.671,1058 640,1058C627.943,1058 615.996,1057.31 604,1057.01C597.64,1056.86 590.043,1058.22 584,1055.85C576.193,1052.79 572.299,1043.86 574.585,1035.96C578.78,1021.46 590.299,1007.71 598.192,995C625.835,950.505 658.717,908.855 691.4,868C699.351,858.06 707.498,848.207 715.104,838C718.335,833.664 722.155,828.602 719.562,823.015C715.489,814.239 700.31,813.23 692,811.349C663.276,804.85 634.305,804 605,804C494.516,804 357.973,864.055 346.17,988C339.132,1061.9 388.207,1129.17 451,1162.22C530.522,1204.08 638.53,1207.23 723,1179.67C761.148,1167.22 810.026,1147.03 834,1113M977,891L977,995C977,1024.71 978.753,1057.1 1002,1078.91C1025.4,1100.85 1055.05,1101 1085,1101L1602,1101C1617.11,1101 1636.34,1104.21 1651,1100.58C1659.44,1098.49 1667.69,1090.73 1675,1086.19C1693.84,1074.48 1712.54,1062.3 1731,1050C1738.19,1045.21 1750.38,1033.73 1759,1032.79C1766.35,1031.99 1779.32,1045.86 1785,1050.13L1830,1083.87C1837.3,1089.35 1844.79,1096.68 1853,1100.7C1861.96,1105.07 1878.14,1102 1888,1102L1972,1102C1960.33,1086.78 1938.35,1075.14 1923,1063.63L1857,1014.13C1847.04,1006.65 1836.45,995.848 1825,991L1825,989L1865,964.053L1945,912L1945,987C1945,1018.08 1945.55,1049.29 1967.29,1074C1997.81,1108.67 2049.84,1101 2091,1101L2560,1101C2590.56,1101 2620.82,1101.58 2641.71,1075C2668.52,1040.89 2649.47,992.327 2610,979.004C2586.84,971.187 2559.13,975 2535,975L2394,975C2395.1,950.962 2417.56,934.342 2440,932.17C2461.6,930.08 2484.3,932 2506,932L2635,932L2635,891L2489,891C2459.1,891 2428.05,888.104 2399,896.427C2346.85,911.373 2305.04,961.968 2305,1017C2372.72,1017 2440.28,1016 2508,1016C2524.77,1016 2569.37,1011.41 2566.01,1040C2562.82,1067.15 2517.21,1060 2499,1060L2282,1060L2282,891L2205,891L2205,1058L2084,1058C2068.11,1058 2047.43,1062.01 2035.02,1049.96C2021.61,1036.93 2023,1017.18 2023,1000L2023,891L1935,891C1923.79,891 1906.4,887.727 1896,892.086C1887.16,895.791 1879.07,902.823 1871,907.947C1852.89,919.439 1835.11,931.454 1817,942.947C1809.98,947.399 1796.45,960.45 1788,960.303C1780.49,960.172 1768.88,947.535 1763,943.127C1747.04,931.156 1730.96,919.345 1715,907.373C1708.34,902.381 1700.15,893.562 1692,891.43C1680.12,888.323 1664.28,891 1652,891L1444,891C1422.75,891 1400.1,888.762 1379,891.286C1336.93,896.317 1298.5,919.192 1276.6,956C1268.96,968.841 1264.72,982.649 1261,997L1319,997L1319,998C1304.09,1005.43 1291.7,1021.09 1283.06,1035C1279.75,1040.34 1275.64,1054.96 1269.87,1057.4C1265.74,1059.14 1259.41,1058 1255,1058L1109,1058C1091.47,1058 1072.98,1060.92 1061.97,1044C1052.6,1029.62 1054,1008.46 1054,992L1054,891L977,891Z" style="fill:rgb(191,191,191);fill-rule:nonzero;"/>
        <path d="M1598,910L1598,933C1534.18,933 1468.64,928.63 1405,933.089C1384.83,934.503 1363.82,951.104 1362,972L1580,972L1580,1014C1537.36,1014 1494.55,1013.1 1452,1014.96C1436.24,1015.65 1419.62,1013.05 1404,1015.3C1382.72,1018.37 1364.45,1037.24 1364,1059L1614,1059L1641,1058.3L1669,1040.67L1723,1005C1716.84,992.877 1695.97,982.498 1685,974.576C1655.93,953.583 1628.43,928.949 1598,910Z" style="fill:white;fill-rule:nonzero;"/>
    </g>
</svg>
