<?xml version="1.0" encoding="UTF-8" standalone="no"?>
<!DOCTYPE svg PUBLIC "-//W3C//DTD SVG 1.1//EN" "http://www.w3.org/Graphics/SVG/1.1/DTD/svg11.dtd">
<svg width="100%" height="100%" viewBox="0 0 3000 2000" version="1.1" xmlns="http://www.w3.org/2000/svg" xmlns:xlink="http://www.w3.org/1999/xlink" xml:space="preserve" xmlns:serif="http://www.serif.com/" style="fill-rule:evenodd;clip-rule:evenodd;stroke-linejoin:round;stroke-miterlimit:2;">
    <g>
        <path d="M527,802.424C490.481,807.233 457.297,817.776 427,839.427C407.138,853.621 390.804,871.754 377.333,892C365.444,909.869 356.942,930.241 351.63,951C317.41,1084.71 432.646,1213.68 569,1196.72C597.967,1193.11 626.432,1183.12 651,1167.31C763.53,1094.86 773.14,925.492 666,843.235C645.966,827.854 623.282,816.26 599,809.291C576.498,802.832 550.355,799.349 527,802.424Z" style="fill:rgb(191,191,191);fill-rule:nonzero;"/>
        <path d="M517,803L518,804L517,803M570,803L571,804L570,803M582,805L583,806L582,805M500,806L501,807L500,806M587,806L588,807L587,806M496,807L497,808L496,807M492,808L493,809L492,808M485,810L486,811L485,810M611,813L612,814L611,813Z" style="fill:rgb(191,191,191);fill-rule:nonzero;"/>
        <path d="M473,814L474,815L473,814M525,815L526,816L525,815Z" style="fill:rgb(191,191,191);fill-rule:nonzero;"/>
        <path d="M468,816L469,817L468,816Z" style="fill:rgb(191,191,191);fill-rule:nonzero;"/>
        <path d="M570,816L571,817L570,816M619,816L620,817L619,816M576,817L577,818L576,817M461,819L462,820L461,819Z" style="fill:rgb(191,191,191);fill-rule:nonzero;"/>
        <path d="M501,819L502,820L501,819M459,820L460,821L459,820Z" style="fill:rgb(191,191,191);fill-rule:nonzero;"/>
        <path d="M497,820L498,821L497,820Z" style="fill:rgb(191,191,191);fill-rule:nonzero;"/>
        <path d="M590,820L591,821L590,820Z" style="fill:rgb(191,191,191);fill-rule:nonzero;"/>
        <path d="M628,820L629,821L628,820Z" style="fill:rgb(191,191,191);fill-rule:nonzero;"/>
        <path d="M630,821L631,822L630,821Z" style="fill:rgb(191,191,191);fill-rule:nonzero;"/>
        <path d="M490,822L491,823L490,822M597,822L598,823L597,822Z" style="fill:rgb(191,191,191);fill-rule:nonzero;"/>
        <path d="M453,823L454,824L453,823Z" style="fill:rgb(191,191,191);fill-rule:nonzero;"/>
        <path d="M451,824L452,825L451,824M449,825L450,826L449,825Z" style="fill:rgb(191,191,191);fill-rule:nonzero;"/>
        <path d="M606,825L607,826L606,825Z" style="fill:rgb(191,191,191);fill-rule:nonzero;"/>
        <path d="M638,825L639,826L638,825M609,826L610,827L609,826Z" style="fill:rgb(191,191,191);fill-rule:nonzero;"/>
        <path d="M473,828L474,829L473,828M442,829L443,830L442,829Z" style="fill:rgb(191,191,191);fill-rule:nonzero;"/>
        <path d="M645,829L646,830L645,829Z" style="fill:rgb(191,191,191);fill-rule:nonzero;"/>
        <path d="M437,832L438,833L437,832Z" style="fill:rgb(191,191,191);fill-rule:nonzero;"/>
        <path d="M464,832L465,833L464,832M462,833L463,834L462,833Z" style="fill:rgb(191,191,191);fill-rule:nonzero;"/>
        <path d="M625,833L626,834L625,833Z" style="fill:rgb(191,191,191);fill-rule:nonzero;"/>
        <path d="M434,834L435,835L434,834M460,834L461,835L460,834Z" style="fill:rgb(191,191,191);fill-rule:nonzero;"/>
        <path d="M627,834L628,835L627,834Z" style="fill:rgb(191,191,191);fill-rule:nonzero;"/>
        <path d="M653,834L654,835L653,834Z" style="fill:rgb(191,191,191);fill-rule:nonzero;"/>
        <path d="M458,835L459,836L458,835Z" style="fill:rgb(191,191,191);fill-rule:nonzero;"/>
        <path d="M431,836L432,837L431,836M631,836L632,837L631,836Z" style="fill:rgb(191,191,191);fill-rule:nonzero;"/>
        <path d="M656,836L657,837L656,836Z" style="fill:rgb(191,191,191);fill-rule:nonzero;"/>
        <path d="M660,839L661,840L660,839Z" style="fill:rgb(191,191,191);fill-rule:nonzero;"/>
        <path d="M449,840L450,841L449,840Z" style="fill:rgb(191,191,191);fill-rule:nonzero;"/>
        <path d="M424,841L425,842L424,841M646,845L647,846L646,845Z" style="fill:rgb(191,191,191);fill-rule:nonzero;"/>
        <path d="M668,845L669,846L668,845Z" style="fill:rgb(191,191,191);fill-rule:nonzero;"/>
        <path d="M438,847L439,848L438,847M413,850L414,851L413,850Z" style="fill:rgb(191,191,191);fill-rule:nonzero;"/>
        <path d="M434,850L435,851L434,850Z" style="fill:rgb(191,191,191);fill-rule:nonzero;"/>
        <path d="M653,850L654,851L653,850Z" style="fill:rgb(191,191,191);fill-rule:nonzero;"/>
        <path d="M674,850L675,851L674,850Z" style="fill:rgb(191,191,191);fill-rule:nonzero;"/>
        <path d="M412,851L413,852L412,851M430,853L431,854L430,853M426,856L427,857L426,856Z" style="fill:rgb(191,191,191);fill-rule:nonzero;"/>
        <path d="M425,857L426,858L425,857Z" style="fill:rgb(191,191,191);fill-rule:nonzero;"/>
        <path d="M662,857L663,858L662,857Z" style="fill:rgb(191,191,191);fill-rule:nonzero;"/>
        <path d="M663,858L664,859L663,858Z" style="fill:rgb(191,191,191);fill-rule:nonzero;"/>
        <path d="M418,863L419,864L418,863M1480,864L1481,865L1480,864Z" style="fill:rgb(191,191,191);fill-rule:nonzero;"/>
        <path d="M1417,942L1389,942L1389,989L1417,989L1417,1132L1475,1132L1475,989L1517,989L1517,942L1475,942C1475,937.32 1474.73,932.575 1475.9,928C1480.82,908.838 1502.42,912.96 1517,913L1517,866C1479.43,861.251 1434.49,865.649 1421.03,908C1417.52,919.038 1417,930.521 1417,942Z" style="fill:rgb(191,191,191);fill-rule:nonzero;"/>
        <path d="M1504,864L1505,865L1504,864M416,865L417,866L416,865M415,866L416,867L415,866Z" style="fill:rgb(191,191,191);fill-rule:nonzero;"/>
        <path d="M414,867L415,868L414,867Z" style="fill:rgb(191,191,191);fill-rule:nonzero;"/>
        <path d="M673,867L674,868L673,867M395,868L396,869L395,868M674,868L675,869L674,868Z" style="fill:rgb(191,191,191);fill-rule:nonzero;"/>
        <path d="M692,868L693,869L692,868Z" style="fill:rgb(191,191,191);fill-rule:nonzero;"/>
        <path d="M1005,868L1005,1132L1180,1132L1180,1078L1067,1078L1067,868L1005,868M1676,868L1676,1132L1734,1132L1734,1051C1734,1036.77 1731.82,1020.61 1736.7,1007C1744.6,984.979 1778.41,980.274 1793.81,997.04C1804.05,1008.18 1802,1025.06 1802,1039L1802,1132L1860,1132L1860,1033C1860,1008.62 1860.06,982.247 1846.3,961C1830.23,936.185 1792.67,931.704 1766,938.13C1754.26,940.959 1740.36,947.506 1735,959L1734,959L1734,868L1676,868Z" style="fill:rgb(191,191,191);fill-rule:nonzero;"/>
        <path d="M394,869L395,870L394,869Z" style="fill:rgb(191,191,191);fill-rule:nonzero;"/>
        <path d="M675,869L676,870L675,869M693,869L694,870L693,869M411,870L412,871L411,870Z" style="fill:rgb(191,191,191);fill-rule:nonzero;"/>
        <path d="M676,870L677,871L676,870Z" style="fill:rgb(191,191,191);fill-rule:nonzero;"/>
        <path d="M1455,870L1456,871L1455,870M410,871L411,872L410,871Z" style="fill:rgb(191,191,191);fill-rule:nonzero;"/>
        <path d="M1453,871L1454,872L1453,871M409,872L410,873L409,872Z" style="fill:rgb(191,191,191);fill-rule:nonzero;"/>
        <path d="M1447,874L1448,875L1447,874Z" style="fill:rgb(191,191,191);fill-rule:nonzero;"/>
        <path d="M698,875L699,876L698,875Z" style="fill:rgb(191,191,191);fill-rule:nonzero;"/>
        <path d="M1441,878L1442,879L1441,878Z" style="fill:rgb(191,191,191);fill-rule:nonzero;"/>
        <path d="M701,879L702,880L701,879M1440,879L1441,880L1440,879M385,880L386,881L385,880Z" style="fill:rgb(191,191,191);fill-rule:nonzero;"/>
        <path d="M685,880L686,881L685,880M401,881L402,882L401,881Z" style="fill:rgb(191,191,191);fill-rule:nonzero;"/>
        <path d="M400,882L401,883L400,882M397,886L398,887L397,886Z" style="fill:rgb(191,191,191);fill-rule:nonzero;"/>
        <path d="M1559,886L1559,942L1531,942L1531,989L1559,989L1559,1026C1559,1063.83 1552.53,1114.42 1597,1130.3C1603.66,1132.68 1610.94,1134.34 1618,1134.91C1632.47,1136.08 1645.62,1134.82 1660,1133L1660,1086C1648.87,1087.41 1633.41,1089.7 1624.3,1081.47C1616.19,1074.14 1617,1062.94 1617,1053L1617,989L1660,989L1660,942L1617,942L1617,886L1559,886Z" style="fill:rgb(191,191,191);fill-rule:nonzero;"/>
        <path d="M380,887L381,888L380,887Z" style="fill:rgb(191,191,191);fill-rule:nonzero;"/>
        <path d="M707,887L708,888L707,887Z" style="fill:rgb(191,191,191);fill-rule:nonzero;"/>
        <path d="M1431,888L1432,889L1431,888Z" style="fill:rgb(191,191,191);fill-rule:nonzero;"/>
        <path d="M1430,889L1431,890L1430,889Z" style="fill:rgb(191,191,191);fill-rule:nonzero;"/>
        <path d="M378,890L379,891L378,890Z" style="fill:rgb(191,191,191);fill-rule:nonzero;"/>
        <path d="M394,890L395,891L394,890Z" style="fill:rgb(191,191,191);fill-rule:nonzero;"/>
        <path d="M693,890L694,891L693,890Z" style="fill:rgb(191,191,191);fill-rule:nonzero;"/>
        <path d="M709,890L710,891L709,890M376,893L377,894L376,893Z" style="fill:rgb(191,191,191);fill-rule:nonzero;"/>
        <path d="M391,894L392,895L391,894Z" style="fill:rgb(191,191,191);fill-rule:nonzero;"/>
        <path d="M389,897L390,898L389,897M1425,897L1426,898L1425,897Z" style="fill:rgb(191,191,191);fill-rule:nonzero;"/>
        <path d="M714,898L715,899L714,898Z" style="fill:rgb(191,191,191);fill-rule:nonzero;"/>
        <path d="M1424,899L1425,900L1424,899Z" style="fill:rgb(191,191,191);fill-rule:nonzero;"/>
        <path d="M387,900L388,901L387,900Z" style="fill:rgb(191,191,191);fill-rule:nonzero;"/>
        <path d="M1423,901L1424,902L1423,901M701,902L702,903L701,902M370,903L371,904L370,903Z" style="fill:rgb(191,191,191);fill-rule:nonzero;"/>
        <path d="M384,905L385,906L384,905M703,905L704,906L703,905Z" style="fill:rgb(191,191,191);fill-rule:nonzero;"/>
        <path d="M718,905L719,906L718,905Z" style="fill:rgb(191,191,191);fill-rule:nonzero;"/>
        <path d="M368,907L369,908L368,907Z" style="fill:rgb(191,191,191);fill-rule:nonzero;"/>
        <path d="M704,907L705,908L704,907Z" style="fill:rgb(191,191,191);fill-rule:nonzero;"/>
        <path d="M719,907L720,908L719,907M367,909L368,910L367,909Z" style="fill:rgb(191,191,191);fill-rule:nonzero;"/>
        <path d="M720,909L721,910L720,909M721,911L722,912L721,911M380,912L381,913L380,912Z" style="fill:rgb(191,191,191);fill-rule:nonzero;"/>
        <path d="M1496,912L1497,913L1496,912M1508,912L1509,913L1508,912Z" style="fill:rgb(191,191,191);fill-rule:nonzero;"/>
        <path d="M1419,913L1420,914L1419,913Z" style="fill:rgb(191,191,191);fill-rule:nonzero;"/>
        <path d="M379,914L380,915L379,914M708,914L709,915L708,914M364,915L365,916L364,915Z" style="fill:rgb(191,191,191);fill-rule:nonzero;"/>
        <path d="M723,915L724,916L723,915M378,916L379,917L378,916Z" style="fill:rgb(191,191,191);fill-rule:nonzero;"/>
        <path d="M363,917L364,918L363,917Z" style="fill:rgb(191,191,191);fill-rule:nonzero;"/>
        <path d="M377,918L378,919L377,918M1418,918L1419,919L1418,918M376,920L377,921L376,920Z" style="fill:rgb(191,191,191);fill-rule:nonzero;"/>
        <path d="M1477,922L1478,923L1477,922Z" style="fill:rgb(191,191,191);fill-rule:nonzero;"/>
        <path d="M360,924L361,925L360,924Z" style="fill:rgb(191,191,191);fill-rule:nonzero;"/>
        <path d="M727,924L728,925L727,924M1417,926L1418,927L1417,926Z" style="fill:rgb(191,191,191);fill-rule:nonzero;"/>
        <path d="M358,929L359,930L358,929M372,929L373,930L372,929M715,929L716,930L715,929Z" style="fill:rgb(191,191,191);fill-rule:nonzero;"/>
        <path d="M370,934L371,935L370,934M1799,936L1800,937L1799,936Z" style="fill:rgb(191,191,191);fill-rule:nonzero;"/>
        <path d="M1887,999L1943,999C1946.18,977.803 1974.84,976.743 1991,983.069C1998.09,985.847 2006.06,993.959 2001.14,1001.98C1993.64,1014.2 1965.55,1011.82 1953,1013.17C1922.41,1016.44 1886.32,1024.53 1877.9,1059C1876.06,1066.54 1875.7,1074.27 1876.04,1082C1877.97,1126.13 1918.63,1141.37 1957,1137.05C1973.84,1135.15 1997.33,1126.46 2005,1110L2006,1110L2006,1132L2059,1132L2059,1018C2059,996.677 2058.94,973.404 2042.96,957.015C2029.41,943.119 2010.64,938.829 1992,936.834C1947.31,932.05 1887.16,942.734 1887,999M2137,961L2136,961L2136,942L2082,942L2082,1132L2139,1132L2139,1051C2139,1036.91 2137.15,1020.46 2142.09,1007C2150.11,985.19 2184.2,979.996 2199.52,997.174C2209.34,1008.18 2207,1024.44 2207,1038L2207,1132L2265,1132L2265,1031C2265,1007.99 2265.58,983.33 2252.93,963C2232.21,929.678 2156.53,921.789 2137,961Z" style="fill:rgb(191,191,191);fill-rule:nonzero;"/>
        <path d="M2355,936L2356,937L2355,936Z" style="fill:rgb(191,191,191);fill-rule:nonzero;"/>
        <path d="M2279,1073C2279.8,1083.18 2281.18,1093.77 2285.81,1103C2303.61,1138.52 2352.81,1139.83 2387,1137.09C2418.23,1134.58 2451.58,1120.67 2456.7,1086C2457.82,1078.41 2457.5,1071.58 2456.98,1064C2454.3,1024.97 2412.93,1015.68 2381,1011.84C2371.37,1010.69 2337.35,1008.62 2346.18,991.001C2352.77,977.843 2378.39,978.02 2388.98,985.649C2393.13,988.632 2394.8,997.334 2399.23,998.682C2414.32,1003.28 2437.17,999 2453,999C2452.53,942.338 2391.19,930.353 2346,937.754C2319.78,942.047 2294.63,956.295 2288.43,984C2286.93,990.655 2286.92,997.211 2287,1004C2287.56,1050.92 2337.02,1057.01 2373,1062C2383.16,1063.41 2407.96,1069.77 2397.3,1084.96C2387.84,1098.43 2355.78,1096.27 2344.04,1087.36C2339.82,1084.16 2338.44,1074.74 2333.77,1073.32C2328.6,1071.74 2321.39,1073 2316,1073L2279,1073Z" style="fill:rgb(191,191,191);fill-rule:nonzero;"/>
        <path d="M2552,936L2553,937L2552,936Z" style="fill:rgb(191,191,191);fill-rule:nonzero;"/>
        <path d="M2482,999L2538,999C2542.27,978.639 2568.21,976.54 2585,982.549C2592.52,985.239 2601.35,993.486 2596.14,1001.98C2588.68,1014.17 2560.58,1011.91 2548,1013.17C2518.32,1016.14 2482.67,1024.2 2473.43,1057C2471.36,1064.35 2470.83,1072.39 2471.01,1080C2472.13,1125.41 2514.27,1142.58 2554,1136.87C2570.34,1134.52 2592.55,1125.98 2600,1110L2601,1110L2601,1132L2654,1132L2654,1019C2654,997.049 2654.3,973.971 2637.96,957.004C2624.32,942.845 2605.79,938.846 2587,936.834C2542.25,932.043 2482.47,942.804 2482,999Z" style="fill:rgb(191,191,191);fill-rule:nonzero;"/>
        <path d="M718,937L719,938L718,937Z" style="fill:rgb(191,191,191);fill-rule:nonzero;"/>
        <path d="M1768,937L1769,938L1768,937Z" style="fill:rgb(191,191,191);fill-rule:nonzero;"/>
        <path d="M1998,937L1999,938L1998,937Z" style="fill:rgb(191,191,191);fill-rule:nonzero;"/>
        <path d="M2172,937L2173,938L2172,937Z" style="fill:rgb(191,191,191);fill-rule:nonzero;"/>
        <path d="M2347,937L2348,938L2347,937Z" style="fill:rgb(191,191,191);fill-rule:nonzero;"/>
        <path d="M2393,937L2394,938L2393,937Z" style="fill:rgb(191,191,191);fill-rule:nonzero;"/>
        <path d="M2543,937L2544,938L2543,937M2593,937L2594,938L2593,937Z" style="fill:rgb(191,191,191);fill-rule:nonzero;"/>
        <path d="M1764,938L1765,939L1764,938M1811,938L1812,939L1811,938M2004,938L2005,939L2004,938Z" style="fill:rgb(191,191,191);fill-rule:nonzero;"/>
        <path d="M2216,938L2217,939L2216,938Z" style="fill:rgb(191,191,191);fill-rule:nonzero;"/>
        <path d="M2399,938L2400,939L2399,938Z" style="fill:rgb(191,191,191);fill-rule:nonzero;"/>
        <path d="M1815,939L1816,940L1815,939Z" style="fill:rgb(191,191,191);fill-rule:nonzero;"/>
        <path d="M1937,939L1938,940L1937,939Z" style="fill:rgb(191,191,191);fill-rule:nonzero;"/>
        <path d="M2009,939L2010,940L2009,939Z" style="fill:rgb(191,191,191);fill-rule:nonzero;"/>
        <path d="M2164,939L2165,940L2164,939Z" style="fill:rgb(191,191,191);fill-rule:nonzero;"/>
        <path d="M2220,939L2221,940L2220,939M2337,939L2338,940L2337,939Z" style="fill:rgb(191,191,191);fill-rule:nonzero;"/>
        <path d="M2532,939L2533,940L2532,939Z" style="fill:rgb(191,191,191);fill-rule:nonzero;"/>
        <path d="M719,940L720,941L719,940Z" style="fill:rgb(191,191,191);fill-rule:nonzero;"/>
        <path d="M1818,940L1819,941L1818,940M2013,940L2014,941L2013,940M2223,940L2224,941L2223,940Z" style="fill:rgb(191,191,191);fill-rule:nonzero;"/>
        <path d="M2333,940L2334,941L2333,940Z" style="fill:rgb(191,191,191);fill-rule:nonzero;"/>
        <path d="M2528,940L2529,941L2528,940Z" style="fill:rgb(191,191,191);fill-rule:nonzero;"/>
        <path d="M733,941L734,942L733,941Z" style="fill:rgb(191,191,191);fill-rule:nonzero;"/>
        <path d="M1821,941L1822,942L1821,941M2016,941L2017,942L2016,941M2226,941L2227,942L2226,941Z" style="fill:rgb(191,191,191);fill-rule:nonzero;"/>
        <path d="M1192,942L1192,1041C1192,1064.36 1191.93,1090.4 1204.62,1111C1225.04,1144.16 1299.63,1151.88 1319,1113L1320,1113L1320,1132L1374,1132L1374,942L1317,942L1317,1021C1317,1035.57 1318.9,1051.96 1314.25,1066C1307.14,1087.45 1274.95,1093.74 1259.1,1077.9C1248.32,1067.11 1250,1049.92 1250,1036L1250,942L1192,942Z" style="fill:rgb(191,191,191);fill-rule:nonzero;"/>
        <path d="M1753,942L1754,943L1753,942Z" style="fill:rgb(191,191,191);fill-rule:nonzero;"/>
        <path d="M2327,942L2328,943L2327,942Z" style="fill:rgb(191,191,191);fill-rule:nonzero;"/>
        <path d="M720,943L721,944L720,943Z" style="fill:rgb(191,191,191);fill-rule:nonzero;"/>
        <path d="M1924,943L1925,944L1924,943M2519,943L2520,944L2519,943M2617,943L2618,944L2617,943M353,944L354,945L353,944M2024,944L2025,945L2024,944Z" style="fill:rgb(191,191,191);fill-rule:nonzero;"/>
        <path d="M2153,944L2154,945L2153,944Z" style="fill:rgb(191,191,191);fill-rule:nonzero;"/>
        <path d="M2322,944L2323,945L2322,944Z" style="fill:rgb(191,191,191);fill-rule:nonzero;"/>
        <path d="M2418,944L2419,945L2418,944Z" style="fill:rgb(191,191,191);fill-rule:nonzero;"/>
        <path d="M1829,945L1830,946L1829,945Z" style="fill:rgb(191,191,191);fill-rule:nonzero;"/>
        <path d="M2320,945L2321,946L2320,945M721,946L722,947L721,946Z" style="fill:rgb(191,191,191);fill-rule:nonzero;"/>
        <path d="M2236,946L2237,947L2236,946Z" style="fill:rgb(191,191,191);fill-rule:nonzero;"/>
        <path d="M2422,946L2423,947L2422,946Z" style="fill:rgb(191,191,191);fill-rule:nonzero;"/>
        <path d="M1745,947L1746,948L1745,947Z" style="fill:rgb(191,191,191);fill-rule:nonzero;"/>
        <path d="M2316,947L2317,948L2316,947M2424,947L2425,948L2424,947Z" style="fill:rgb(191,191,191);fill-rule:nonzero;"/>
        <path d="M735,948L736,949L735,948Z" style="fill:rgb(191,191,191);fill-rule:nonzero;"/>
        <path d="M2147,948L2148,949L2147,948M2239,948L2240,949L2239,948M2627,948L2628,949L2627,948Z" style="fill:rgb(191,191,191);fill-rule:nonzero;"/>
        <path d="M365,949L366,950L365,949M1835,949L1836,950L1835,949Z" style="fill:rgb(191,191,191);fill-rule:nonzero;"/>
        <path d="M1912,949L1913,950L1912,949M2630,950L2631,951L2630,950Z" style="fill:rgb(191,191,191);fill-rule:nonzero;"/>
        <path d="M379.333,951.667L379.667,952.333L379.333,951.667Z" style="fill:rgb(191,191,191);fill-rule:nonzero;"/>
        <path d="M589,951L590,952L589,951Z" style="fill:rgb(191,191,191);fill-rule:nonzero;"/>
        <path d="M2036,951L2037,952L2036,951Z" style="fill:rgb(191,191,191);fill-rule:nonzero;"/>
        <path d="M2430,951L2431,952L2430,951Z" style="fill:rgb(191,191,191);fill-rule:nonzero;"/>
        <path d="M578,952L579,953L578,952M736,952L737,953L736,952Z" style="fill:rgb(191,191,191);fill-rule:nonzero;"/>
        <path d="M1908,952L1909,953L1908,952M2503,952L2504,953L2503,952Z" style="fill:rgb(191,191,191);fill-rule:nonzero;"/>
        <path d="M379,953L380,954L379,953Z" style="fill:rgb(191,191,191);fill-rule:nonzero;"/>
        <path d="M2307,953L2308,954L2307,953M2635,954L2636,955L2635,954Z" style="fill:rgb(191,191,191);fill-rule:nonzero;"/>
        <path d="M572,955L573,956L572,955M681,955L682,956L681,955M2140,955L2141,956L2140,955Z" style="fill:rgb(191,191,191);fill-rule:nonzero;"/>
        <path d="M2636,955L2637,956L2636,955Z" style="fill:rgb(191,191,191);fill-rule:nonzero;"/>
        <path d="M409,956L410,957L409,956Z" style="fill:rgb(191,191,191);fill-rule:nonzero;"/>
        <path d="M688,956L689,957L688,956M2637,956L2638,957L2637,956M363,957L364,958L363,957Z" style="fill:rgb(191,191,191);fill-rule:nonzero;"/>
        <path d="M571,957L572,958L571,957Z" style="fill:rgb(191,191,191);fill-rule:nonzero;"/>
        <path d="M694,957L695,958L694,957Z" style="fill:rgb(191,191,191);fill-rule:nonzero;"/>
        <path d="M2638,957L2639,958L2638,957Z" style="fill:rgb(191,191,191);fill-rule:nonzero;"/>
        <path d="M700,958L701,959L700,958Z" style="fill:rgb(191,191,191);fill-rule:nonzero;"/>
        <path d="M423,959L424,960L423,959Z" style="fill:rgb(191,191,191);fill-rule:nonzero;"/>
        <path d="M570,959L571,960L570,959Z" style="fill:rgb(191,191,191);fill-rule:nonzero;"/>
        <path d="M706,959L707,960L706,959Z" style="fill:rgb(191,191,191);fill-rule:nonzero;"/>
        <path d="M2137,959L2138,960L2137,959M2250,959L2251,960L2250,959Z" style="fill:rgb(191,191,191);fill-rule:nonzero;"/>
        <path d="M404,960L405,961L404,960Z" style="fill:rgb(191,191,191);fill-rule:nonzero;"/>
        <path d="M425,960L426,961L425,960Z" style="fill:rgb(191,191,191);fill-rule:nonzero;"/>
        <path d="M710,960L711,961L710,960M362,961L363,962L362,961M634,961L635,962L634,961Z" style="fill:rgb(191,191,191);fill-rule:nonzero;"/>
        <path d="M738,961L739,962L738,961Z" style="fill:rgb(191,191,191);fill-rule:nonzero;"/>
        <path d="M1846,961L1847,962L1846,961Z" style="fill:rgb(191,191,191);fill-rule:nonzero;"/>
        <path d="M2299,961L2300,962L2299,961M383,962L384,963L383,962Z" style="fill:rgb(191,191,191);fill-rule:nonzero;"/>
        <path d="M650,962L651,963L650,962Z" style="fill:rgb(191,191,191);fill-rule:nonzero;"/>
        <path d="M2252,962L2253,963L2252,962M2642,962L2643,963L2642,962M661,963L662,964L661,963Z" style="fill:rgb(191,191,191);fill-rule:nonzero;"/>
        <path d="M670,964L671,965L670,964M436,965L437,966L436,965M678,965L679,966L678,965Z" style="fill:rgb(191,191,191);fill-rule:nonzero;"/>
        <path d="M2296,965L2297,966L2296,965Z" style="fill:rgb(191,191,191);fill-rule:nonzero;"/>
        <path d="M2443,965L2444,966L2443,965Z" style="fill:rgb(191,191,191);fill-rule:nonzero;"/>
        <path d="M2491,965L2492,966L2491,965M2644,965L2645,966L2644,965M348,966L349,967L348,966Z" style="fill:rgb(191,191,191);fill-rule:nonzero;"/>
        <path d="M566,966L567,967L566,966Z" style="fill:rgb(191,191,191);fill-rule:nonzero;"/>
        <path d="M1849,966L1850,967L1849,966Z" style="fill:rgb(191,191,191);fill-rule:nonzero;"/>
        <path d="M394,967L395,968L394,967Z" style="fill:rgb(191,191,191);fill-rule:nonzero;"/>
        <path d="M692,967L693,968L692,967Z" style="fill:rgb(191,191,191);fill-rule:nonzero;"/>
        <path d="M2050,967L2051,968L2050,967Z" style="fill:rgb(191,191,191);fill-rule:nonzero;"/>
        <path d="M396,968L397,969L396,968Z" style="fill:rgb(191,191,191);fill-rule:nonzero;"/>
        <path d="M697,968L698,969L697,968Z" style="fill:rgb(191,191,191);fill-rule:nonzero;"/>
        <path d="M1850,968L1851,969L1850,968M1894,968L1895,969L1894,968M2294,968L2295,969L2294,968M447,970L448,971L447,970Z" style="fill:rgb(191,191,191);fill-rule:nonzero;"/>
        <path d="M1893,970L1894,971L1893,970Z" style="fill:rgb(191,191,191);fill-rule:nonzero;"/>
        <path d="M2293,970L2294,971L2293,970M449,971L450,972L449,971M2052,971L2053,972L2052,971Z" style="fill:rgb(191,191,191);fill-rule:nonzero;"/>
        <path d="M562,972L563,973L562,972Z" style="fill:rgb(191,191,191);fill-rule:nonzero;"/>
        <path d="M2292,972L2293,973L2292,972Z" style="fill:rgb(191,191,191);fill-rule:nonzero;"/>
        <path d="M347,973L348,974L347,973Z" style="fill:rgb(191,191,191);fill-rule:nonzero;"/>
        <path d="M692,973L693,974L692,973Z" style="fill:rgb(191,191,191);fill-rule:nonzero;"/>
        <path d="M2648,973L2649,974L2648,973Z" style="fill:rgb(191,191,191);fill-rule:nonzero;"/>
        <path d="M2291,974L2292,975L2291,974Z" style="fill:rgb(191,191,191);fill-rule:nonzero;"/>
        <path d="M560,975L561,976L560,975Z" style="fill:rgb(191,191,191);fill-rule:nonzero;"/>
        <path d="M695,975L696,976L695,975Z" style="fill:rgb(191,191,191);fill-rule:nonzero;"/>
        <path d="M2448,975L2449,976L2448,975Z" style="fill:rgb(191,191,191);fill-rule:nonzero;"/>
        <path d="M2486,975L2487,976L2486,975Z" style="fill:rgb(191,191,191);fill-rule:nonzero;"/>
        <path d="M460,976L461,977L460,976Z" style="fill:rgb(191,191,191);fill-rule:nonzero;"/>
        <path d="M607,977L608,978L607,977Z" style="fill:rgb(191,191,191);fill-rule:nonzero;"/>
        <path d="M2259,977L2260,978L2259,977Z" style="fill:rgb(191,191,191);fill-rule:nonzero;"/>
        <path d="M416,978L417,979L416,978Z" style="fill:rgb(191,191,191);fill-rule:nonzero;"/>
        <path d="M445,978L446,979L445,978M692,978L693,979L692,978M2449,978L2450,979L2449,978Z" style="fill:rgb(191,191,191);fill-rule:nonzero;"/>
        <path d="M2485,978L2486,979L2485,978M418,979L419,980L418,979M448,979L449,980L448,979M691,979L692,980L691,979Z" style="fill:rgb(191,191,191);fill-rule:nonzero;"/>
        <path d="M2055,979L2056,980L2055,979Z" style="fill:rgb(191,191,191);fill-rule:nonzero;"/>
        <path d="M359,980L360,981L359,980Z" style="fill:rgb(191,191,191);fill-rule:nonzero;"/>
        <path d="M450,980L451,981L450,980Z" style="fill:rgb(191,191,191);fill-rule:nonzero;"/>
        <path d="M556,980L557,981L556,980Z" style="fill:rgb(191,191,191);fill-rule:nonzero;"/>
        <path d="M690,980L691,981L690,980Z" style="fill:rgb(191,191,191);fill-rule:nonzero;"/>
        <path d="M1964,980L1965,981L1964,980Z" style="fill:rgb(191,191,191);fill-rule:nonzero;"/>
        <path d="M2260,980L2261,981L2260,980Z" style="fill:rgb(191,191,191);fill-rule:nonzero;"/>
        <path d="M2575,980L2576,981L2575,980Z" style="fill:rgb(191,191,191);fill-rule:nonzero;"/>
        <path d="M471,981L472,982L471,981M555,981L556,982L555,981M689,981L690,982L689,981M1986,981L1987,982L1986,981M2484,981L2485,982L2484,981Z" style="fill:rgb(191,191,191);fill-rule:nonzero;"/>
        <path d="M473,982L474,983L473,982Z" style="fill:rgb(191,191,191);fill-rule:nonzero;"/>
        <path d="M635,982L636,983L635,982M1855,982L1856,983L1855,982M2356,982L2357,983L2356,982M2550,982L2551,983L2550,982Z" style="fill:rgb(191,191,191);fill-rule:nonzero;"/>
        <path d="M2585,982L2586,983L2585,982M2651,982L2652,983L2651,982Z" style="fill:rgb(191,191,191);fill-rule:nonzero;"/>
        <path d="M425,983L426,984L425,983M447,983L448,984L447,983M457,983L458,984L457,983Z" style="fill:rgb(191,191,191);fill-rule:nonzero;"/>
        <path d="M741,983L742,984L741,983M2353,983L2354,984L2353,983Z" style="fill:rgb(191,191,191);fill-rule:nonzero;"/>
        <path d="M661,984L662,985L661,984Z" style="fill:rgb(191,191,191);fill-rule:nonzero;"/>
        <path d="M2351,984L2352,985L2351,984Z" style="fill:rgb(191,191,191);fill-rule:nonzero;"/>
        <path d="M669,985L670,986L669,985Z" style="fill:rgb(191,191,191);fill-rule:nonzero;"/>
        <path d="M1949,985L1950,986L1949,985Z" style="fill:rgb(191,191,191);fill-rule:nonzero;"/>
        <path d="M1996,985L1997,986L1996,985Z" style="fill:rgb(191,191,191);fill-rule:nonzero;"/>
        <path d="M430,986L431,987L430,986M2543,986L2544,987L2543,986Z" style="fill:rgb(191,191,191);fill-rule:nonzero;"/>
        <path d="M454,987L455,988L454,987M484,987L485,988L484,987Z" style="fill:rgb(191,191,191);fill-rule:nonzero;"/>
        <path d="M1763,987L1764,988L1763,987M2057,987L2058,988L2057,987M2542,987L2543,988L2542,987Z" style="fill:rgb(191,191,191);fill-rule:nonzero;"/>
        <path d="M456,988L457,989L456,988Z" style="fill:rgb(191,191,191);fill-rule:nonzero;"/>
        <path d="M1779,988L1780,989L1779,988M1946,988L1947,989L1946,988M2162,988L2163,989L2162,988M435,989L436,990L435,989Z" style="fill:rgb(191,191,191);fill-rule:nonzero;"/>
        <path d="M471,989L472,990L471,989Z" style="fill:rgb(191,191,191);fill-rule:nonzero;"/>
        <path d="M1753,989L1754,990L1753,989Z" style="fill:rgb(191,191,191);fill-rule:nonzero;"/>
        <path d="M2188,989L2189,990L2188,989M2393,989L2394,990L2393,989Z" style="fill:rgb(191,191,191);fill-rule:nonzero;"/>
        <path d="M473,990L474,991L473,990M546,990L547,991L546,990M1785,990L1786,991L1785,990Z" style="fill:rgb(191,191,191);fill-rule:nonzero;"/>
        <path d="M1887,990L1888,991L1887,990Z" style="fill:rgb(191,191,191);fill-rule:nonzero;"/>
        <path d="M2156,990L2157,991L2156,990Z" style="fill:rgb(191,191,191);fill-rule:nonzero;"/>
        <path d="M1787,991L1788,992L1787,991Z" style="fill:rgb(191,191,191);fill-rule:nonzero;"/>
        <path d="M2154,991L2155,992L2154,991Z" style="fill:rgb(191,191,191);fill-rule:nonzero;"/>
        <path d="M2452,991L2453,992L2452,991Z" style="fill:rgb(191,191,191);fill-rule:nonzero;"/>
        <path d="M463,992L464,993L463,992Z" style="fill:rgb(191,191,191);fill-rule:nonzero;"/>
        <path d="M490,992L491,993L490,992Z" style="fill:rgb(191,191,191);fill-rule:nonzero;"/>
        <path d="M638,992L639,993L638,992Z" style="fill:rgb(191,191,191);fill-rule:nonzero;"/>
        <path d="M1747,992L1748,993L1747,992M2539,992L2540,993L2539,992Z" style="fill:rgb(191,191,191);fill-rule:nonzero;"/>
        <path d="M465,993L466,994L465,993Z" style="fill:rgb(191,191,191);fill-rule:nonzero;"/>
        <path d="M480,993L481,994L480,993Z" style="fill:rgb(191,191,191);fill-rule:nonzero;"/>
        <path d="M2151,993L2152,994L2151,993Z" style="fill:rgb(191,191,191);fill-rule:nonzero;"/>
        <path d="M2395,993L2396,994L2395,993M2653,993L2654,994L2653,993Z" style="fill:rgb(191,191,191);fill-rule:nonzero;"/>
        <path d="M443,994L444,995L443,994M467,994L468,995L467,994Z" style="fill:rgb(191,191,191);fill-rule:nonzero;"/>
        <path d="M541,994L542,995L541,994Z" style="fill:rgb(191,191,191);fill-rule:nonzero;"/>
        <path d="M2058,994L2059,995L2058,994Z" style="fill:rgb(191,191,191);fill-rule:nonzero;"/>
        <path d="M2263,994L2264,995L2263,994M669,995L670,996L669,995Z" style="fill:rgb(191,191,191);fill-rule:nonzero;"/>
        <path d="M1943,995L1944,996L1943,995Z" style="fill:rgb(191,191,191);fill-rule:nonzero;"/>
        <path d="M2198,995L2199,996L2198,995Z" style="fill:rgb(191,191,191);fill-rule:nonzero;"/>
        <path d="M538,996L539,997L538,996Z" style="fill:rgb(191,191,191);fill-rule:nonzero;"/>
        <path d="M1742,996L1743,997L1742,996Z" style="fill:rgb(191,191,191);fill-rule:nonzero;"/>
        <path d="M2199,996L2200,997L2199,996Z" style="fill:rgb(191,191,191);fill-rule:nonzero;"/>
        <path d="M2538,996L2539,997L2538,996M473,997L474,998L473,997M1858,997L1859,998L1858,997Z" style="fill:rgb(191,191,191);fill-rule:nonzero;"/>
        <path d="M475,998L476,999L475,998M535,998L536,999L535,998Z" style="fill:rgb(191,191,191);fill-rule:nonzero;"/>
        <path d="M590,998L591,999L590,998Z" style="fill:rgb(191,191,191);fill-rule:nonzero;"/>
        <path d="M656,999L657,1000L656,999Z" style="fill:rgb(191,191,191);fill-rule:nonzero;"/>
        <path d="M2002,999L2003,1000L2002,999Z" style="fill:rgb(191,191,191);fill-rule:nonzero;"/>
        <path d="M531,1000L532,1001L531,1000Z" style="fill:rgb(191,191,191);fill-rule:nonzero;"/>
        <path d="M664,1000L665,1001L664,1000Z" style="fill:rgb(191,191,191);fill-rule:nonzero;"/>
        <path d="M1739,1000L1740,1001L1739,1000Z" style="fill:rgb(191,191,191);fill-rule:nonzero;"/>
        <path d="M2202,1000L2203,1001L2202,1000M454,1001L455,1002L454,1001M529,1001L530,1002L529,1001M1797,1001L1798,1002L1797,1001M485,1002L486,1003L485,1002Z" style="fill:rgb(191,191,191);fill-rule:nonzero;"/>
        <path d="M2001,1002L2002,1003L2001,1002Z" style="fill:rgb(191,191,191);fill-rule:nonzero;"/>
        <path d="M2264,1002L2265,1003L2264,1002M457,1003L458,1004L457,1003Z" style="fill:rgb(191,191,191);fill-rule:nonzero;"/>
        <path d="M488,1003L489,1004L488,1003M1798,1003L1799,1004L1798,1003Z" style="fill:rgb(191,191,191);fill-rule:nonzero;"/>
        <path d="M665,1004L666,1005L665,1004Z" style="fill:rgb(191,191,191);fill-rule:nonzero;"/>
        <path d="M460,1005L461,1006L460,1005Z" style="fill:rgb(191,191,191);fill-rule:nonzero;"/>
        <path d="M516,1005L517,1006L516,1005Z" style="fill:rgb(191,191,191);fill-rule:nonzero;"/>
        <path d="M2142,1005L2143,1006L2142,1005Z" style="fill:rgb(191,191,191);fill-rule:nonzero;"/>
        <path d="M2350,1005L2351,1006L2350,1005Z" style="fill:rgb(191,191,191);fill-rule:nonzero;"/>
        <path d="M663,1006L664,1007L663,1006M1997,1006L1998,1007L1997,1006Z" style="fill:rgb(191,191,191);fill-rule:nonzero;"/>
        <path d="M2352,1006L2353,1007L2352,1006M2592,1006L2593,1007L2592,1006M463,1007L464,1008L463,1007Z" style="fill:rgb(191,191,191);fill-rule:nonzero;"/>
        <path d="M623,1007L624,1008L623,1007M662,1007L663,1008L662,1007M2205,1007L2206,1008L2205,1007M2590,1007L2591,1008L2590,1007Z" style="fill:rgb(191,191,191);fill-rule:nonzero;"/>
        <path d="M661,1008L662,1009L661,1008M1859,1008L1860,1009L1859,1008Z" style="fill:rgb(191,191,191);fill-rule:nonzero;"/>
        <path d="M1992,1008L1993,1009L1992,1008Z" style="fill:rgb(191,191,191);fill-rule:nonzero;"/>
        <path d="M2587,1008L2588,1009L2587,1008M466,1009L467,1010L466,1009Z" style="fill:rgb(191,191,191);fill-rule:nonzero;"/>
        <path d="M597,1009L598,1010L597,1009Z" style="fill:rgb(191,191,191);fill-rule:nonzero;"/>
        <path d="M658,1009L659,1010L658,1009Z" style="fill:rgb(191,191,191);fill-rule:nonzero;"/>
        <path d="M660,1009L661,1010L660,1009Z" style="fill:rgb(191,191,191);fill-rule:nonzero;"/>
        <path d="M1800,1009L1801,1010L1800,1009Z" style="fill:rgb(191,191,191);fill-rule:nonzero;"/>
        <path d="M1987,1009L1988,1010L1987,1009Z" style="fill:rgb(191,191,191);fill-rule:nonzero;"/>
        <path d="M1979,1010L1980,1011L1979,1010Z" style="fill:rgb(191,191,191);fill-rule:nonzero;"/>
        <path d="M2574,1010L2575,1011L2574,1010M469,1011L470,1012L469,1011Z" style="fill:rgb(191,191,191);fill-rule:nonzero;"/>
        <path d="M2378,1011L2379,1012L2378,1011Z" style="fill:rgb(191,191,191);fill-rule:nonzero;"/>
        <path d="M2140,1012L2141,1013L2140,1012Z" style="fill:rgb(191,191,191);fill-rule:nonzero;"/>
        <path d="M2555,1012L2556,1013L2555,1012Z" style="fill:rgb(191,191,191);fill-rule:nonzero;"/>
        <path d="M472,1013L473,1014L472,1013M1950,1013L1951,1014L1950,1013Z" style="fill:rgb(191,191,191);fill-rule:nonzero;"/>
        <path d="M2398,1014L2399,1015L2398,1014Z" style="fill:rgb(191,191,191);fill-rule:nonzero;"/>
        <path d="M2537,1014L2538,1015L2537,1014Z" style="fill:rgb(191,191,191);fill-rule:nonzero;"/>
        <path d="M475,1015L476,1016L475,1015Z" style="fill:rgb(191,191,191);fill-rule:nonzero;"/>
        <path d="M1734,1015L1735,1016L1734,1015Z" style="fill:rgb(191,191,191);fill-rule:nonzero;"/>
        <path d="M2288,1015L2289,1016L2288,1015Z" style="fill:rgb(191,191,191);fill-rule:nonzero;"/>
        <path d="M2403,1015L2404,1016L2403,1015Z" style="fill:rgb(191,191,191);fill-rule:nonzero;"/>
        <path d="M571,1016L572,1017L571,1016Z" style="fill:rgb(191,191,191);fill-rule:nonzero;"/>
        <path d="M741,1016L742,1017L741,1016Z" style="fill:rgb(191,191,191);fill-rule:nonzero;"/>
        <path d="M2407,1016L2408,1017L2407,1016M2525,1016L2526,1017L2525,1016Z" style="fill:rgb(191,191,191);fill-rule:nonzero;"/>
        <path d="M478,1017L479,1018L478,1017Z" style="fill:rgb(191,191,191);fill-rule:nonzero;"/>
        <path d="M1926,1017L1927,1018L1926,1017Z" style="fill:rgb(191,191,191);fill-rule:nonzero;"/>
        <path d="M2411,1017L2412,1018L2411,1017Z" style="fill:rgb(191,191,191);fill-rule:nonzero;"/>
        <path d="M566,1018L567,1019L566,1018Z" style="fill:rgb(191,191,191);fill-rule:nonzero;"/>
        <path d="M359,1019L360,1020L359,1019Z" style="fill:rgb(191,191,191);fill-rule:nonzero;"/>
        <path d="M481,1019L482,1020L481,1019Z" style="fill:rgb(191,191,191);fill-rule:nonzero;"/>
        <path d="M2508,1021L2509,1022L2508,1021Z" style="fill:rgb(191,191,191);fill-rule:nonzero;"/>
        <path d="M2139,1022L2140,1023L2139,1022Z" style="fill:rgb(191,191,191);fill-rule:nonzero;"/>
        <path d="M1908,1023L1909,1024L1908,1023M1906,1024L1907,1025L1906,1024Z" style="fill:rgb(191,191,191);fill-rule:nonzero;"/>
        <path d="M1904,1025L1905,1026L1904,1025Z" style="fill:rgb(191,191,191);fill-rule:nonzero;"/>
        <path d="M347,1026L348,1027L347,1026Z" style="fill:rgb(191,191,191);fill-rule:nonzero;"/>
        <path d="M492,1026L493,1027L492,1026M550,1026L551,1027L550,1026Z" style="fill:rgb(191,191,191);fill-rule:nonzero;"/>
        <path d="M548,1027L549,1028L548,1027M2293,1028L2294,1029L2293,1028Z" style="fill:rgb(191,191,191);fill-rule:nonzero;"/>
        <path d="M2494,1028L2495,1029L2494,1028M497,1029L498,1030L497,1029M1896,1030L1897,1031L1896,1030Z" style="fill:rgb(191,191,191);fill-rule:nonzero;"/>
        <path d="M2439,1030L2440,1031L2439,1030M2490,1031L2491,1032L2490,1031Z" style="fill:rgb(191,191,191);fill-rule:nonzero;"/>
        <path d="M348,1033L349,1034L348,1033M551,1033L552,1034L551,1033M511,1037L512,1038L511,1037M362,1038L363,1039L362,1038M513,1038L514,1039L513,1038Z" style="fill:rgb(191,191,191);fill-rule:nonzero;"/>
        <path d="M557,1038L558,1039L557,1038Z" style="fill:rgb(191,191,191);fill-rule:nonzero;"/>
        <path d="M738,1038L739,1039L738,1038Z" style="fill:rgb(191,191,191);fill-rule:nonzero;"/>
        <path d="M2447,1038L2448,1039L2447,1038Z" style="fill:rgb(191,191,191);fill-rule:nonzero;"/>
        <path d="M1886,1040L1887,1041L1886,1040M363,1042L364,1043L363,1042M562,1042L563,1043L562,1042M2305,1042L2306,1043L2305,1042M1884,1043L1885,1044L1884,1043Z" style="fill:rgb(191,191,191);fill-rule:nonzero;"/>
        <path d="M2479,1043L2480,1044L2479,1043M565,1044L566,1045L565,1044Z" style="fill:rgb(191,191,191);fill-rule:nonzero;"/>
        <path d="M568,1046L569,1047L568,1046Z" style="fill:rgb(191,191,191);fill-rule:nonzero;"/>
        <path d="M736,1047L737,1048L736,1047Z" style="fill:rgb(191,191,191);fill-rule:nonzero;"/>
        <path d="M2597,1047L2598,1048L2597,1047Z" style="fill:rgb(191,191,191);fill-rule:nonzero;"/>
        <path d="M571,1048L572,1049L571,1048Z" style="fill:rgb(191,191,191);fill-rule:nonzero;"/>
        <path d="M573,1049L574,1050L573,1049Z" style="fill:rgb(191,191,191);fill-rule:nonzero;"/>
        <path d="M1991,1049L1992,1050L1991,1049Z" style="fill:rgb(191,191,191);fill-rule:nonzero;"/>
        <path d="M365,1050L366,1051L365,1050M2579,1050L2580,1051L2579,1050M735,1051L736,1052L735,1051M1977,1051L1978,1052L1977,1051M2321,1051L2322,1052L2321,1051Z" style="fill:rgb(191,191,191);fill-rule:nonzero;"/>
        <path d="M2572,1051L2573,1052L2572,1051Z" style="fill:rgb(191,191,191);fill-rule:nonzero;"/>
        <path d="M541,1052L542,1053L541,1052Z" style="fill:rgb(191,191,191);fill-rule:nonzero;"/>
        <path d="M2565,1052L2566,1053L2565,1052Z" style="fill:rgb(191,191,191);fill-rule:nonzero;"/>
        <path d="M721,1053L722,1054L721,1053M1316,1053L1317,1054L1316,1053Z" style="fill:rgb(191,191,191);fill-rule:nonzero;"/>
        <path d="M1879,1053L1880,1054L1879,1053M1955,1054L1956,1055L1955,1054Z" style="fill:rgb(191,191,191);fill-rule:nonzero;"/>
        <path d="M353,1055L354,1056L353,1055Z" style="fill:rgb(191,191,191);fill-rule:nonzero;"/>
        <path d="M548,1055L549,1056L548,1055M2545,1055L2546,1056L2545,1055Z" style="fill:rgb(191,191,191);fill-rule:nonzero;"/>
        <path d="M550,1056L551,1057L550,1056M720,1056L721,1057L720,1056M1878,1056L1879,1057L1878,1056M2337,1056L2338,1057L2337,1056M589,1057L590,1058L589,1057M1250,1057L1251,1058L1250,1057M1944,1057L1945,1058L1944,1057Z" style="fill:rgb(191,191,191);fill-rule:nonzero;"/>
        <path d="M2342,1057L2343,1058L2342,1057Z" style="fill:rgb(191,191,191);fill-rule:nonzero;"/>
        <path d="M2539,1057L2540,1058L2539,1057M733,1058L734,1059L733,1058Z" style="fill:rgb(191,191,191);fill-rule:nonzero;"/>
        <path d="M2348,1058L2349,1059L2348,1058Z" style="fill:rgb(191,191,191);fill-rule:nonzero;"/>
        <path d="M2537,1058L2538,1059L2537,1058M594,1059L595,1060L594,1059M719,1059L720,1060L719,1059M1940,1059L1941,1060L1940,1059Z" style="fill:rgb(191,191,191);fill-rule:nonzero;"/>
        <path d="M560,1060L561,1061L560,1060Z" style="fill:rgb(191,191,191);fill-rule:nonzero;"/>
        <path d="M1877,1060L1878,1061L1877,1060M2362,1060L2363,1061L2362,1060Z" style="fill:rgb(191,191,191);fill-rule:nonzero;"/>
        <path d="M718,1062L719,1063L718,1062M1936,1062L1937,1063L1936,1062Z" style="fill:rgb(191,191,191);fill-rule:nonzero;"/>
        <path d="M2003,1062L2004,1063L2003,1062M606,1063L607,1064L606,1063M1192,1063L1193,1064L1192,1063M2598,1063L2599,1064L2598,1063Z" style="fill:rgb(191,191,191);fill-rule:nonzero;"/>
        <path d="M370,1065L371,1066L370,1065Z" style="fill:rgb(191,191,191);fill-rule:nonzero;"/>
        <path d="M2529,1065L2530,1066L2529,1065M1876,1066L1877,1067L1876,1066M2391,1066L2392,1067L2391,1066Z" style="fill:rgb(191,191,191);fill-rule:nonzero;"/>
        <path d="M624,1067L625,1068L624,1067Z" style="fill:rgb(191,191,191);fill-rule:nonzero;"/>
        <path d="M730,1067L731,1068L730,1067Z" style="fill:rgb(191,191,191);fill-rule:nonzero;"/>
        <path d="M1252,1067L1253,1068L1252,1067M2597,1067L2598,1068L2597,1067M1313,1068L1314,1069L1313,1068Z" style="fill:rgb(191,191,191);fill-rule:nonzero;"/>
        <path d="M1617,1068L1618,1069L1617,1068Z" style="fill:rgb(191,191,191);fill-rule:nonzero;"/>
        <path d="M2457,1068L2458,1069L2457,1068Z" style="fill:rgb(191,191,191);fill-rule:nonzero;"/>
        <path d="M2471,1068L2472,1069L2471,1068Z" style="fill:rgb(191,191,191);fill-rule:nonzero;"/>
        <path d="M648,1069L649,1070L648,1069Z" style="fill:rgb(191,191,191);fill-rule:nonzero;"/>
        <path d="M1932,1069L1933,1070L1932,1069M2457,1069L2458,1070L2457,1069M358,1070L359,1071L358,1070M372,1070L373,1071L372,1070M715,1070L716,1071L715,1070Z" style="fill:rgb(191,191,191);fill-rule:nonzero;"/>
        <path d="M1999,1073L2000,1074L1999,1073Z" style="fill:rgb(191,191,191);fill-rule:nonzero;"/>
        <path d="M601,1074L602,1075L601,1074Z" style="fill:rgb(191,191,191);fill-rule:nonzero;"/>
        <path d="M2336,1074L2337,1075L2336,1074M360,1075L361,1076L360,1075Z" style="fill:rgb(191,191,191);fill-rule:nonzero;"/>
        <path d="M1193,1075L1194,1076L1193,1075Z" style="fill:rgb(191,191,191);fill-rule:nonzero;"/>
        <path d="M1256,1075L1257,1076L1256,1075M1559,1075L1560,1076L1559,1075Z" style="fill:rgb(191,191,191);fill-rule:nonzero;"/>
        <path d="M1619,1075L1620,1076L1619,1075Z" style="fill:rgb(191,191,191);fill-rule:nonzero;"/>
        <path d="M2399,1075L2400,1076L2399,1075M608,1076L609,1077L608,1076M641,1076L642,1077L641,1076Z" style="fill:rgb(191,191,191);fill-rule:nonzero;"/>
        <path d="M1559,1076L1560,1077L1559,1076Z" style="fill:rgb(191,191,191);fill-rule:nonzero;"/>
        <path d="M1997,1076L1998,1077L1997,1076Z" style="fill:rgb(191,191,191);fill-rule:nonzero;"/>
        <path d="M1620,1077L1621,1078L1620,1077Z" style="fill:rgb(191,191,191);fill-rule:nonzero;"/>
        <path d="M2279,1077L2280,1078L2279,1077Z" style="fill:rgb(191,191,191);fill-rule:nonzero;"/>
        <path d="M2337,1078L2338,1079L2337,1078Z" style="fill:rgb(191,191,191);fill-rule:nonzero;"/>
        <path d="M2457,1078L2458,1079L2457,1078Z" style="fill:rgb(191,191,191);fill-rule:nonzero;"/>
        <path d="M376,1079L377,1080L376,1079M620,1079L621,1080L620,1079Z" style="fill:rgb(191,191,191);fill-rule:nonzero;"/>
        <path d="M638,1079L639,1080L638,1079M2527,1079L2528,1080L2527,1079Z" style="fill:rgb(191,191,191);fill-rule:nonzero;"/>
        <path d="M637,1080L638,1081L637,1080Z" style="fill:rgb(191,191,191);fill-rule:nonzero;"/>
        <path d="M1261,1080L1262,1081L1261,1080Z" style="fill:rgb(191,191,191);fill-rule:nonzero;"/>
        <path d="M1304,1080L1305,1081L1304,1080Z" style="fill:rgb(191,191,191);fill-rule:nonzero;"/>
        <path d="M377,1081L378,1082L377,1081Z" style="fill:rgb(191,191,191);fill-rule:nonzero;"/>
        <path d="M636,1081L637,1082L636,1081M1623,1081L1624,1082L1623,1081Z" style="fill:rgb(191,191,191);fill-rule:nonzero;"/>
        <path d="M363,1082L364,1083L363,1082M1991,1082L1992,1083L1991,1082M2528,1082L2529,1083L2528,1082Z" style="fill:rgb(191,191,191);fill-rule:nonzero;"/>
        <path d="M378,1083L379,1084L378,1083M709,1083L710,1084L709,1083Z" style="fill:rgb(191,191,191);fill-rule:nonzero;"/>
        <path d="M2585,1083L2586,1084L2585,1083M723,1084L724,1085L723,1084Z" style="fill:rgb(191,191,191);fill-rule:nonzero;"/>
        <path d="M2340,1084L2341,1085L2340,1084Z" style="fill:rgb(191,191,191);fill-rule:nonzero;"/>
        <path d="M2529,1084L2530,1085L2529,1084Z" style="fill:rgb(191,191,191);fill-rule:nonzero;"/>
        <path d="M379,1085L380,1086L379,1085M708,1085L709,1086L708,1085M1630,1085L1631,1086L1630,1085M2280,1085L2281,1086L2280,1085Z" style="fill:rgb(191,191,191);fill-rule:nonzero;"/>
        <path d="M2341,1085L2342,1086L2341,1085M2471,1085L2472,1086L2471,1085M2582,1085L2583,1086L2582,1085Z" style="fill:rgb(191,191,191);fill-rule:nonzero;"/>
        <path d="M1285,1086L1286,1087L1285,1086Z" style="fill:rgb(191,191,191);fill-rule:nonzero;"/>
        <path d="M1634,1086L1635,1087L1634,1086M1656,1086L1657,1087L1656,1086Z" style="fill:rgb(191,191,191);fill-rule:nonzero;"/>
        <path d="M1876,1086L1877,1087L1876,1086Z" style="fill:rgb(191,191,191);fill-rule:nonzero;"/>
        <path d="M1985,1086L1986,1087L1985,1086Z" style="fill:rgb(191,191,191);fill-rule:nonzero;"/>
        <path d="M2342,1086L2343,1087L2342,1086Z" style="fill:rgb(191,191,191);fill-rule:nonzero;"/>
        <path d="M380,1087L381,1088L380,1087M1936,1087L1937,1088L1936,1087Z" style="fill:rgb(191,191,191);fill-rule:nonzero;"/>
        <path d="M2343,1087L2344,1088L2343,1087Z" style="fill:rgb(191,191,191);fill-rule:nonzero;"/>
        <path d="M721,1088L722,1089L721,1088Z" style="fill:rgb(191,191,191);fill-rule:nonzero;"/>
        <path d="M1981,1088L1982,1089L1981,1088Z" style="fill:rgb(191,191,191);fill-rule:nonzero;"/>
        <path d="M2574,1089L2575,1090L2574,1089Z" style="fill:rgb(191,191,191);fill-rule:nonzero;"/>
        <path d="M367,1090L368,1091L367,1090M720,1090L721,1091L720,1090Z" style="fill:rgb(191,191,191);fill-rule:nonzero;"/>
        <path d="M1940,1090L1941,1091L1940,1090Z" style="fill:rgb(191,191,191);fill-rule:nonzero;"/>
        <path d="M2571,1090L2572,1091L2571,1090M1942,1091L1943,1092L1942,1091Z" style="fill:rgb(191,191,191);fill-rule:nonzero;"/>
        <path d="M2351,1091L2352,1092L2351,1091Z" style="fill:rgb(191,191,191);fill-rule:nonzero;"/>
        <path d="M2455,1091L2456,1092L2455,1091M368,1092L369,1093L368,1092Z" style="fill:rgb(191,191,191);fill-rule:nonzero;"/>
        <path d="M704,1092L705,1093L704,1092Z" style="fill:rgb(191,191,191);fill-rule:nonzero;"/>
        <path d="M719,1092L720,1093L719,1092M1968,1092L1969,1093L1968,1092Z" style="fill:rgb(191,191,191);fill-rule:nonzero;"/>
        <path d="M2355,1092L2356,1093L2355,1092Z" style="fill:rgb(191,191,191);fill-rule:nonzero;"/>
        <path d="M2384,1092L2385,1093L2384,1092M2540,1092L2541,1093L2540,1092Z" style="fill:rgb(191,191,191);fill-rule:nonzero;"/>
        <path d="M2563,1092L2564,1093L2563,1092Z" style="fill:rgb(191,191,191);fill-rule:nonzero;"/>
        <path d="M1562,1093L1563,1094L1562,1093M2375,1093L2376,1094L2375,1093M2545,1093L2546,1094L2545,1093M2555,1093L2556,1094L2555,1093M384,1094L385,1095L384,1094M703,1094L704,1095L703,1094Z" style="fill:rgb(191,191,191);fill-rule:nonzero;"/>
        <path d="M718,1094L719,1095L718,1094M2282,1094L2283,1095L2282,1094M370,1096L371,1097L370,1096M701,1097L702,1098L701,1097Z" style="fill:rgb(191,191,191);fill-rule:nonzero;"/>
        <path d="M1198,1097L1199,1098L1198,1097M387,1099L388,1100L387,1099M715,1099L716,1100L715,1099M2474,1099L2475,1100L2474,1099Z" style="fill:rgb(191,191,191);fill-rule:nonzero;"/>
        <path d="M1199,1100L1200,1101L1199,1100M2452,1100L2453,1101L2452,1100M714,1101L715,1102L714,1101Z" style="fill:rgb(191,191,191);fill-rule:nonzero;"/>
        <path d="M2451,1102L2452,1103L2451,1102Z" style="fill:rgb(191,191,191);fill-rule:nonzero;"/>
        <path d="M1566,1103L1567,1104L1566,1103Z" style="fill:rgb(191,191,191);fill-rule:nonzero;"/>
        <path d="M2450,1104L2451,1105L2450,1104Z" style="fill:rgb(191,191,191);fill-rule:nonzero;"/>
        <path d="M391,1105L392,1106L391,1105Z" style="fill:rgb(191,191,191);fill-rule:nonzero;"/>
        <path d="M376,1106L377,1107L376,1106M695,1106L696,1107L695,1106M2288,1107L2289,1108L2288,1107Z" style="fill:rgb(191,191,191);fill-rule:nonzero;"/>
        <path d="M378,1109L379,1110L378,1109Z" style="fill:rgb(191,191,191);fill-rule:nonzero;"/>
        <path d="M394,1109L395,1110L394,1109M709,1109L710,1110L709,1109Z" style="fill:rgb(191,191,191);fill-rule:nonzero;"/>
        <path d="M1204,1110L1205,1111L1204,1110Z" style="fill:rgb(191,191,191);fill-rule:nonzero;"/>
        <path d="M1570,1110L1571,1111L1570,1110M2005,1110L2006,1111L2005,1110Z" style="fill:rgb(191,191,191);fill-rule:nonzero;"/>
        <path d="M2479,1110L2480,1111L2479,1110M2600,1110L2601,1111L2600,1110M2291,1111L2292,1112L2291,1111M380,1112L381,1113L380,1112Z" style="fill:rgb(191,191,191);fill-rule:nonzero;"/>
        <path d="M1885,1112L1886,1113L1885,1112Z" style="fill:rgb(191,191,191);fill-rule:nonzero;"/>
        <path d="M397,1113L398,1114L397,1113Z" style="fill:rgb(191,191,191);fill-rule:nonzero;"/>
        <path d="M1574,1115L1575,1116L1574,1115M1575,1116L1576,1117L1575,1116Z" style="fill:rgb(191,191,191);fill-rule:nonzero;"/>
        <path d="M1888,1116L1889,1117L1888,1116M400,1117L401,1118L400,1117Z" style="fill:rgb(191,191,191);fill-rule:nonzero;"/>
        <path d="M1209,1117L1210,1118L1209,1117Z" style="fill:rgb(191,191,191);fill-rule:nonzero;"/>
        <path d="M1576,1117L1577,1118L1576,1117M2484,1117L2485,1118L2484,1117M401,1118L402,1119L401,1118Z" style="fill:rgb(191,191,191);fill-rule:nonzero;"/>
        <path d="M1315,1118L1316,1119L1315,1118M1577,1118L1578,1119L1577,1118Z" style="fill:rgb(191,191,191);fill-rule:nonzero;"/>
        <path d="M2485,1118L2486,1119L2485,1118M385,1119L386,1120L385,1119Z" style="fill:rgb(191,191,191);fill-rule:nonzero;"/>
        <path d="M685,1119L686,1120L685,1119Z" style="fill:rgb(191,191,191);fill-rule:nonzero;"/>
        <path d="M1995,1120L1996,1121L1995,1120M2300,1120L2301,1121L2300,1120M1994,1121L1995,1122L1994,1121Z" style="fill:rgb(191,191,191);fill-rule:nonzero;"/>
        <path d="M1214,1122L1215,1123L1214,1122Z" style="fill:rgb(191,191,191);fill-rule:nonzero;"/>
        <path d="M1582,1122L1583,1123L1582,1122Z" style="fill:rgb(191,191,191);fill-rule:nonzero;"/>
        <path d="M2588,1122L2589,1123L2588,1122M1215,1123L1216,1124L1215,1123Z" style="fill:rgb(191,191,191);fill-rule:nonzero;"/>
        <path d="M1310,1123L1311,1124L1310,1123Z" style="fill:rgb(191,191,191);fill-rule:nonzero;"/>
        <path d="M2304,1123L2305,1124L2304,1123M2432,1123L2433,1124L2432,1123M2490,1123L2491,1124L2490,1123M698,1124L699,1125L698,1124Z" style="fill:rgb(191,191,191);fill-rule:nonzero;"/>
        <path d="M1309,1124L1310,1125L1309,1124Z" style="fill:rgb(191,191,191);fill-rule:nonzero;"/>
        <path d="M1585,1124L1586,1125L1585,1124Z" style="fill:rgb(191,191,191);fill-rule:nonzero;"/>
        <path d="M1896,1124L1897,1125L1896,1124Z" style="fill:rgb(191,191,191);fill-rule:nonzero;"/>
        <path d="M407,1125L408,1126L407,1125Z" style="fill:rgb(191,191,191);fill-rule:nonzero;"/>
        <path d="M1219,1126L1220,1127L1219,1126Z" style="fill:rgb(191,191,191);fill-rule:nonzero;"/>
        <path d="M1899,1126L1900,1127L1899,1126M2494,1126L2495,1127L2494,1126Z" style="fill:rgb(191,191,191);fill-rule:nonzero;"/>
        <path d="M409,1127L410,1128L409,1127Z" style="fill:rgb(191,191,191);fill-rule:nonzero;"/>
        <path d="M678,1127L679,1128L678,1127Z" style="fill:rgb(191,191,191);fill-rule:nonzero;"/>
        <path d="M2311,1127L2312,1128L2311,1127Z" style="fill:rgb(191,191,191);fill-rule:nonzero;"/>
        <path d="M410,1128L411,1129L410,1128M1902,1128L1903,1129L1902,1128Z" style="fill:rgb(191,191,191);fill-rule:nonzero;"/>
        <path d="M1984,1128L1985,1129L1984,1128Z" style="fill:rgb(191,191,191);fill-rule:nonzero;"/>
        <path d="M2579,1128L2580,1129L2579,1128Z" style="fill:rgb(191,191,191);fill-rule:nonzero;"/>
        <path d="M411,1129L412,1130L411,1129Z" style="fill:rgb(191,191,191);fill-rule:nonzero;"/>
        <path d="M676,1129L677,1130L676,1129Z" style="fill:rgb(191,191,191);fill-rule:nonzero;"/>
        <path d="M1224,1129L1225,1130L1224,1129M1302,1129L1303,1130L1302,1129Z" style="fill:rgb(191,191,191);fill-rule:nonzero;"/>
        <path d="M1982,1129L1983,1130L1982,1129M2577,1129L2578,1130L2577,1129M394,1130L395,1131L394,1130M675,1130L676,1131L675,1130Z" style="fill:rgb(191,191,191);fill-rule:nonzero;"/>
        <path d="M1226,1130L1227,1131L1226,1130Z" style="fill:rgb(191,191,191);fill-rule:nonzero;"/>
        <path d="M1980,1130L1981,1131L1980,1130Z" style="fill:rgb(191,191,191);fill-rule:nonzero;"/>
        <path d="M2318,1130L2319,1131L2318,1130Z" style="fill:rgb(191,191,191);fill-rule:nonzero;"/>
        <path d="M2501,1130L2502,1131L2501,1130M395,1131L396,1132L395,1131M674,1131L675,1132L674,1131Z" style="fill:rgb(191,191,191);fill-rule:nonzero;"/>
        <path d="M692,1131L693,1132L692,1131Z" style="fill:rgb(191,191,191);fill-rule:nonzero;"/>
        <path d="M1298,1131L1299,1132L1298,1131Z" style="fill:rgb(191,191,191);fill-rule:nonzero;"/>
        <path d="M2321,1131L2322,1132L2321,1131M2415,1131L2416,1132L2415,1131M2503,1131L2504,1132L2503,1131Z" style="fill:rgb(191,191,191);fill-rule:nonzero;"/>
        <path d="M2573,1131L2574,1132L2573,1131Z" style="fill:rgb(191,191,191);fill-rule:nonzero;"/>
        <path d="M414,1132L415,1133L414,1132Z" style="fill:rgb(191,191,191);fill-rule:nonzero;"/>
        <path d="M673,1132L674,1133L673,1132Z" style="fill:rgb(191,191,191);fill-rule:nonzero;"/>
        <path d="M1296,1132L1297,1133L1296,1132Z" style="fill:rgb(191,191,191);fill-rule:nonzero;"/>
        <path d="M1604,1132L1605,1133L1604,1132Z" style="fill:rgb(191,191,191);fill-rule:nonzero;"/>
        <path d="M1910,1132L1911,1133L1910,1132M2324,1132L2325,1133L2324,1132Z" style="fill:rgb(191,191,191);fill-rule:nonzero;"/>
        <path d="M2412,1132L2413,1133L2412,1132M415,1133L416,1134L415,1133M1913,1133L1914,1134L1913,1133Z" style="fill:rgb(191,191,191);fill-rule:nonzero;"/>
        <path d="M2508,1133L2509,1134L2508,1133M416,1134L417,1135L416,1134Z" style="fill:rgb(191,191,191);fill-rule:nonzero;"/>
        <path d="M671,1134L672,1135L671,1134M1649,1134L1650,1135L1649,1134M2511,1134L2512,1135L2511,1134M1241,1135L1242,1136L1241,1135M1639,1135L1640,1136L1639,1135Z" style="fill:rgb(191,191,191);fill-rule:nonzero;"/>
        <path d="M2337,1135L2338,1136L2337,1135Z" style="fill:rgb(191,191,191);fill-rule:nonzero;"/>
        <path d="M2399,1135L2400,1136L2399,1135M418,1136L419,1137L418,1136M1246,1136L1247,1137L1246,1136Z" style="fill:rgb(191,191,191);fill-rule:nonzero;"/>
        <path d="M1254,1137L1255,1138L1254,1137Z" style="fill:rgb(191,191,191);fill-rule:nonzero;"/>
        <path d="M1932,1137L1933,1138L1932,1137Z" style="fill:rgb(191,191,191);fill-rule:nonzero;"/>
        <path d="M1953,1137L1954,1138L1953,1137Z" style="fill:rgb(191,191,191);fill-rule:nonzero;"/>
        <path d="M663,1141L664,1142L663,1141Z" style="fill:rgb(191,191,191);fill-rule:nonzero;"/>
        <path d="M425,1142L426,1143L425,1142M430,1146L431,1147L430,1146M412,1148L413,1149L412,1148Z" style="fill:rgb(191,191,191);fill-rule:nonzero;"/>
        <path d="M675,1148L676,1149L675,1148Z" style="fill:rgb(191,191,191);fill-rule:nonzero;"/>
        <path d="M413,1149L414,1150L413,1149M434,1149L435,1150L434,1149M653,1149L654,1150L653,1149Z" style="fill:rgb(191,191,191);fill-rule:nonzero;"/>
        <path d="M674,1149L675,1150L674,1149Z" style="fill:rgb(191,191,191);fill-rule:nonzero;"/>
        <path d="M438,1152L439,1153L438,1152Z" style="fill:rgb(191,191,191);fill-rule:nonzero;"/>
        <path d="M419,1154L420,1155L419,1154Z" style="fill:rgb(191,191,191);fill-rule:nonzero;"/>
        <path d="M668,1154L669,1155L668,1154Z" style="fill:rgb(191,191,191);fill-rule:nonzero;"/>
        <path d="M664,1157L665,1158L664,1157Z" style="fill:rgb(191,191,191);fill-rule:nonzero;"/>
        <path d="M424,1158L425,1159L424,1158M636,1160L637,1161L636,1160Z" style="fill:rgb(191,191,191);fill-rule:nonzero;"/>
        <path d="M431,1163L432,1164L431,1163Z" style="fill:rgb(191,191,191);fill-rule:nonzero;"/>
        <path d="M656,1163L657,1164L656,1163Z" style="fill:rgb(191,191,191);fill-rule:nonzero;"/>
        <path d="M458,1164L459,1165L458,1164Z" style="fill:rgb(191,191,191);fill-rule:nonzero;"/>
        <path d="M629,1164L630,1165L629,1164M434,1165L435,1166L434,1165Z" style="fill:rgb(191,191,191);fill-rule:nonzero;"/>
        <path d="M627,1165L628,1166L627,1165Z" style="fill:rgb(191,191,191);fill-rule:nonzero;"/>
        <path d="M653,1165L654,1166L653,1165Z" style="fill:rgb(191,191,191);fill-rule:nonzero;"/>
        <path d="M462,1166L463,1167L462,1166Z" style="fill:rgb(191,191,191);fill-rule:nonzero;"/>
        <path d="M625,1166L626,1167L625,1166Z" style="fill:rgb(191,191,191);fill-rule:nonzero;"/>
        <path d="M437,1167L438,1168L437,1167Z" style="fill:rgb(191,191,191);fill-rule:nonzero;"/>
        <path d="M464,1167L465,1168L464,1167Z" style="fill:rgb(191,191,191);fill-rule:nonzero;"/>
        <path d="M442,1170L443,1171L442,1170Z" style="fill:rgb(191,191,191);fill-rule:nonzero;"/>
        <path d="M645,1170L646,1171L645,1170Z" style="fill:rgb(191,191,191);fill-rule:nonzero;"/>
        <path d="M473,1171L474,1172L473,1171Z" style="fill:rgb(191,191,191);fill-rule:nonzero;"/>
        <path d="M609,1173L610,1174L609,1173Z" style="fill:rgb(191,191,191);fill-rule:nonzero;"/>
        <path d="M449,1174L450,1175L449,1174Z" style="fill:rgb(191,191,191);fill-rule:nonzero;"/>
        <path d="M606,1174L607,1175L606,1174Z" style="fill:rgb(191,191,191);fill-rule:nonzero;"/>
        <path d="M638,1174L639,1175L638,1174Z" style="fill:rgb(191,191,191);fill-rule:nonzero;"/>
        <path d="M451,1175L452,1176L451,1175Z" style="fill:rgb(191,191,191);fill-rule:nonzero;"/>
        <path d="M636,1175L637,1176L636,1175M455,1177L456,1178L455,1177Z" style="fill:rgb(191,191,191);fill-rule:nonzero;"/>
        <path d="M490,1177L491,1178L490,1177Z" style="fill:rgb(191,191,191);fill-rule:nonzero;"/>
        <path d="M597,1177L598,1178L597,1177Z" style="fill:rgb(191,191,191);fill-rule:nonzero;"/>
        <path d="M459,1179L460,1180L459,1179Z" style="fill:rgb(191,191,191);fill-rule:nonzero;"/>
        <path d="M497,1179L498,1180L497,1179M590,1179L591,1180L590,1179M628,1179L629,1180L628,1179Z" style="fill:rgb(191,191,191);fill-rule:nonzero;"/>
        <path d="M461,1180L462,1181L461,1180Z" style="fill:rgb(191,191,191);fill-rule:nonzero;"/>
        <path d="M586,1180L587,1181L586,1180Z" style="fill:rgb(191,191,191);fill-rule:nonzero;"/>
        <path d="M511,1182L512,1183L511,1182Z" style="fill:rgb(191,191,191);fill-rule:nonzero;"/>
        <path d="M576,1182L577,1183L576,1182M468,1183L469,1184L468,1183Z" style="fill:rgb(191,191,191);fill-rule:nonzero;"/>
        <path d="M517,1183L518,1184L517,1183Z" style="fill:rgb(191,191,191);fill-rule:nonzero;"/>
        <path d="M570,1183L571,1184L570,1183Z" style="fill:rgb(191,191,191);fill-rule:nonzero;"/>
        <path d="M619,1183L620,1184L619,1183M525,1184L526,1185L525,1184M473,1185L474,1186L473,1185Z" style="fill:rgb(191,191,191);fill-rule:nonzero;"/>
        <path d="M611,1186L612,1187L611,1186M608,1187L609,1188L608,1187M605,1188L606,1189L605,1188M485,1189L486,1190L485,1189M602,1189L603,1190L602,1189M492,1191L493,1192L492,1191M496,1192L497,1193L496,1192M500,1193L501,1194L500,1193Z" style="fill:rgb(191,191,191);fill-rule:nonzero;"/>
        <path d="M587,1193L588,1194L587,1193Z" style="fill:rgb(191,191,191);fill-rule:nonzero;"/>
        <path d="M505,1194L506,1195L505,1194M582,1194L583,1195L582,1194M517,1196L518,1197L517,1196Z" style="fill:rgb(191,191,191);fill-rule:nonzero;"/>
        <path d="M570,1196L571,1197L570,1196Z" style="fill:rgb(191,191,191);fill-rule:nonzero;"/>
    </g>
    <g>
        <path d="M526,815.424C493.52,819.702 462.784,829.7 436,849.152C334.378,922.957 334.377,1077.04 436,1150.85C454.209,1164.07 475.231,1173.77 497,1179.37C517.63,1184.68 540.727,1187.26 562,1184.71C592.29,1181.09 621.547,1171.4 647,1154.33C753.418,1082.97 755.135,924.056 652,849.152C633.813,835.943 612.75,826.222 591,820.63C570.365,815.324 547.263,812.624 526,815.424Z" style="fill:white;fill-rule:nonzero;"/>
        <path d="M2004,1047C1992.05,1049.46 1980.07,1051 1968,1052.73C1958.74,1054.05 1947.98,1054.4 1940,1059.85C1930.02,1066.67 1928.99,1082 1939.02,1089.36C1956.59,1102.26 1990.97,1089.53 2000.48,1072C2004.63,1064.35 2004,1055.4 2004,1047Z" style="fill:white;fill-rule:nonzero;"/>
        <path d="M2598,1047C2585.8,1051.13 2571.73,1051.61 2559,1053.28C2550.22,1054.44 2540.11,1055.37 2533.09,1061.39C2523.62,1069.51 2525.71,1085.69 2537,1091.08C2562.04,1103.03 2611.54,1079.26 2598,1047Z" style="fill:white;fill-rule:nonzero;"/>
    </g>
    <path d="M380,951C380,953.872 379.314,958.002 381.028,960.502C383.948,964.761 392.494,966.653 397,968.781C409.701,974.78 422.024,981.474 434,988.811C484.613,1019.82 531.093,1051.77 588,1070.67C605.547,1076.49 637.431,1091.51 648,1069C610.592,1069 572.942,1055.58 547,1028C557.812,1023.5 567.734,1017.52 579,1014.03C597.607,1008.26 615.743,1008 635,1008C646.242,1008 661.811,1013.47 668,1001C642.545,997.783 615.569,995.768 590,999C603.804,985.359 635.887,992.02 654,993.831C664.785,994.909 676.388,999.025 682,987L604,982C611.284,973.933 618.143,976.529 628,976.961C641.788,977.564 655.285,978.121 669,980C679.657,981.46 689.657,985.262 696,974L614,967C620.135,958.929 627.766,960.951 637,961.83C652.357,963.292 667.658,963.993 683,966.13C693.664,967.616 704.329,972.152 710,960L637,951.039L573,953C570.47,961.601 564.474,969.996 558.985,977C554.046,983.304 548.366,988.904 542,993.764C507.289,1020.26 475.748,996.289 443,981C447.637,977.978 451.347,980.991 456,983C465.628,987.157 483.321,999.953 492,991L446,969.741L415,955.692L402,959.442L380,951Z" style="fill:rgb(191,191,191);fill-rule:nonzero;"/>
</svg>
