<?xml version="1.0" encoding="UTF-8" standalone="no"?>
<!DOCTYPE svg PUBLIC "-//W3C//DTD SVG 1.1//EN" "http://www.w3.org/Graphics/SVG/1.1/DTD/svg11.dtd">
<svg width="100%" height="100%" viewBox="0 0 3840 2160" version="1.1" xmlns="http://www.w3.org/2000/svg" xmlns:xlink="http://www.w3.org/1999/xlink" xml:space="preserve" xmlns:serif="http://www.serif.com/" style="fill-rule:evenodd;clip-rule:evenodd;stroke-linejoin:round;stroke-miterlimit:2;">
    <g>
        <path d="M2279,1534L2279,1162L2351,1162L2351,1152L2042,1152L2042,1162L2126,1162L2126,1369C2126,1395.26 2131.55,1428.97 2118.88,1453C2068.49,1548.6 1907.31,1582.06 1834.75,1495C1793.33,1445.29 1777.2,1373 1764.8,1311C1752.82,1251.08 1749.62,1190.76 1746.96,1130C1742.37,1025.11 1750.59,919.689 1772.79,817C1791.18,731.916 1837.31,617.883 1936,605.286C2050.61,590.656 2131.73,709.123 2172.69,800C2186.22,829.996 2195.91,862.13 2203.87,894C2206.5,904.494 2205.9,922.954 2219,923L2219,601C2205.83,601.01 2196.76,611.585 2186,618.189C2168.18,629.131 2149.37,637.896 2128,636.961C2080.49,634.88 2038.08,606.663 1992,597.449C1922.94,583.639 1847.7,613.82 1791,651.079C1593.56,780.825 1540.46,1058.37 1611.67,1272C1641.23,1360.69 1693.6,1446.31 1772,1499.66C1854.74,1555.96 1956.03,1567.02 2050,1535C2094.78,1519.74 2133.99,1488.74 2182,1484.17C2205.58,1481.92 2230.23,1491.07 2248,1506.3C2257.49,1514.44 2266.02,1533.95 2279,1534M1154,597.424C1106.91,603.606 1063.43,610.194 1020,631.36C812.178,732.637 734.105,990.766 781.424,1205C818.42,1372.49 942.76,1535.15 1122,1558.72C1148.04,1562.14 1177.94,1561.96 1204,1558.72C1258.82,1551.89 1311.94,1529.25 1357,1497.72C1563.07,1353.54 1611.22,1049.95 1502.25,832C1452.04,731.594 1368.33,645.598 1259,611.975C1226.77,602.063 1187.92,592.972 1154,597.424Z" style="fill:rgb(191,191,191);fill-rule:nonzero;"/>
        <path d="M144,617L144,627L231,627L241.95,659L264.308,720L338.947,924L569,1553L570,1553L697.026,1149L790.576,852L843.001,685L855.974,644L862.419,628.028L884,627L939,627L939,617L761,617L761,627L842,627C829.609,680.56 809.345,733.486 793.026,786C760.733,889.914 729.267,994.085 696.974,1098C682.999,1142.97 668.864,1187.91 655.28,1233C649.351,1252.68 638.789,1274.52 637,1295L636,1295C632.797,1273.31 620.583,1250.59 613.053,1230L563.053,1093C525.271,989.696 487.729,886.303 449.947,783C430.968,731.109 410.122,679.53 393,627L473,627L473,617L144,617M2291,617L2291,627L2381,627L2381,1273C2381,1319.09 2381.76,1364.92 2403.31,1407C2459.58,1516.9 2600.85,1555.98 2716,1548.09C2743.18,1546.23 2769.73,1542.57 2796,1535C2853.48,1518.44 2908.73,1486.28 2939.13,1433C2962.72,1391.65 2963,1347.1 2963,1301L2963,627L3050,627L3050,1524L2973,1524L2973,1534L3619,1534C3623.38,1534 3630.53,1535.36 3634.54,1533.41C3638.99,1531.25 3635.95,1520.82 3636.01,1517C3636.29,1500.69 3636.22,1484.28 3636.68,1467.96C3638.65,1397.7 3636.47,1327.24 3636.96,1256.96C3637.09,1239.05 3637.27,1221.08 3636.88,1203.17C3636.68,1193.91 3639.87,1185.04 3628,1185C3627.99,1239.84 3620.26,1299.32 3598.57,1350C3564.14,1430.45 3491.45,1493 3407,1515.27C3342.81,1532.19 3270.86,1524 3205,1524L3205,1104C3205,1096.12 3201.61,1077.94 3206.03,1071.32C3208.86,1067.07 3224.17,1068.02 3229,1068C3252.18,1067.89 3274.52,1066.14 3297,1073.86C3347.7,1091.29 3379.96,1137.48 3395.81,1187C3400.56,1201.85 3404.43,1216.79 3407.88,1232C3409,1236.95 3408.73,1246.44 3412.01,1250.4C3413.95,1252.73 3418.32,1252 3421,1252L3421,878L3412,878C3405.79,911.445 3405.72,943.75 3392.55,976C3388.06,986.988 3381.84,997.636 3374.57,1007C3332.59,1061.08 3266.13,1056.82 3205,1052L3205,627C3315.29,627 3450.03,613.002 3528.39,708C3570.79,759.408 3592.38,822.944 3603.25,888C3605.8,903.275 3608,918.626 3609.84,934C3610.77,941.733 3609.61,948.888 3619,949L3619,617L2845,617L2845,627L2948,627L2948,1296C2948,1349.11 2946.37,1399.09 2911.99,1443C2847.53,1525.3 2733.5,1537.64 2643,1494.78C2599.17,1474.02 2560.8,1439.02 2543.43,1393C2531.53,1361.48 2534,1328.05 2534,1295L2534,627L2621,627L2621,617L2291,617Z" style="fill:rgb(191,191,191);fill-rule:nonzero;"/>
        <path d="M1152,612.424C1057.86,624.822 1008.17,714.511 980.667,797C922.415,971.724 919.176,1169.2 975.344,1345C1004.67,1436.78 1064.63,1559.7 1180,1545.71C1268.22,1535.02 1315.9,1444.03 1342.69,1369C1405.56,1192.97 1408.45,986.526 1349.33,809C1344.51,794.517 1339.47,780.175 1333.8,766C1304.56,692.912 1243.3,600.402 1152,612.424Z" style="fill:white;fill-rule:nonzero;"/>
    </g>
</svg>
