<?xml version="1.0" encoding="utf-8"?>
<!-- Generator: Adobe Illustrator 16.0.4, SVG Export Plug-In . SVG Version: 6.00 Build 0)  -->
<!DOCTYPE svg PUBLIC "-//W3C//DTD SVG 1.1//EN" "http://www.w3.org/Graphics/SVG/1.1/DTD/svg11.dtd">
<svg version="1.1" id="Icon" xmlns="http://www.w3.org/2000/svg" xmlns:xlink="http://www.w3.org/1999/xlink" x="0px" y="0px"
	 width="380.65px" height="380.65px" viewBox="222.237 95.394 380.65 380.65" enable-background="new 222.237 95.394 380.65 380.65"
	 xml:space="preserve">
<path fill="#FFFFFF" d="M602.888,167.663c-14,6.212-29.038,10.413-44.851,12.3c16.138-9.675,28.5-24.975,34.338-43.212
	c-15.075,8.95-31.787,15.45-49.6,18.95c-14.238-15.175-34.538-24.65-57-24.65c-43.113,0-78.075,34.95-78.075,78.088
	c0,6.125,0.688,12.075,2.013,17.8c-64.9-3.263-122.438-34.362-160.95-81.6c-6.725,11.538-10.575,24.95-10.575,39.263
	c0,27.087,13.788,51,34.737,64.987c-12.8-0.4-24.837-3.913-35.375-9.762c0,0.325,0,0.662,0,0.987
	c0,37.825,26.913,69.388,62.638,76.562c-6.562,1.787-13.45,2.737-20.575,2.737c-5.037,0-9.925-0.475-14.7-1.375
	c9.938,31,38.775,53.588,72.938,54.226c-26.725,20.938-60.4,33.438-96.975,33.438c-6.3,0-12.525-0.375-18.638-1.113
	c34.562,22.163,75.6,35.101,119.7,35.101c143.625,0,222.175-118.987,222.175-222.175c0-3.387-0.075-6.75-0.237-10.112
	C579.175,197.075,592.425,183.325,602.888,167.663z"/>
</svg>
